<?xml version="1.0" encoding="us-ascii" standalone="no"?><svg xmlns="http://www.w3.org/2000/svg" xmlns:xlink="http://www.w3.org/1999/xlink" contentStyleType="text/css" height="1538px" preserveAspectRatio="none" style="width:1114px;height:1538px;background:#FFFFFF;" version="1.1" viewBox="0 0 1114 1538" width="1114px" zoomAndPan="magnify"><defs/><g><!--class Answer--><g id="elem_Answer"><rect codeLine="1" fill="#F1F1F1" height="96.8906" id="Answer" rx="2.5" ry="2.5" style="stroke:#181818;stroke-width:0.5;" width="164" x="11.5" y="56"/><ellipse cx="63.25" cy="72" fill="#ADD1B2" rx="11" ry="11" style="stroke:#181818;stroke-width:1.0;"/><path d="M65.5938,67.6719 C64.6563,67.2344 64.0625,67.0938 63.1875,67.0938 C60.5625,67.0938 58.5625,69.1719 58.5625,71.8906 L58.5625,73.0156 C58.5625,75.5938 60.6719,77.4844 63.5625,77.4844 C64.7813,77.4844 65.9375,77.1875 66.6875,76.6406 C67.2656,76.2344 67.5938,75.7813 67.5938,75.3906 C67.5938,74.9375 67.2031,74.5469 66.7344,74.5469 C66.5156,74.5469 66.3125,74.625 66.125,74.8125 C65.6719,75.2969 65.6719,75.2969 65.4844,75.3906 C65.0625,75.6563 64.375,75.7813 63.6094,75.7813 C61.5625,75.7813 60.2656,74.6875 60.2656,72.9844 L60.2656,71.8906 C60.2656,70.1094 61.5156,68.7969 63.25,68.7969 C63.8281,68.7969 64.4375,68.9531 64.9063,69.2031 C65.3906,69.4844 65.5625,69.7031 65.6563,70.1094 C65.7188,70.5156 65.75,70.6406 65.8906,70.7656 C66.0313,70.9063 66.2656,71.0156 66.4844,71.0156 C66.75,71.0156 67.0156,70.875 67.1875,70.6563 C67.2969,70.5 67.3281,70.3125 67.3281,69.8906 L67.3281,68.4688 C67.3281,68.0313 67.3125,67.9063 67.2188,67.75 C67.0625,67.4844 66.7813,67.3438 66.4844,67.3438 C66.1875,67.3438 65.9844,67.4375 65.7656,67.75 L65.5938,67.6719 Z " fill="#000000"/><text fill="#000000" font-family="sans-serif" font-size="14" lengthAdjust="spacing" textLength="52" x="83.75" y="76.8467">Answer</text><line style="stroke:#181818;stroke-width:0.5;" x1="12.5" x2="174.5" y1="88" y2="88"/><ellipse cx="22.5" cy="101.6484" fill="none" rx="3" ry="3" style="stroke:#038048;stroke-width:1.0;"/><text fill="#000000" font-family="sans-serif" font-size="14" lengthAdjust="spacing" textLength="85" x="31.5" y="104.9951">id?: number</text><ellipse cx="22.5" cy="117.9453" fill="none" rx="3" ry="3" style="stroke:#038048;stroke-width:1.0;"/><text fill="#000000" font-family="sans-serif" font-size="14" lengthAdjust="spacing" textLength="133" x="31.5" y="121.292">description: string</text><ellipse cx="22.5" cy="134.2422" fill="none" rx="3" ry="3" style="stroke:#038048;stroke-width:1.0;"/><text fill="#000000" font-family="sans-serif" font-size="14" lengthAdjust="spacing" textLength="138" x="31.5" y="137.5889">is_correct: boolean</text><line style="stroke:#181818;stroke-width:0.5;" x1="12.5" x2="174.5" y1="144.8906" y2="144.8906"/></g><!--class AnswerResult--><g id="elem_AnswerResult"><rect codeLine="6" fill="#F1F1F1" height="194.6719" id="AnswerResult" rx="2.5" ry="2.5" style="stroke:#181818;stroke-width:0.5;" width="199" x="211" y="7"/><ellipse cx="258.25" cy="23" fill="#B4A7E5" rx="11" ry="11" style="stroke:#181818;stroke-width:1.0;"/><path d="M259.2031,19.7813 L260.9219,19.7813 C261.3125,19.7813 261.5,19.75 261.625,19.6719 C261.8906,19.5156 262.0313,19.2344 262.0313,18.9375 C262.0313,18.6719 261.9219,18.4063 261.6875,18.2344 C261.5156,18.125 261.375,18.0938 260.9219,18.0938 L255.7813,18.0938 C255.3438,18.0938 255.2188,18.1094 255.0625,18.2031 C254.8125,18.3594 254.6563,18.6563 254.6563,18.9375 C254.6563,19.2188 254.7969,19.4688 255.0156,19.6406 C255.1719,19.75 255.3594,19.7813 255.7813,19.7813 L257.5,19.7813 L257.5,26.2969 L255.7813,26.2969 C255.3438,26.2969 255.2188,26.3125 255.0625,26.4219 C254.8125,26.5781 254.6563,26.8594 254.6563,27.1563 C254.6563,27.4063 254.7969,27.6719 255.0156,27.8281 C255.1719,27.9531 255.375,28 255.7813,28 L260.9219,28 C261.6719,28 262.0313,27.7188 262.0313,27.1563 C262.0313,26.875 261.9219,26.625 261.6875,26.4531 C261.5156,26.3281 261.375,26.2969 260.9219,26.2969 L259.2031,26.2969 L259.2031,19.7813 Z " fill="#000000"/><text fill="#000000" font-family="sans-serif" font-size="14" font-style="italic" lengthAdjust="spacing" textLength="96" x="278.75" y="27.8467">AnswerResult</text><line style="stroke:#181818;stroke-width:0.5;" x1="212" x2="409" y1="39" y2="39"/><ellipse cx="222" cy="52.6484" fill="none" rx="3" ry="3" style="stroke:#038048;stroke-width:1.0;"/><text fill="#000000" font-family="sans-serif" font-size="14" lengthAdjust="spacing" textLength="125" x="231" y="55.9951">game_id: number</text><ellipse cx="222" cy="68.9453" fill="none" rx="3" ry="3" style="stroke:#038048;stroke-width:1.0;"/><text fill="#000000" font-family="sans-serif" font-size="14" lengthAdjust="spacing" textLength="115" x="231" y="72.292">user_id: number</text><ellipse cx="222" cy="85.2422" fill="none" rx="3" ry="3" style="stroke:#038048;stroke-width:1.0;"/><text fill="#000000" font-family="sans-serif" font-size="14" lengthAdjust="spacing" textLength="147" x="231" y="88.5889">question_id: number</text><ellipse cx="222" cy="101.5391" fill="none" rx="3" ry="3" style="stroke:#038048;stroke-width:1.0;"/><text fill="#000000" font-family="sans-serif" font-size="14" lengthAdjust="spacing" textLength="142" x="231" y="104.8857">answer_id?: number</text><ellipse cx="222" cy="117.8359" fill="none" rx="3" ry="3" style="stroke:#038048;stroke-width:1.0;"/><text fill="#000000" font-family="sans-serif" font-size="14" lengthAdjust="spacing" textLength="118" x="231" y="121.1826">answer?: Answer</text><ellipse cx="222" cy="134.1328" fill="none" rx="3" ry="3" style="stroke:#038048;stroke-width:1.0;"/><text fill="#000000" font-family="sans-serif" font-size="14" lengthAdjust="spacing" textLength="153" x="231" y="137.4795">short_answer?: string</text><ellipse cx="222" cy="150.4297" fill="none" rx="3" ry="3" style="stroke:#038048;stroke-width:1.0;"/><text fill="#000000" font-family="sans-serif" font-size="14" lengthAdjust="spacing" textLength="173" x="231" y="153.7764">question_index: number</text><ellipse cx="222" cy="166.7266" fill="none" rx="3" ry="3" style="stroke:#038048;stroke-width:1.0;"/><text fill="#000000" font-family="sans-serif" font-size="14" lengthAdjust="spacing" textLength="135" x="231" y="170.0732">answered: boolean</text><ellipse cx="222" cy="183.0234" fill="none" rx="3" ry="3" style="stroke:#038048;stroke-width:1.0;"/><text fill="#000000" font-family="sans-serif" font-size="14" lengthAdjust="spacing" textLength="145" x="231" y="186.3701">is_correct?: boolean</text><line style="stroke:#181818;stroke-width:0.5;" x1="212" x2="409" y1="193.6719" y2="193.6719"/></g><!--class Survey--><g id="elem_Survey"><rect codeLine="17" fill="#F1F1F1" height="145.7813" id="Survey" rx="2.5" ry="2.5" style="stroke:#181818;stroke-width:0.5;" width="274" x="445.5" y="31.5"/><ellipse cx="554.25" cy="47.5" fill="#ADD1B2" rx="11" ry="11" style="stroke:#181818;stroke-width:1.0;"/><path d="M556.5938,43.1719 C555.6563,42.7344 555.0625,42.5938 554.1875,42.5938 C551.5625,42.5938 549.5625,44.6719 549.5625,47.3906 L549.5625,48.5156 C549.5625,51.0938 551.6719,52.9844 554.5625,52.9844 C555.7813,52.9844 556.9375,52.6875 557.6875,52.1406 C558.2656,51.7344 558.5938,51.2813 558.5938,50.8906 C558.5938,50.4375 558.2031,50.0469 557.7344,50.0469 C557.5156,50.0469 557.3125,50.125 557.125,50.3125 C556.6719,50.7969 556.6719,50.7969 556.4844,50.8906 C556.0625,51.1563 555.375,51.2813 554.6094,51.2813 C552.5625,51.2813 551.2656,50.1875 551.2656,48.4844 L551.2656,47.3906 C551.2656,45.6094 552.5156,44.2969 554.25,44.2969 C554.8281,44.2969 555.4375,44.4531 555.9063,44.7031 C556.3906,44.9844 556.5625,45.2031 556.6563,45.6094 C556.7188,46.0156 556.75,46.1406 556.8906,46.2656 C557.0313,46.4063 557.2656,46.5156 557.4844,46.5156 C557.75,46.5156 558.0156,46.375 558.1875,46.1563 C558.2969,46 558.3281,45.8125 558.3281,45.3906 L558.3281,43.9688 C558.3281,43.5313 558.3125,43.4063 558.2188,43.25 C558.0625,42.9844 557.7813,42.8438 557.4844,42.8438 C557.1875,42.8438 556.9844,42.9375 556.7656,43.25 L556.5938,43.1719 Z " fill="#000000"/><text fill="#000000" font-family="sans-serif" font-size="14" lengthAdjust="spacing" textLength="48" x="574.75" y="52.3467">Survey</text><line style="stroke:#181818;stroke-width:0.5;" x1="446.5" x2="718.5" y1="63.5" y2="63.5"/><ellipse cx="456.5" cy="77.1484" fill="none" rx="3" ry="3" style="stroke:#038048;stroke-width:1.0;"/><text fill="#000000" font-family="sans-serif" font-size="14" lengthAdjust="spacing" textLength="85" x="465.5" y="80.4951">id?: number</text><ellipse cx="456.5" cy="93.4453" fill="none" rx="3" ry="3" style="stroke:#038048;stroke-width:1.0;"/><text fill="#000000" font-family="sans-serif" font-size="14" lengthAdjust="spacing" textLength="82" x="465.5" y="96.792">title: string</text><ellipse cx="456.5" cy="109.7422" fill="none" rx="3" ry="3" style="stroke:#038048;stroke-width:1.0;"/><text fill="#000000" font-family="sans-serif" font-size="14" lengthAdjust="spacing" textLength="175" x="465.5" y="113.0889">user_creator_id: number</text><ellipse cx="456.5" cy="126.0391" fill="none" rx="3" ry="3" style="stroke:#038048;stroke-width:1.0;"/><text fill="#000000" font-family="sans-serif" font-size="14" lengthAdjust="spacing" textLength="152" x="465.5" y="129.3857">questions: Question[]</text><ellipse cx="456.5" cy="142.3359" fill="none" rx="3" ry="3" style="stroke:#038048;stroke-width:1.0;"/><text fill="#000000" font-family="sans-serif" font-size="14" lengthAdjust="spacing" textLength="248" x="465.5" y="145.6826">questionsSurvey: QuestionSurvey[]</text><ellipse cx="456.5" cy="158.6328" fill="none" rx="3" ry="3" style="stroke:#038048;stroke-width:1.0;"/><text fill="#000000" font-family="sans-serif" font-size="14" lengthAdjust="spacing" textLength="113" x="465.5" y="161.9795">resource: string</text><line style="stroke:#181818;stroke-width:0.5;" x1="446.5" x2="718.5" y1="169.2813" y2="169.2813"/></g><!--class Course--><g id="elem_Course"><rect codeLine="25" fill="#F1F1F1" height="96.8906" id="Course" rx="2.5" ry="2.5" style="stroke:#181818;stroke-width:0.5;" width="159" x="755" y="56"/><ellipse cx="805.75" cy="72" fill="#ADD1B2" rx="11" ry="11" style="stroke:#181818;stroke-width:1.0;"/><path d="M808.0938,67.6719 C807.1563,67.2344 806.5625,67.0938 805.6875,67.0938 C803.0625,67.0938 801.0625,69.1719 801.0625,71.8906 L801.0625,73.0156 C801.0625,75.5938 803.1719,77.4844 806.0625,77.4844 C807.2813,77.4844 808.4375,77.1875 809.1875,76.6406 C809.7656,76.2344 810.0938,75.7813 810.0938,75.3906 C810.0938,74.9375 809.7031,74.5469 809.2344,74.5469 C809.0156,74.5469 808.8125,74.625 808.625,74.8125 C808.1719,75.2969 808.1719,75.2969 807.9844,75.3906 C807.5625,75.6563 806.875,75.7813 806.1094,75.7813 C804.0625,75.7813 802.7656,74.6875 802.7656,72.9844 L802.7656,71.8906 C802.7656,70.1094 804.0156,68.7969 805.75,68.7969 C806.3281,68.7969 806.9375,68.9531 807.4063,69.2031 C807.8906,69.4844 808.0625,69.7031 808.1563,70.1094 C808.2188,70.5156 808.25,70.6406 808.3906,70.7656 C808.5313,70.9063 808.7656,71.0156 808.9844,71.0156 C809.25,71.0156 809.5156,70.875 809.6875,70.6563 C809.7969,70.5 809.8281,70.3125 809.8281,69.8906 L809.8281,68.4688 C809.8281,68.0313 809.8125,67.9063 809.7188,67.75 C809.5625,67.4844 809.2813,67.3438 808.9844,67.3438 C808.6875,67.3438 808.4844,67.4375 808.2656,67.75 L808.0938,67.6719 Z " fill="#000000"/><text fill="#000000" font-family="sans-serif" font-size="14" lengthAdjust="spacing" textLength="49" x="826.25" y="76.8467">Course</text><line style="stroke:#181818;stroke-width:0.5;" x1="756" x2="913" y1="88" y2="88"/><ellipse cx="766" cy="101.6484" fill="none" rx="3" ry="3" style="stroke:#038048;stroke-width:1.0;"/><text fill="#000000" font-family="sans-serif" font-size="14" lengthAdjust="spacing" textLength="78" x="775" y="104.9951">id: number</text><ellipse cx="766" cy="117.9453" fill="none" rx="3" ry="3" style="stroke:#038048;stroke-width:1.0;"/><text fill="#000000" font-family="sans-serif" font-size="14" lengthAdjust="spacing" textLength="91" x="775" y="121.292">name: string</text><ellipse cx="766" cy="134.2422" fill="none" rx="3" ry="3" style="stroke:#038048;stroke-width:1.0;"/><text fill="#000000" font-family="sans-serif" font-size="14" lengthAdjust="spacing" textLength="133" x="775" y="137.5889">description: string</text><line style="stroke:#181818;stroke-width:0.5;" x1="756" x2="913" y1="144.8906" y2="144.8906"/></g><!--class UserCourse--><g id="elem_UserCourse"><rect codeLine="30" fill="#F1F1F1" height="80.5938" id="UserCourse" rx="2.5" ry="2.5" style="stroke:#181818;stroke-width:0.5;" width="158" x="949.5" y="64"/><ellipse cx="984.3" cy="80" fill="#B4A7E5" rx="11" ry="11" style="stroke:#181818;stroke-width:1.0;"/><path d="M985.2531,76.7813 L986.9719,76.7813 C987.3625,76.7813 987.55,76.75 987.675,76.6719 C987.9406,76.5156 988.0813,76.2344 988.0813,75.9375 C988.0813,75.6719 987.9719,75.4063 987.7375,75.2344 C987.5656,75.125 987.425,75.0938 986.9719,75.0938 L981.8313,75.0938 C981.3938,75.0938 981.2688,75.1094 981.1125,75.2031 C980.8625,75.3594 980.7063,75.6563 980.7063,75.9375 C980.7063,76.2188 980.8469,76.4688 981.0656,76.6406 C981.2219,76.75 981.4094,76.7813 981.8313,76.7813 L983.55,76.7813 L983.55,83.2969 L981.8313,83.2969 C981.3938,83.2969 981.2688,83.3125 981.1125,83.4219 C980.8625,83.5781 980.7063,83.8594 980.7063,84.1563 C980.7063,84.4063 980.8469,84.6719 981.0656,84.8281 C981.2219,84.9531 981.425,85 981.8313,85 L986.9719,85 C987.7219,85 988.0813,84.7188 988.0813,84.1563 C988.0813,83.875 987.9719,83.625 987.7375,83.4531 C987.5656,83.3281 987.425,83.2969 986.9719,83.2969 L985.2531,83.2969 L985.2531,76.7813 Z " fill="#000000"/><text fill="#000000" font-family="sans-serif" font-size="14" font-style="italic" lengthAdjust="spacing" textLength="82" x="1002.7" y="84.8467">UserCourse</text><line style="stroke:#181818;stroke-width:0.5;" x1="950.5" x2="1106.5" y1="96" y2="96"/><ellipse cx="960.5" cy="109.6484" fill="none" rx="3" ry="3" style="stroke:#038048;stroke-width:1.0;"/><text fill="#000000" font-family="sans-serif" font-size="14" lengthAdjust="spacing" textLength="132" x="969.5" y="112.9951">course_id: number</text><ellipse cx="960.5" cy="125.9453" fill="none" rx="3" ry="3" style="stroke:#038048;stroke-width:1.0;"/><text fill="#000000" font-family="sans-serif" font-size="14" lengthAdjust="spacing" textLength="87" x="969.5" y="129.292">users: User[]</text><line style="stroke:#181818;stroke-width:0.5;" x1="950.5" x2="1106.5" y1="136.5938" y2="136.5938"/></g><!--class SurveyCourse--><g id="elem_SurveyCourse"><rect codeLine="34" fill="#F1F1F1" height="80.5938" id="SurveyCourse" rx="2.5" ry="2.5" style="stroke:#181818;stroke-width:0.5;" width="158" x="14.5" y="343.5"/><ellipse cx="41.65" cy="359.5" fill="#B4A7E5" rx="11" ry="11" style="stroke:#181818;stroke-width:1.0;"/><path d="M42.6031,356.2813 L44.3219,356.2813 C44.7125,356.2813 44.9,356.25 45.025,356.1719 C45.2906,356.0156 45.4313,355.7344 45.4313,355.4375 C45.4313,355.1719 45.3219,354.9063 45.0875,354.7344 C44.9156,354.625 44.775,354.5938 44.3219,354.5938 L39.1813,354.5938 C38.7438,354.5938 38.6188,354.6094 38.4625,354.7031 C38.2125,354.8594 38.0563,355.1563 38.0563,355.4375 C38.0563,355.7188 38.1969,355.9688 38.4156,356.1406 C38.5719,356.25 38.7594,356.2813 39.1813,356.2813 L40.9,356.2813 L40.9,362.7969 L39.1813,362.7969 C38.7438,362.7969 38.6188,362.8125 38.4625,362.9219 C38.2125,363.0781 38.0563,363.3594 38.0563,363.6563 C38.0563,363.9063 38.1969,364.1719 38.4156,364.3281 C38.5719,364.4531 38.775,364.5 39.1813,364.5 L44.3219,364.5 C45.0719,364.5 45.4313,364.2188 45.4313,363.6563 C45.4313,363.375 45.3219,363.125 45.0875,362.9531 C44.9156,362.8281 44.775,362.7969 44.3219,362.7969 L42.6031,362.7969 L42.6031,356.2813 Z " fill="#000000"/><text fill="#000000" font-family="sans-serif" font-size="14" font-style="italic" lengthAdjust="spacing" textLength="99" x="58.35" y="364.3467">SurveyCourse</text><line style="stroke:#181818;stroke-width:0.5;" x1="15.5" x2="171.5" y1="375.5" y2="375.5"/><ellipse cx="25.5" cy="389.1484" fill="none" rx="3" ry="3" style="stroke:#038048;stroke-width:1.0;"/><text fill="#000000" font-family="sans-serif" font-size="14" lengthAdjust="spacing" textLength="132" x="34.5" y="392.4951">course_id: number</text><ellipse cx="25.5" cy="405.4453" fill="none" rx="3" ry="3" style="stroke:#038048;stroke-width:1.0;"/><text fill="#000000" font-family="sans-serif" font-size="14" lengthAdjust="spacing" textLength="120" x="34.5" y="408.792">surveys: Survey[]</text><line style="stroke:#181818;stroke-width:0.5;" x1="15.5" x2="171.5" y1="416.0938" y2="416.0938"/></g><!--class QuestionCourse--><g id="elem_QuestionCourse"><rect codeLine="38" fill="#F1F1F1" height="80.5938" id="QuestionCourse" rx="2.5" ry="2.5" style="stroke:#181818;stroke-width:0.5;" width="178" x="207.5" y="343.5"/><ellipse cx="237.35" cy="359.5" fill="#B4A7E5" rx="11" ry="11" style="stroke:#181818;stroke-width:1.0;"/><path d="M238.3031,356.2813 L240.0219,356.2813 C240.4125,356.2813 240.6,356.25 240.725,356.1719 C240.9906,356.0156 241.1313,355.7344 241.1313,355.4375 C241.1313,355.1719 241.0219,354.9063 240.7875,354.7344 C240.6156,354.625 240.475,354.5938 240.0219,354.5938 L234.8813,354.5938 C234.4438,354.5938 234.3188,354.6094 234.1625,354.7031 C233.9125,354.8594 233.7563,355.1563 233.7563,355.4375 C233.7563,355.7188 233.8969,355.9688 234.1156,356.1406 C234.2719,356.25 234.4594,356.2813 234.8813,356.2813 L236.6,356.2813 L236.6,362.7969 L234.8813,362.7969 C234.4438,362.7969 234.3188,362.8125 234.1625,362.9219 C233.9125,363.0781 233.7563,363.3594 233.7563,363.6563 C233.7563,363.9063 233.8969,364.1719 234.1156,364.3281 C234.2719,364.4531 234.475,364.5 234.8813,364.5 L240.0219,364.5 C240.7719,364.5 241.1313,364.2188 241.1313,363.6563 C241.1313,363.375 241.0219,363.125 240.7875,362.9531 C240.6156,362.8281 240.475,362.7969 240.0219,362.7969 L238.3031,362.7969 L238.3031,356.2813 Z " fill="#000000"/><text fill="#000000" font-family="sans-serif" font-size="14" font-style="italic" lengthAdjust="spacing" textLength="113" x="254.65" y="364.3467">QuestionCourse</text><line style="stroke:#181818;stroke-width:0.5;" x1="208.5" x2="384.5" y1="375.5" y2="375.5"/><ellipse cx="218.5" cy="389.1484" fill="none" rx="3" ry="3" style="stroke:#038048;stroke-width:1.0;"/><text fill="#000000" font-family="sans-serif" font-size="14" lengthAdjust="spacing" textLength="132" x="227.5" y="392.4951">course_id: number</text><ellipse cx="218.5" cy="405.4453" fill="none" rx="3" ry="3" style="stroke:#038048;stroke-width:1.0;"/><text fill="#000000" font-family="sans-serif" font-size="14" lengthAdjust="spacing" textLength="152" x="227.5" y="408.792">questions: Question[]</text><line style="stroke:#181818;stroke-width:0.5;" x1="208.5" x2="384.5" y1="416.0938" y2="416.0938"/></g><!--class Game--><g id="elem_Game"><rect codeLine="42" fill="#F1F1F1" height="243.5625" id="Game" rx="2.5" ry="2.5" style="stroke:#181818;stroke-width:0.5;" width="245" x="421" y="262"/><ellipse cx="518.25" cy="278" fill="#ADD1B2" rx="11" ry="11" style="stroke:#181818;stroke-width:1.0;"/><path d="M520.5938,273.6719 C519.6563,273.2344 519.0625,273.0938 518.1875,273.0938 C515.5625,273.0938 513.5625,275.1719 513.5625,277.8906 L513.5625,279.0156 C513.5625,281.5938 515.6719,283.4844 518.5625,283.4844 C519.7813,283.4844 520.9375,283.1875 521.6875,282.6406 C522.2656,282.2344 522.5938,281.7813 522.5938,281.3906 C522.5938,280.9375 522.2031,280.5469 521.7344,280.5469 C521.5156,280.5469 521.3125,280.625 521.125,280.8125 C520.6719,281.2969 520.6719,281.2969 520.4844,281.3906 C520.0625,281.6563 519.375,281.7813 518.6094,281.7813 C516.5625,281.7813 515.2656,280.6875 515.2656,278.9844 L515.2656,277.8906 C515.2656,276.1094 516.5156,274.7969 518.25,274.7969 C518.8281,274.7969 519.4375,274.9531 519.9063,275.2031 C520.3906,275.4844 520.5625,275.7031 520.6563,276.1094 C520.7188,276.5156 520.75,276.6406 520.8906,276.7656 C521.0313,276.9063 521.2656,277.0156 521.4844,277.0156 C521.75,277.0156 522.0156,276.875 522.1875,276.6563 C522.2969,276.5 522.3281,276.3125 522.3281,275.8906 L522.3281,274.4688 C522.3281,274.0313 522.3125,273.9063 522.2188,273.75 C522.0625,273.4844 521.7813,273.3438 521.4844,273.3438 C521.1875,273.3438 520.9844,273.4375 520.7656,273.75 L520.5938,273.6719 Z " fill="#000000"/><text fill="#000000" font-family="sans-serif" font-size="14" lengthAdjust="spacing" textLength="42" x="538.75" y="282.8467">Game</text><line style="stroke:#181818;stroke-width:0.5;" x1="422" x2="665" y1="294" y2="294"/><ellipse cx="432" cy="307.6484" fill="none" rx="3" ry="3" style="stroke:#038048;stroke-width:1.0;"/><text fill="#000000" font-family="sans-serif" font-size="14" lengthAdjust="spacing" textLength="85" x="441" y="310.9951">id?: number</text><ellipse cx="432" cy="323.9453" fill="none" rx="3" ry="3" style="stroke:#038048;stroke-width:1.0;"/><text fill="#000000" font-family="sans-serif" font-size="14" lengthAdjust="spacing" textLength="117" x="441" y="327.292">host_id: number</text><ellipse cx="432" cy="340.2422" fill="none" rx="3" ry="3" style="stroke:#038048;stroke-width:1.0;"/><text fill="#000000" font-family="sans-serif" font-size="14" lengthAdjust="spacing" textLength="131" x="441" y="343.5889">survey_id: number</text><ellipse cx="432" cy="356.5391" fill="none" rx="3" ry="3" style="stroke:#038048;stroke-width:1.0;"/><text fill="#000000" font-family="sans-serif" font-size="14" lengthAdjust="spacing" textLength="121" x="441" y="359.8857">type: GameType</text><ellipse cx="432" cy="372.8359" fill="none" rx="3" ry="3" style="stroke:#038048;stroke-width:1.0;"/><text fill="#000000" font-family="sans-serif" font-size="14" lengthAdjust="spacing" textLength="129" x="441" y="376.1826">state: GameState</text><ellipse cx="432" cy="389.1328" fill="none" rx="3" ry="3" style="stroke:#038048;stroke-width:1.0;"/><text fill="#000000" font-family="sans-serif" font-size="14" lengthAdjust="spacing" textLength="219" x="441" y="392.4795">are_questions_visible: boolean</text><ellipse cx="432" cy="405.4297" fill="none" rx="3" ry="3" style="stroke:#038048;stroke-width:1.0;"/><text fill="#000000" font-family="sans-serif" font-size="14" lengthAdjust="spacing" textLength="170" x="441" y="408.7764">point_type: PointsType</text><ellipse cx="432" cy="421.7266" fill="none" rx="3" ry="3" style="stroke:#038048;stroke-width:1.0;"/><text fill="#000000" font-family="sans-serif" font-size="14" lengthAdjust="spacing" textLength="132" x="441" y="425.0732">course_id: number</text><ellipse cx="432" cy="438.0234" fill="none" rx="3" ry="3" style="stroke:#038048;stroke-width:1.0;"/><text fill="#000000" font-family="sans-serif" font-size="14" lengthAdjust="spacing" textLength="112" x="441" y="441.3701">course?: Course</text><ellipse cx="432" cy="454.3203" fill="none" rx="3" ry="3" style="stroke:#038048;stroke-width:1.0;"/><text fill="#000000" font-family="sans-serif" font-size="14" lengthAdjust="spacing" textLength="77" x="441" y="457.667">user?: User</text><ellipse cx="432" cy="470.6172" fill="none" rx="3" ry="3" style="stroke:#038048;stroke-width:1.0;"/><text fill="#000000" font-family="sans-serif" font-size="14" lengthAdjust="spacing" textLength="110" x="441" y="473.9639">survey?: Survey</text><ellipse cx="432" cy="486.9141" fill="none" rx="3" ry="3" style="stroke:#038048;stroke-width:1.0;"/><text fill="#000000" font-family="sans-serif" font-size="14" lengthAdjust="spacing" textLength="136" x="441" y="490.2607">created_at?: string</text><line style="stroke:#181818;stroke-width:0.5;" x1="422" x2="665" y1="497.5625" y2="497.5625"/></g><!--class GameType--><g id="elem_GameType"><rect codeLine="56" fill="#F1F1F1" height="80.5938" id="GameType" rx="2.5" ry="2.5" style="stroke:#181818;stroke-width:0.5;" width="110" x="701.5" y="343.5"/><ellipse cx="716.5" cy="359.5" fill="#EB937F" rx="11" ry="11" style="stroke:#181818;stroke-width:1.0;"/><path d="M715.2969,360.375 L716.75,360.375 L716.75,360.4844 C716.75,360.8906 716.7813,361.0469 716.8594,361.2031 C717.0156,361.4531 717.2969,361.6094 717.5938,361.6094 C717.8438,361.6094 718.1094,361.4688 718.2656,361.25 C718.3906,361.0938 718.4219,360.9375 718.4219,360.4844 L718.4219,358.5625 C718.4219,358.4063 718.4219,358.3594 718.4063,358.2031 C718.3438,357.7344 718.0313,357.4219 717.5781,357.4219 C717.3281,357.4219 717.0625,357.5625 716.8906,357.7813 C716.7813,357.9531 716.75,358.1094 716.75,358.5625 L716.75,358.6875 L715.2969,358.6875 L715.2969,356.2813 L719.2813,356.2813 L719.2813,357.1406 C719.2813,357.5469 719.3125,357.7188 719.3906,357.875 C719.5625,358.125 719.8438,358.2813 720.125,358.2813 C720.3906,358.2813 720.6563,358.1406 720.8281,357.9219 C720.9375,357.75 720.9688,357.6094 720.9688,357.1406 L720.9688,354.5938 L713.3438,354.5938 C712.9063,354.5938 712.7813,354.6094 712.625,354.7031 C712.375,354.8594 712.2188,355.1563 712.2188,355.4375 C712.2188,355.7188 712.3594,355.9688 712.5781,356.1406 C712.7344,356.25 712.9219,356.2813 713.3438,356.2813 L713.5938,356.2813 L713.5938,362.7969 L713.3438,362.7969 C712.9375,362.7969 712.7813,362.8125 712.625,362.9219 C712.375,363.0938 712.2188,363.3594 712.2188,363.6563 C712.2188,363.9219 712.3594,364.1719 712.5781,364.3281 C712.7188,364.4531 712.9531,364.5 713.3438,364.5 L721.3438,364.5 L721.3438,361.9219 C721.3438,361.4844 721.3125,361.3438 721.2344,361.1875 C721.0625,360.9375 720.7813,360.7813 720.5,360.7813 C720.2344,360.7813 719.9688,360.8906 719.7969,361.1406 C719.6875,361.2969 719.6563,361.4375 719.6563,361.9219 L719.6563,362.7969 L715.2969,362.7969 L715.2969,360.375 Z " fill="#000000"/><text fill="#000000" font-family="sans-serif" font-size="14" lengthAdjust="spacing" textLength="78" x="730.5" y="364.3467">GameType</text><line style="stroke:#181818;stroke-width:0.5;" x1="702.5" x2="810.5" y1="375.5" y2="375.5"/><text fill="#000000" font-family="sans-serif" font-size="14" lengthAdjust="spacing" textLength="47" x="707.5" y="392.4951">offline</text><text fill="#000000" font-family="sans-serif" font-size="14" lengthAdjust="spacing" textLength="44" x="707.5" y="408.792">online</text><line style="stroke:#181818;stroke-width:0.5;" x1="702.5" x2="810.5" y1="416.0938" y2="416.0938"/></g><!--class GameState--><g id="elem_GameState"><rect codeLine="60" fill="#F1F1F1" height="96.8906" id="GameState" rx="2.5" ry="2.5" style="stroke:#181818;stroke-width:0.5;" width="114" x="846.5" y="335.5"/><ellipse cx="861.5" cy="351.5" fill="#EB937F" rx="11" ry="11" style="stroke:#181818;stroke-width:1.0;"/><path d="M860.2969,352.375 L861.75,352.375 L861.75,352.4844 C861.75,352.8906 861.7813,353.0469 861.8594,353.2031 C862.0156,353.4531 862.2969,353.6094 862.5938,353.6094 C862.8438,353.6094 863.1094,353.4688 863.2656,353.25 C863.3906,353.0938 863.4219,352.9375 863.4219,352.4844 L863.4219,350.5625 C863.4219,350.4063 863.4219,350.3594 863.4063,350.2031 C863.3438,349.7344 863.0313,349.4219 862.5781,349.4219 C862.3281,349.4219 862.0625,349.5625 861.8906,349.7813 C861.7813,349.9531 861.75,350.1094 861.75,350.5625 L861.75,350.6875 L860.2969,350.6875 L860.2969,348.2813 L864.2813,348.2813 L864.2813,349.1406 C864.2813,349.5469 864.3125,349.7188 864.3906,349.875 C864.5625,350.125 864.8438,350.2813 865.125,350.2813 C865.3906,350.2813 865.6563,350.1406 865.8281,349.9219 C865.9375,349.75 865.9688,349.6094 865.9688,349.1406 L865.9688,346.5938 L858.3438,346.5938 C857.9063,346.5938 857.7813,346.6094 857.625,346.7031 C857.375,346.8594 857.2188,347.1563 857.2188,347.4375 C857.2188,347.7188 857.3594,347.9688 857.5781,348.1406 C857.7344,348.25 857.9219,348.2813 858.3438,348.2813 L858.5938,348.2813 L858.5938,354.7969 L858.3438,354.7969 C857.9375,354.7969 857.7813,354.8125 857.625,354.9219 C857.375,355.0938 857.2188,355.3594 857.2188,355.6563 C857.2188,355.9219 857.3594,356.1719 857.5781,356.3281 C857.7188,356.4531 857.9531,356.5 858.3438,356.5 L866.3438,356.5 L866.3438,353.9219 C866.3438,353.4844 866.3125,353.3438 866.2344,353.1875 C866.0625,352.9375 865.7813,352.7813 865.5,352.7813 C865.2344,352.7813 864.9688,352.8906 864.7969,353.1406 C864.6875,353.2969 864.6563,353.4375 864.6563,353.9219 L864.6563,354.7969 L860.2969,354.7969 L860.2969,352.375 Z " fill="#000000"/><text fill="#000000" font-family="sans-serif" font-size="14" lengthAdjust="spacing" textLength="82" x="875.5" y="356.3467">GameState</text><line style="stroke:#181818;stroke-width:0.5;" x1="847.5" x2="959.5" y1="367.5" y2="367.5"/><text fill="#000000" font-family="sans-serif" font-size="14" lengthAdjust="spacing" textLength="56" x="852.5" y="384.4951">created</text><text fill="#000000" font-family="sans-serif" font-size="14" lengthAdjust="spacing" textLength="53" x="852.5" y="400.792">started</text><text fill="#000000" font-family="sans-serif" font-size="14" lengthAdjust="spacing" textLength="46" x="852.5" y="417.0889">closed</text><line style="stroke:#181818;stroke-width:0.5;" x1="847.5" x2="959.5" y1="424.3906" y2="424.3906"/></g><!--class PointsType--><g id="elem_PointsType"><rect codeLine="65" fill="#F1F1F1" height="96.8906" id="PointsType" rx="2.5" ry="2.5" style="stroke:#181818;stroke-width:0.5;" width="113" x="37" y="590.5"/><ellipse cx="52" cy="606.5" fill="#EB937F" rx="11" ry="11" style="stroke:#181818;stroke-width:1.0;"/><path d="M50.7969,607.375 L52.25,607.375 L52.25,607.4844 C52.25,607.8906 52.2813,608.0469 52.3594,608.2031 C52.5156,608.4531 52.7969,608.6094 53.0938,608.6094 C53.3438,608.6094 53.6094,608.4688 53.7656,608.25 C53.8906,608.0938 53.9219,607.9375 53.9219,607.4844 L53.9219,605.5625 C53.9219,605.4063 53.9219,605.3594 53.9063,605.2031 C53.8438,604.7344 53.5313,604.4219 53.0781,604.4219 C52.8281,604.4219 52.5625,604.5625 52.3906,604.7813 C52.2813,604.9531 52.25,605.1094 52.25,605.5625 L52.25,605.6875 L50.7969,605.6875 L50.7969,603.2813 L54.7813,603.2813 L54.7813,604.1406 C54.7813,604.5469 54.8125,604.7188 54.8906,604.875 C55.0625,605.125 55.3438,605.2813 55.625,605.2813 C55.8906,605.2813 56.1563,605.1406 56.3281,604.9219 C56.4375,604.75 56.4688,604.6094 56.4688,604.1406 L56.4688,601.5938 L48.8438,601.5938 C48.4063,601.5938 48.2813,601.6094 48.125,601.7031 C47.875,601.8594 47.7188,602.1563 47.7188,602.4375 C47.7188,602.7188 47.8594,602.9688 48.0781,603.1406 C48.2344,603.25 48.4219,603.2813 48.8438,603.2813 L49.0938,603.2813 L49.0938,609.7969 L48.8438,609.7969 C48.4375,609.7969 48.2813,609.8125 48.125,609.9219 C47.875,610.0938 47.7188,610.3594 47.7188,610.6563 C47.7188,610.9219 47.8594,611.1719 48.0781,611.3281 C48.2188,611.4531 48.4531,611.5 48.8438,611.5 L56.8438,611.5 L56.8438,608.9219 C56.8438,608.4844 56.8125,608.3438 56.7344,608.1875 C56.5625,607.9375 56.2813,607.7813 56,607.7813 C55.7344,607.7813 55.4688,607.8906 55.2969,608.1406 C55.1875,608.2969 55.1563,608.4375 55.1563,608.9219 L55.1563,609.7969 L50.7969,609.7969 L50.7969,607.375 Z " fill="#000000"/><text fill="#000000" font-family="sans-serif" font-size="14" lengthAdjust="spacing" textLength="81" x="66" y="611.3467">PointsType</text><line style="stroke:#181818;stroke-width:0.5;" x1="38" x2="149" y1="622.5" y2="622.5"/><text fill="#000000" font-family="sans-serif" font-size="14" lengthAdjust="spacing" textLength="63" x="43" y="639.4951">standard</text><text fill="#000000" font-family="sans-serif" font-size="14" lengthAdjust="spacing" textLength="49" x="43" y="655.792">double</text><text fill="#000000" font-family="sans-serif" font-size="14" lengthAdjust="spacing" textLength="71" x="43" y="672.0889">no_points</text><line style="stroke:#181818;stroke-width:0.5;" x1="38" x2="149" y1="679.3906" y2="679.3906"/></g><!--class GameSession--><g id="elem_GameSession"><rect codeLine="70" fill="#F1F1F1" height="145.7813" id="GameSession" rx="2.5" ry="2.5" style="stroke:#181818;stroke-width:0.5;" width="209" x="185" y="566"/><ellipse cx="236.75" cy="582" fill="#B4A7E5" rx="11" ry="11" style="stroke:#181818;stroke-width:1.0;"/><path d="M237.7031,578.7813 L239.4219,578.7813 C239.8125,578.7813 240,578.75 240.125,578.6719 C240.3906,578.5156 240.5313,578.2344 240.5313,577.9375 C240.5313,577.6719 240.4219,577.4063 240.1875,577.2344 C240.0156,577.125 239.875,577.0938 239.4219,577.0938 L234.2813,577.0938 C233.8438,577.0938 233.7188,577.1094 233.5625,577.2031 C233.3125,577.3594 233.1563,577.6563 233.1563,577.9375 C233.1563,578.2188 233.2969,578.4688 233.5156,578.6406 C233.6719,578.75 233.8594,578.7813 234.2813,578.7813 L236,578.7813 L236,585.2969 L234.2813,585.2969 C233.8438,585.2969 233.7188,585.3125 233.5625,585.4219 C233.3125,585.5781 233.1563,585.8594 233.1563,586.1563 C233.1563,586.4063 233.2969,586.6719 233.5156,586.8281 C233.6719,586.9531 233.875,587 234.2813,587 L239.4219,587 C240.1719,587 240.5313,586.7188 240.5313,586.1563 C240.5313,585.875 240.4219,585.625 240.1875,585.4531 C240.0156,585.3281 239.875,585.2969 239.4219,585.2969 L237.7031,585.2969 L237.7031,578.7813 Z " fill="#000000"/><text fill="#000000" font-family="sans-serif" font-size="14" font-style="italic" lengthAdjust="spacing" textLength="97" x="257.25" y="586.8467">GameSession</text><line style="stroke:#181818;stroke-width:0.5;" x1="186" x2="393" y1="598" y2="598"/><ellipse cx="196" cy="611.6484" fill="none" rx="3" ry="3" style="stroke:#038048;stroke-width:1.0;"/><text fill="#000000" font-family="sans-serif" font-size="14" lengthAdjust="spacing" textLength="91" x="205" y="614.9951">game: Game</text><ellipse cx="196" cy="627.9453" fill="none" rx="3" ry="3" style="stroke:#038048;stroke-width:1.0;"/><text fill="#000000" font-family="sans-serif" font-size="14" lengthAdjust="spacing" textLength="87" x="205" y="631.292">users: User[]</text><ellipse cx="196" cy="644.2422" fill="none" rx="3" ry="3" style="stroke:#038048;stroke-width:1.0;"/><text fill="#000000" font-family="sans-serif" font-size="14" lengthAdjust="spacing" textLength="183" x="205" y="647.5889">state: GameSessionState</text><ellipse cx="196" cy="660.5391" fill="none" rx="3" ry="3" style="stroke:#038048;stroke-width:1.0;"/><text fill="#000000" font-family="sans-serif" font-size="14" lengthAdjust="spacing" textLength="174" x="205" y="663.8857">question_list: Question[]</text><ellipse cx="196" cy="676.8359" fill="none" rx="3" ry="3" style="stroke:#038048;stroke-width:1.0;"/><text fill="#000000" font-family="sans-serif" font-size="14" lengthAdjust="spacing" textLength="173" x="205" y="680.1826">question_index: number</text><ellipse cx="196" cy="693.1328" fill="none" rx="3" ry="3" style="stroke:#038048;stroke-width:1.0;"/><text fill="#000000" font-family="sans-serif" font-size="14" lengthAdjust="spacing" textLength="180" x="205" y="696.4795">user_results: UserResult[]</text><line style="stroke:#181818;stroke-width:0.5;" x1="186" x2="393" y1="703.7813" y2="703.7813"/></g><!--class GameSessionState--><g id="elem_GameSessionState"><rect codeLine="78" fill="#F1F1F1" height="145.7813" id="GameSessionState" rx="2.5" ry="2.5" style="stroke:#181818;stroke-width:0.5;" width="172" x="429.5" y="566"/><ellipse cx="446.3" cy="582" fill="#EB937F" rx="11" ry="11" style="stroke:#181818;stroke-width:1.0;"/><path d="M445.0969,582.875 L446.55,582.875 L446.55,582.9844 C446.55,583.3906 446.5813,583.5469 446.6594,583.7031 C446.8156,583.9531 447.0969,584.1094 447.3938,584.1094 C447.6438,584.1094 447.9094,583.9688 448.0656,583.75 C448.1906,583.5938 448.2219,583.4375 448.2219,582.9844 L448.2219,581.0625 C448.2219,580.9063 448.2219,580.8594 448.2063,580.7031 C448.1438,580.2344 447.8313,579.9219 447.3781,579.9219 C447.1281,579.9219 446.8625,580.0625 446.6906,580.2813 C446.5813,580.4531 446.55,580.6094 446.55,581.0625 L446.55,581.1875 L445.0969,581.1875 L445.0969,578.7813 L449.0813,578.7813 L449.0813,579.6406 C449.0813,580.0469 449.1125,580.2188 449.1906,580.375 C449.3625,580.625 449.6438,580.7813 449.925,580.7813 C450.1906,580.7813 450.4563,580.6406 450.6281,580.4219 C450.7375,580.25 450.7688,580.1094 450.7688,579.6406 L450.7688,577.0938 L443.1438,577.0938 C442.7063,577.0938 442.5813,577.1094 442.425,577.2031 C442.175,577.3594 442.0188,577.6563 442.0188,577.9375 C442.0188,578.2188 442.1594,578.4688 442.3781,578.6406 C442.5344,578.75 442.7219,578.7813 443.1438,578.7813 L443.3938,578.7813 L443.3938,585.2969 L443.1438,585.2969 C442.7375,585.2969 442.5813,585.3125 442.425,585.4219 C442.175,585.5938 442.0188,585.8594 442.0188,586.1563 C442.0188,586.4219 442.1594,586.6719 442.3781,586.8281 C442.5188,586.9531 442.7531,587 443.1438,587 L451.1438,587 L451.1438,584.4219 C451.1438,583.9844 451.1125,583.8438 451.0344,583.6875 C450.8625,583.4375 450.5813,583.2813 450.3,583.2813 C450.0344,583.2813 449.7688,583.3906 449.5969,583.6406 C449.4875,583.7969 449.4563,583.9375 449.4563,584.4219 L449.4563,585.2969 L445.0969,585.2969 L445.0969,582.875 Z " fill="#000000"/><text fill="#000000" font-family="sans-serif" font-size="14" lengthAdjust="spacing" textLength="136" x="460.7" y="586.8467">GameSessionState</text><line style="stroke:#181818;stroke-width:0.5;" x1="430.5" x2="600.5" y1="598" y2="598"/><text fill="#000000" font-family="sans-serif" font-size="14" lengthAdjust="spacing" textLength="85" x="435.5" y="614.9951">not_started</text><text fill="#000000" font-family="sans-serif" font-size="14" lengthAdjust="spacing" textLength="160" x="435.5" y="631.292">is_leaderboard_screen</text><text fill="#000000" font-family="sans-serif" font-size="14" lengthAdjust="spacing" textLength="130" x="435.5" y="647.5889">is_preview_screen</text><text fill="#000000" font-family="sans-serif" font-size="14" lengthAdjust="spacing" textLength="135" x="435.5" y="663.8857">is_question_screen</text><text fill="#000000" font-family="sans-serif" font-size="14" lengthAdjust="spacing" textLength="128" x="435.5" y="680.1826">is_question_result</text><text fill="#000000" font-family="sans-serif" font-size="14" lengthAdjust="spacing" textLength="75" x="435.5" y="696.4795">is_finished</text><line style="stroke:#181818;stroke-width:0.5;" x1="430.5" x2="600.5" y1="703.7813" y2="703.7813"/></g><!--class User--><g id="elem_User"><rect codeLine="86" fill="#F1F1F1" height="145.7813" id="User" rx="2.5" ry="2.5" style="stroke:#181818;stroke-width:0.5;" width="151" x="637" y="566"/><ellipse cx="692.75" cy="582" fill="#ADD1B2" rx="11" ry="11" style="stroke:#181818;stroke-width:1.0;"/><path d="M695.0938,577.6719 C694.1563,577.2344 693.5625,577.0938 692.6875,577.0938 C690.0625,577.0938 688.0625,579.1719 688.0625,581.8906 L688.0625,583.0156 C688.0625,585.5938 690.1719,587.4844 693.0625,587.4844 C694.2813,587.4844 695.4375,587.1875 696.1875,586.6406 C696.7656,586.2344 697.0938,585.7813 697.0938,585.3906 C697.0938,584.9375 696.7031,584.5469 696.2344,584.5469 C696.0156,584.5469 695.8125,584.625 695.625,584.8125 C695.1719,585.2969 695.1719,585.2969 694.9844,585.3906 C694.5625,585.6563 693.875,585.7813 693.1094,585.7813 C691.0625,585.7813 689.7656,584.6875 689.7656,582.9844 L689.7656,581.8906 C689.7656,580.1094 691.0156,578.7969 692.75,578.7969 C693.3281,578.7969 693.9375,578.9531 694.4063,579.2031 C694.8906,579.4844 695.0625,579.7031 695.1563,580.1094 C695.2188,580.5156 695.25,580.6406 695.3906,580.7656 C695.5313,580.9063 695.7656,581.0156 695.9844,581.0156 C696.25,581.0156 696.5156,580.875 696.6875,580.6563 C696.7969,580.5 696.8281,580.3125 696.8281,579.8906 L696.8281,578.4688 C696.8281,578.0313 696.8125,577.9063 696.7188,577.75 C696.5625,577.4844 696.2813,577.3438 695.9844,577.3438 C695.6875,577.3438 695.4844,577.4375 695.2656,577.75 L695.0938,577.6719 Z " fill="#000000"/><text fill="#000000" font-family="sans-serif" font-size="14" lengthAdjust="spacing" textLength="31" x="713.25" y="586.8467">User</text><line style="stroke:#181818;stroke-width:0.5;" x1="638" x2="787" y1="598" y2="598"/><ellipse cx="648" cy="611.6484" fill="none" rx="3" ry="3" style="stroke:#038048;stroke-width:1.0;"/><text fill="#000000" font-family="sans-serif" font-size="14" lengthAdjust="spacing" textLength="78" x="657" y="614.9951">id: number</text><ellipse cx="648" cy="627.9453" fill="none" rx="3" ry="3" style="stroke:#038048;stroke-width:1.0;"/><text fill="#000000" font-family="sans-serif" font-size="14" lengthAdjust="spacing" textLength="121" x="657" y="631.292">username: string</text><ellipse cx="648" cy="644.2422" fill="none" rx="3" ry="3" style="stroke:#038048;stroke-width:1.0;"/><text fill="#000000" font-family="sans-serif" font-size="14" lengthAdjust="spacing" textLength="125" x="657" y="647.5889">password?: string</text><ellipse cx="648" cy="660.5391" fill="none" rx="3" ry="3" style="stroke:#038048;stroke-width:1.0;"/><text fill="#000000" font-family="sans-serif" font-size="14" lengthAdjust="spacing" textLength="79" x="657" y="663.8857">role: string</text><ellipse cx="648" cy="676.8359" fill="none" rx="3" ry="3" style="stroke:#038048;stroke-width:1.0;"/><text fill="#000000" font-family="sans-serif" font-size="14" lengthAdjust="spacing" textLength="112" x="657" y="680.1826">roleType?: Role</text><ellipse cx="648" cy="693.1328" fill="none" rx="3" ry="3" style="stroke:#038048;stroke-width:1.0;"/><text fill="#000000" font-family="sans-serif" font-size="14" lengthAdjust="spacing" textLength="101" x="657" y="696.4795">token?: string</text><line style="stroke:#181818;stroke-width:0.5;" x1="638" x2="787" y1="703.7813" y2="703.7813"/></g><!--class Token--><g id="elem_Token"><rect codeLine="94" fill="#F1F1F1" height="64.2969" id="Token" rx="2.5" ry="2.5" style="stroke:#181818;stroke-width:0.5;" width="120" x="823.5" y="607"/><ellipse cx="858.3" cy="623" fill="#B4A7E5" rx="11" ry="11" style="stroke:#181818;stroke-width:1.0;"/><path d="M859.2531,619.7813 L860.9719,619.7813 C861.3625,619.7813 861.55,619.75 861.675,619.6719 C861.9406,619.5156 862.0813,619.2344 862.0813,618.9375 C862.0813,618.6719 861.9719,618.4063 861.7375,618.2344 C861.5656,618.125 861.425,618.0938 860.9719,618.0938 L855.8313,618.0938 C855.3938,618.0938 855.2688,618.1094 855.1125,618.2031 C854.8625,618.3594 854.7063,618.6563 854.7063,618.9375 C854.7063,619.2188 854.8469,619.4688 855.0656,619.6406 C855.2219,619.75 855.4094,619.7813 855.8313,619.7813 L857.55,619.7813 L857.55,626.2969 L855.8313,626.2969 C855.3938,626.2969 855.2688,626.3125 855.1125,626.4219 C854.8625,626.5781 854.7063,626.8594 854.7063,627.1563 C854.7063,627.4063 854.8469,627.6719 855.0656,627.8281 C855.2219,627.9531 855.425,628 855.8313,628 L860.9719,628 C861.7219,628 862.0813,627.7188 862.0813,627.1563 C862.0813,626.875 861.9719,626.625 861.7375,626.4531 C861.5656,626.3281 861.425,626.2969 860.9719,626.2969 L859.2531,626.2969 L859.2531,619.7813 Z " fill="#000000"/><text fill="#000000" font-family="sans-serif" font-size="14" font-style="italic" lengthAdjust="spacing" textLength="44" x="876.7" y="627.8467">Token</text><line style="stroke:#181818;stroke-width:0.5;" x1="824.5" x2="942.5" y1="639" y2="639"/><ellipse cx="834.5" cy="652.6484" fill="none" rx="3" ry="3" style="stroke:#038048;stroke-width:1.0;"/><text fill="#000000" font-family="sans-serif" font-size="14" lengthAdjust="spacing" textLength="94" x="843.5" y="655.9951">token: string</text><line style="stroke:#181818;stroke-width:0.5;" x1="824.5" x2="942.5" y1="663.2969" y2="663.2969"/></g><!--class UserToken--><g id="elem_UserToken"><rect codeLine="97" fill="#F1F1F1" height="80.5938" id="UserToken" rx="2.5" ry="2.5" style="stroke:#181818;stroke-width:0.5;" width="110" x="38.5" y="829"/><ellipse cx="54.4" cy="845" fill="#B4A7E5" rx="11" ry="11" style="stroke:#181818;stroke-width:1.0;"/><path d="M55.3531,841.7813 L57.0719,841.7813 C57.4625,841.7813 57.65,841.75 57.775,841.6719 C58.0406,841.5156 58.1813,841.2344 58.1813,840.9375 C58.1813,840.6719 58.0719,840.4063 57.8375,840.2344 C57.6656,840.125 57.525,840.0938 57.0719,840.0938 L51.9313,840.0938 C51.4938,840.0938 51.3688,840.1094 51.2125,840.2031 C50.9625,840.3594 50.8063,840.6563 50.8063,840.9375 C50.8063,841.2188 50.9469,841.4688 51.1656,841.6406 C51.3219,841.75 51.5094,841.7813 51.9313,841.7813 L53.65,841.7813 L53.65,848.2969 L51.9313,848.2969 C51.4938,848.2969 51.3688,848.3125 51.2125,848.4219 C50.9625,848.5781 50.8063,848.8594 50.8063,849.1563 C50.8063,849.4063 50.9469,849.6719 51.1656,849.8281 C51.3219,849.9531 51.525,850 51.9313,850 L57.0719,850 C57.8219,850 58.1813,849.7188 58.1813,849.1563 C58.1813,848.875 58.0719,848.625 57.8375,848.4531 C57.6656,848.3281 57.525,848.2969 57.0719,848.2969 L55.3531,848.2969 L55.3531,841.7813 Z " fill="#000000"/><text fill="#000000" font-family="sans-serif" font-size="14" font-style="italic" lengthAdjust="spacing" textLength="76" x="68.6" y="849.8467">UserToken</text><line style="stroke:#181818;stroke-width:0.5;" x1="39.5" x2="147.5" y1="861" y2="861"/><ellipse cx="49.5" cy="874.6484" fill="none" rx="3" ry="3" style="stroke:#038048;stroke-width:1.0;"/><text fill="#000000" font-family="sans-serif" font-size="14" lengthAdjust="spacing" textLength="84" x="58.5" y="877.9951">iat: number</text><ellipse cx="49.5" cy="890.9453" fill="none" rx="3" ry="3" style="stroke:#038048;stroke-width:1.0;"/><text fill="#000000" font-family="sans-serif" font-size="14" lengthAdjust="spacing" textLength="70" x="58.5" y="894.292">user: User</text><line style="stroke:#181818;stroke-width:0.5;" x1="39.5" x2="147.5" y1="901.5938" y2="901.5938"/></g><!--class Role--><g id="elem_Role"><rect codeLine="101" fill="#F1F1F1" height="96.8906" id="Role" rx="2.5" ry="2.5" style="stroke:#181818;stroke-width:0.5;" width="80" x="183.5" y="821"/><ellipse cx="205.7" cy="837" fill="#EB937F" rx="11" ry="11" style="stroke:#181818;stroke-width:1.0;"/><path d="M204.4969,837.875 L205.95,837.875 L205.95,837.9844 C205.95,838.3906 205.9813,838.5469 206.0594,838.7031 C206.2156,838.9531 206.4969,839.1094 206.7938,839.1094 C207.0438,839.1094 207.3094,838.9688 207.4656,838.75 C207.5906,838.5938 207.6219,838.4375 207.6219,837.9844 L207.6219,836.0625 C207.6219,835.9063 207.6219,835.8594 207.6063,835.7031 C207.5438,835.2344 207.2313,834.9219 206.7781,834.9219 C206.5281,834.9219 206.2625,835.0625 206.0906,835.2813 C205.9813,835.4531 205.95,835.6094 205.95,836.0625 L205.95,836.1875 L204.4969,836.1875 L204.4969,833.7813 L208.4813,833.7813 L208.4813,834.6406 C208.4813,835.0469 208.5125,835.2188 208.5906,835.375 C208.7625,835.625 209.0438,835.7813 209.325,835.7813 C209.5906,835.7813 209.8563,835.6406 210.0281,835.4219 C210.1375,835.25 210.1688,835.1094 210.1688,834.6406 L210.1688,832.0938 L202.5438,832.0938 C202.1063,832.0938 201.9813,832.1094 201.825,832.2031 C201.575,832.3594 201.4188,832.6563 201.4188,832.9375 C201.4188,833.2188 201.5594,833.4688 201.7781,833.6406 C201.9344,833.75 202.1219,833.7813 202.5438,833.7813 L202.7938,833.7813 L202.7938,840.2969 L202.5438,840.2969 C202.1375,840.2969 201.9813,840.3125 201.825,840.4219 C201.575,840.5938 201.4188,840.8594 201.4188,841.1563 C201.4188,841.4219 201.5594,841.6719 201.7781,841.8281 C201.9188,841.9531 202.1531,842 202.5438,842 L210.5438,842 L210.5438,839.4219 C210.5438,838.9844 210.5125,838.8438 210.4344,838.6875 C210.2625,838.4375 209.9813,838.2813 209.7,838.2813 C209.4344,838.2813 209.1688,838.3906 208.9969,838.6406 C208.8875,838.7969 208.8563,838.9375 208.8563,839.4219 L208.8563,840.2969 L204.4969,840.2969 L204.4969,837.875 Z " fill="#000000"/><text fill="#000000" font-family="sans-serif" font-size="14" lengthAdjust="spacing" textLength="32" x="221.3" y="841.8467">Role</text><line style="stroke:#181818;stroke-width:0.5;" x1="184.5" x2="262.5" y1="853" y2="853"/><text fill="#000000" font-family="sans-serif" font-size="14" lengthAdjust="spacing" textLength="58" x="189.5" y="869.9951">Student</text><text fill="#000000" font-family="sans-serif" font-size="14" lengthAdjust="spacing" textLength="68" x="189.5" y="886.292">Professor</text><text fill="#000000" font-family="sans-serif" font-size="14" lengthAdjust="spacing" textLength="46" x="189.5" y="902.5889">Admin</text><line style="stroke:#181818;stroke-width:0.5;" x1="184.5" x2="262.5" y1="909.8906" y2="909.8906"/></g><!--class UserResult--><g id="elem_UserResult"><rect codeLine="106" fill="#F1F1F1" height="194.6719" id="UserResult" rx="2.5" ry="2.5" style="stroke:#181818;stroke-width:0.5;" width="247" x="299" y="772"/><ellipse cx="380.25" cy="788" fill="#B4A7E5" rx="11" ry="11" style="stroke:#181818;stroke-width:1.0;"/><path d="M381.2031,784.7813 L382.9219,784.7813 C383.3125,784.7813 383.5,784.75 383.625,784.6719 C383.8906,784.5156 384.0313,784.2344 384.0313,783.9375 C384.0313,783.6719 383.9219,783.4063 383.6875,783.2344 C383.5156,783.125 383.375,783.0938 382.9219,783.0938 L377.7813,783.0938 C377.3438,783.0938 377.2188,783.1094 377.0625,783.2031 C376.8125,783.3594 376.6563,783.6563 376.6563,783.9375 C376.6563,784.2188 376.7969,784.4688 377.0156,784.6406 C377.1719,784.75 377.3594,784.7813 377.7813,784.7813 L379.5,784.7813 L379.5,791.2969 L377.7813,791.2969 C377.3438,791.2969 377.2188,791.3125 377.0625,791.4219 C376.8125,791.5781 376.6563,791.8594 376.6563,792.1563 C376.6563,792.4063 376.7969,792.6719 377.0156,792.8281 C377.1719,792.9531 377.375,793 377.7813,793 L382.9219,793 C383.6719,793 384.0313,792.7188 384.0313,792.1563 C384.0313,791.875 383.9219,791.625 383.6875,791.4531 C383.5156,791.3281 383.375,791.2969 382.9219,791.2969 L381.2031,791.2969 L381.2031,784.7813 Z " fill="#000000"/><text fill="#000000" font-family="sans-serif" font-size="14" font-style="italic" lengthAdjust="spacing" textLength="76" x="400.75" y="792.8467">UserResult</text><line style="stroke:#181818;stroke-width:0.5;" x1="300" x2="545" y1="804" y2="804"/><ellipse cx="310" cy="817.6484" fill="none" rx="3" ry="3" style="stroke:#038048;stroke-width:1.0;"/><text fill="#000000" font-family="sans-serif" font-size="14" lengthAdjust="spacing" textLength="115" x="319" y="820.9951">user_id: number</text><ellipse cx="310" cy="833.9453" fill="none" rx="3" ry="3" style="stroke:#038048;stroke-width:1.0;"/><text fill="#000000" font-family="sans-serif" font-size="14" lengthAdjust="spacing" textLength="125" x="319" y="837.292">game_id: number</text><ellipse cx="310" cy="850.2422" fill="none" rx="3" ry="3" style="stroke:#038048;stroke-width:1.0;"/><text fill="#000000" font-family="sans-serif" font-size="14" lengthAdjust="spacing" textLength="98" x="319" y="853.5889">game?: Game</text><ellipse cx="310" cy="866.5391" fill="none" rx="3" ry="3" style="stroke:#038048;stroke-width:1.0;"/><text fill="#000000" font-family="sans-serif" font-size="14" lengthAdjust="spacing" textLength="221" x="319" y="869.8857">answer_results: AnswerResult[]</text><ellipse cx="310" cy="882.8359" fill="none" rx="3" ry="3" style="stroke:#038048;stroke-width:1.0;"/><text fill="#000000" font-family="sans-serif" font-size="14" lengthAdjust="spacing" textLength="104" x="319" y="886.1826">score: number</text><ellipse cx="310" cy="899.1328" fill="none" rx="3" ry="3" style="stroke:#038048;stroke-width:1.0;"/><text fill="#000000" font-family="sans-serif" font-size="14" lengthAdjust="spacing" textLength="201" x="319" y="902.4795">correct_questions?: number</text><ellipse cx="310" cy="915.4297" fill="none" rx="3" ry="3" style="stroke:#038048;stroke-width:1.0;"/><text fill="#000000" font-family="sans-serif" font-size="14" lengthAdjust="spacing" textLength="142" x="319" y="918.7764">survey_title?: string</text><ellipse cx="310" cy="931.7266" fill="none" rx="3" ry="3" style="stroke:#038048;stroke-width:1.0;"/><text fill="#000000" font-family="sans-serif" font-size="14" lengthAdjust="spacing" textLength="192" x="319" y="935.0732">wrong_questions?: number</text><ellipse cx="310" cy="948.0234" fill="none" rx="3" ry="3" style="stroke:#038048;stroke-width:1.0;"/><text fill="#000000" font-family="sans-serif" font-size="14" lengthAdjust="spacing" textLength="183" x="319" y="951.3701">total_questions?: number</text><line style="stroke:#181818;stroke-width:0.5;" x1="300" x2="545" y1="958.6719" y2="958.6719"/></g><!--class Question--><g id="elem_Question"><rect codeLine="117" fill="#F1F1F1" height="194.6719" id="Question" rx="2.5" ry="2.5" style="stroke:#181818;stroke-width:0.5;" width="201" x="581" y="772"/><ellipse cx="645.25" cy="788" fill="#ADD1B2" rx="11" ry="11" style="stroke:#181818;stroke-width:1.0;"/><path d="M647.5938,783.6719 C646.6563,783.2344 646.0625,783.0938 645.1875,783.0938 C642.5625,783.0938 640.5625,785.1719 640.5625,787.8906 L640.5625,789.0156 C640.5625,791.5938 642.6719,793.4844 645.5625,793.4844 C646.7813,793.4844 647.9375,793.1875 648.6875,792.6406 C649.2656,792.2344 649.5938,791.7813 649.5938,791.3906 C649.5938,790.9375 649.2031,790.5469 648.7344,790.5469 C648.5156,790.5469 648.3125,790.625 648.125,790.8125 C647.6719,791.2969 647.6719,791.2969 647.4844,791.3906 C647.0625,791.6563 646.375,791.7813 645.6094,791.7813 C643.5625,791.7813 642.2656,790.6875 642.2656,788.9844 L642.2656,787.8906 C642.2656,786.1094 643.5156,784.7969 645.25,784.7969 C645.8281,784.7969 646.4375,784.9531 646.9063,785.2031 C647.3906,785.4844 647.5625,785.7031 647.6563,786.1094 C647.7188,786.5156 647.75,786.6406 647.8906,786.7656 C648.0313,786.9063 648.2656,787.0156 648.4844,787.0156 C648.75,787.0156 649.0156,786.875 649.1875,786.6563 C649.2969,786.5 649.3281,786.3125 649.3281,785.8906 L649.3281,784.4688 C649.3281,784.0313 649.3125,783.9063 649.2188,783.75 C649.0625,783.4844 648.7813,783.3438 648.4844,783.3438 C648.1875,783.3438 647.9844,783.4375 647.7656,783.75 L647.5938,783.6719 Z " fill="#000000"/><text fill="#000000" font-family="sans-serif" font-size="14" lengthAdjust="spacing" textLength="64" x="665.75" y="792.8467">Question</text><line style="stroke:#181818;stroke-width:0.5;" x1="582" x2="781" y1="804" y2="804"/><ellipse cx="592" cy="817.6484" fill="none" rx="3" ry="3" style="stroke:#038048;stroke-width:1.0;"/><text fill="#000000" font-family="sans-serif" font-size="14" lengthAdjust="spacing" textLength="78" x="601" y="820.9951">id: number</text><ellipse cx="592" cy="833.9453" fill="none" rx="3" ry="3" style="stroke:#038048;stroke-width:1.0;"/><text fill="#000000" font-family="sans-serif" font-size="14" lengthAdjust="spacing" textLength="133" x="601" y="837.292">description: string</text><ellipse cx="592" cy="850.2422" fill="none" rx="3" ry="3" style="stroke:#038048;stroke-width:1.0;"/><text fill="#000000" font-family="sans-serif" font-size="14" lengthAdjust="spacing" textLength="104" x="601" y="853.5889">subject: string</text><ellipse cx="592" cy="866.5391" fill="none" rx="3" ry="3" style="stroke:#038048;stroke-width:1.0;"/><text fill="#000000" font-family="sans-serif" font-size="14" lengthAdjust="spacing" textLength="85" x="601" y="869.8857">type: string</text><ellipse cx="592" cy="882.8359" fill="none" rx="3" ry="3" style="stroke:#038048;stroke-width:1.0;"/><text fill="#000000" font-family="sans-serif" font-size="14" lengthAdjust="spacing" textLength="156" x="601" y="886.1826">answer_time: number</text><ellipse cx="592" cy="899.1328" fill="none" rx="3" ry="3" style="stroke:#038048;stroke-width:1.0;"/><text fill="#000000" font-family="sans-serif" font-size="14" lengthAdjust="spacing" textLength="128" x="601" y="902.4795">answers: Answer[]</text><ellipse cx="592" cy="915.4297" fill="none" rx="3" ry="3" style="stroke:#038048;stroke-width:1.0;"/><text fill="#000000" font-family="sans-serif" font-size="14" lengthAdjust="spacing" textLength="113" x="601" y="918.7764">resource: string</text><ellipse cx="592" cy="931.7266" fill="none" rx="3" ry="3" style="stroke:#038048;stroke-width:1.0;"/><text fill="#000000" font-family="sans-serif" font-size="14" lengthAdjust="spacing" textLength="175" x="601" y="935.0732">user_creator_id: number</text><ellipse cx="592" cy="948.0234" fill="none" rx="3" ry="3" style="stroke:#038048;stroke-width:1.0;"/><text fill="#000000" font-family="sans-serif" font-size="14" lengthAdjust="spacing" textLength="131" x="601" y="951.3701">position?: number</text><line style="stroke:#181818;stroke-width:0.5;" x1="582" x2="781" y1="958.6719" y2="958.6719"/></g><!--class Type--><g id="elem_Type"><rect codeLine="128" fill="#F1F1F1" height="96.8906" id="Type" rx="2.5" ry="2.5" style="stroke:#181818;stroke-width:0.5;" width="97" x="817" y="821"/><ellipse cx="845.05" cy="837" fill="#EB937F" rx="11" ry="11" style="stroke:#181818;stroke-width:1.0;"/><path d="M843.8469,837.875 L845.3,837.875 L845.3,837.9844 C845.3,838.3906 845.3313,838.5469 845.4094,838.7031 C845.5656,838.9531 845.8469,839.1094 846.1438,839.1094 C846.3938,839.1094 846.6594,838.9688 846.8156,838.75 C846.9406,838.5938 846.9719,838.4375 846.9719,837.9844 L846.9719,836.0625 C846.9719,835.9063 846.9719,835.8594 846.9563,835.7031 C846.8938,835.2344 846.5813,834.9219 846.1281,834.9219 C845.8781,834.9219 845.6125,835.0625 845.4406,835.2813 C845.3313,835.4531 845.3,835.6094 845.3,836.0625 L845.3,836.1875 L843.8469,836.1875 L843.8469,833.7813 L847.8313,833.7813 L847.8313,834.6406 C847.8313,835.0469 847.8625,835.2188 847.9406,835.375 C848.1125,835.625 848.3938,835.7813 848.675,835.7813 C848.9406,835.7813 849.2063,835.6406 849.3781,835.4219 C849.4875,835.25 849.5188,835.1094 849.5188,834.6406 L849.5188,832.0938 L841.8938,832.0938 C841.4563,832.0938 841.3313,832.1094 841.175,832.2031 C840.925,832.3594 840.7688,832.6563 840.7688,832.9375 C840.7688,833.2188 840.9094,833.4688 841.1281,833.6406 C841.2844,833.75 841.4719,833.7813 841.8938,833.7813 L842.1438,833.7813 L842.1438,840.2969 L841.8938,840.2969 C841.4875,840.2969 841.3313,840.3125 841.175,840.4219 C840.925,840.5938 840.7688,840.8594 840.7688,841.1563 C840.7688,841.4219 840.9094,841.6719 841.1281,841.8281 C841.2688,841.9531 841.5031,842 841.8938,842 L849.8938,842 L849.8938,839.4219 C849.8938,838.9844 849.8625,838.8438 849.7844,838.6875 C849.6125,838.4375 849.3313,838.2813 849.05,838.2813 C848.7844,838.2813 848.5188,838.3906 848.3469,838.6406 C848.2375,838.7969 848.2063,838.9375 848.2063,839.4219 L848.2063,840.2969 L843.8469,840.2969 L843.8469,837.875 Z " fill="#000000"/><text fill="#000000" font-family="sans-serif" font-size="14" lengthAdjust="spacing" textLength="36" x="861.95" y="841.8467">Type</text><line style="stroke:#181818;stroke-width:0.5;" x1="818" x2="913" y1="853" y2="853"/><text fill="#000000" font-family="sans-serif" font-size="14" lengthAdjust="spacing" textLength="85" x="823" y="869.9951">multioption</text><text fill="#000000" font-family="sans-serif" font-size="14" lengthAdjust="spacing" textLength="71" x="823" y="886.292">true_false</text><text fill="#000000" font-family="sans-serif" font-size="14" lengthAdjust="spacing" textLength="38" x="823" y="902.5889">short</text><line style="stroke:#181818;stroke-width:0.5;" x1="818" x2="913" y1="909.8906" y2="909.8906"/></g><!--class QuestionSurvey--><g id="elem_QuestionSurvey"><rect codeLine="133" fill="#F1F1F1" height="113.1875" id="QuestionSurvey" rx="2.5" ry="2.5" style="stroke:#181818;stroke-width:0.5;" width="173" x="7" y="1222.5"/><ellipse cx="35.05" cy="1238.5" fill="#B4A7E5" rx="11" ry="11" style="stroke:#181818;stroke-width:1.0;"/><path d="M36.0031,1235.2813 L37.7219,1235.2813 C38.1125,1235.2813 38.3,1235.25 38.425,1235.1719 C38.6906,1235.0156 38.8313,1234.7344 38.8313,1234.4375 C38.8313,1234.1719 38.7219,1233.9063 38.4875,1233.7344 C38.3156,1233.625 38.175,1233.5938 37.7219,1233.5938 L32.5813,1233.5938 C32.1438,1233.5938 32.0188,1233.6094 31.8625,1233.7031 C31.6125,1233.8594 31.4562,1234.1563 31.4562,1234.4375 C31.4562,1234.7188 31.5969,1234.9688 31.8156,1235.1406 C31.9719,1235.25 32.1594,1235.2813 32.5813,1235.2813 L34.3,1235.2813 L34.3,1241.7969 L32.5813,1241.7969 C32.1438,1241.7969 32.0188,1241.8125 31.8625,1241.9219 C31.6125,1242.0781 31.4562,1242.3594 31.4562,1242.6563 C31.4562,1242.9063 31.5969,1243.1719 31.8156,1243.3281 C31.9719,1243.4531 32.175,1243.5 32.5813,1243.5 L37.7219,1243.5 C38.4719,1243.5 38.8313,1243.2188 38.8313,1242.6563 C38.8313,1242.375 38.7219,1242.125 38.4875,1241.9531 C38.3156,1241.8281 38.175,1241.7969 37.7219,1241.7969 L36.0031,1241.7969 L36.0031,1235.2813 Z " fill="#000000"/><text fill="#000000" font-family="sans-serif" font-size="14" font-style="italic" lengthAdjust="spacing" textLength="112" x="51.95" y="1243.3467">QuestionSurvey</text><line style="stroke:#181818;stroke-width:0.5;" x1="8" x2="179" y1="1254.5" y2="1254.5"/><ellipse cx="18" cy="1268.1484" fill="none" rx="3" ry="3" style="stroke:#038048;stroke-width:1.0;"/><text fill="#000000" font-family="sans-serif" font-size="14" lengthAdjust="spacing" textLength="147" x="27" y="1271.4951">question_id: number</text><ellipse cx="18" cy="1284.4453" fill="none" rx="3" ry="3" style="stroke:#038048;stroke-width:1.0;"/><text fill="#000000" font-family="sans-serif" font-size="14" lengthAdjust="spacing" textLength="131" x="27" y="1287.792">survey_id: number</text><ellipse cx="18" cy="1300.7422" fill="none" rx="3" ry="3" style="stroke:#038048;stroke-width:1.0;"/><text fill="#000000" font-family="sans-serif" font-size="14" lengthAdjust="spacing" textLength="124" x="27" y="1304.0889">position: number</text><ellipse cx="18" cy="1317.0391" fill="none" rx="3" ry="3" style="stroke:#038048;stroke-width:1.0;"/><text fill="#000000" font-family="sans-serif" font-size="14" lengthAdjust="spacing" textLength="135" x="27" y="1320.3857">question: Question</text><line style="stroke:#181818;stroke-width:0.5;" x1="8" x2="179" y1="1327.6875" y2="1327.6875"/></g><!--class ApiProfessorService--><g id="elem_ApiProfessorService"><rect codeLine="139" fill="#F1F1F1" height="504.3125" id="ApiProfessorService" rx="2.5" ry="2.5" style="stroke:#181818;stroke-width:0.5;" width="680" x="215.5" y="1027"/><ellipse cx="478.75" cy="1043" fill="#ADD1B2" rx="11" ry="11" style="stroke:#181818;stroke-width:1.0;"/><path d="M481.0938,1038.6719 C480.1563,1038.2344 479.5625,1038.0938 478.6875,1038.0938 C476.0625,1038.0938 474.0625,1040.1719 474.0625,1042.8906 L474.0625,1044.0156 C474.0625,1046.5938 476.1719,1048.4844 479.0625,1048.4844 C480.2813,1048.4844 481.4375,1048.1875 482.1875,1047.6406 C482.7656,1047.2344 483.0938,1046.7813 483.0938,1046.3906 C483.0938,1045.9375 482.7031,1045.5469 482.2344,1045.5469 C482.0156,1045.5469 481.8125,1045.625 481.625,1045.8125 C481.1719,1046.2969 481.1719,1046.2969 480.9844,1046.3906 C480.5625,1046.6563 479.875,1046.7813 479.1094,1046.7813 C477.0625,1046.7813 475.7656,1045.6875 475.7656,1043.9844 L475.7656,1042.8906 C475.7656,1041.1094 477.0156,1039.7969 478.75,1039.7969 C479.3281,1039.7969 479.9375,1039.9531 480.4063,1040.2031 C480.8906,1040.4844 481.0625,1040.7031 481.1563,1041.1094 C481.2188,1041.5156 481.25,1041.6406 481.3906,1041.7656 C481.5313,1041.9063 481.7656,1042.0156 481.9844,1042.0156 C482.25,1042.0156 482.5156,1041.875 482.6875,1041.6563 C482.7969,1041.5 482.8281,1041.3125 482.8281,1040.8906 L482.8281,1039.4688 C482.8281,1039.0313 482.8125,1038.9063 482.7188,1038.75 C482.5625,1038.4844 482.2813,1038.3438 481.9844,1038.3438 C481.6875,1038.3438 481.4844,1038.4375 481.2656,1038.75 L481.0938,1038.6719 Z " fill="#000000"/><text fill="#000000" font-family="sans-serif" font-size="14" lengthAdjust="spacing" textLength="145" x="499.25" y="1047.8467">ApiProfessorService</text><line style="stroke:#181818;stroke-width:0.5;" x1="216.5" x2="894.5" y1="1059" y2="1059"/><rect fill="none" height="6" style="stroke:#C82930;stroke-width:1.0;" width="6" x="223.5" y="1069.6484"/><text fill="#000000" font-family="sans-serif" font-size="14" lengthAdjust="spacing" textLength="119" x="235.5" y="1075.9951">http: HttpClient</text><line style="stroke:#181818;stroke-width:0.5;" x1="216.5" x2="894.5" y1="1083.2969" y2="1083.2969"/><rect fill="#F24D5C" height="6" style="stroke:#C82930;stroke-width:1.0;" width="6" x="223.5" y="1093.9453"/><text fill="#000000" font-family="sans-serif" font-size="14" lengthAdjust="spacing" textLength="433" x="235.5" y="1100.292">handleError(error: HttpErrorResponse): Observable&lt;never&gt;</text><ellipse cx="226.5" cy="1113.2422" fill="#84BE84" rx="3" ry="3" style="stroke:#038048;stroke-width:1.0;"/><text fill="#000000" font-family="sans-serif" font-size="14" lengthAdjust="spacing" textLength="430" x="235.5" y="1116.5889">createQuestion(question: Question): Observable&lt;Message&gt;</text><ellipse cx="226.5" cy="1129.5391" fill="#84BE84" rx="3" ry="3" style="stroke:#038048;stroke-width:1.0;"/><text fill="#000000" font-family="sans-serif" font-size="14" lengthAdjust="spacing" textLength="293" x="235.5" y="1132.8857">getQuestions(): Observable&lt;Question[]&gt;</text><ellipse cx="226.5" cy="1145.8359" fill="#84BE84" rx="3" ry="3" style="stroke:#038048;stroke-width:1.0;"/><text fill="#000000" font-family="sans-serif" font-size="14" lengthAdjust="spacing" textLength="420" x="235.5" y="1149.1826">getQuestionsByUser(id: number): Observable&lt;Question[]&gt;</text><ellipse cx="226.5" cy="1162.1328" fill="#84BE84" rx="3" ry="3" style="stroke:#038048;stroke-width:1.0;"/><text fill="#000000" font-family="sans-serif" font-size="14" lengthAdjust="spacing" textLength="385" x="235.5" y="1165.4795">getQuestionById(id: number): Observable&lt;Question&gt;</text><ellipse cx="226.5" cy="1178.4297" fill="#84BE84" rx="3" ry="3" style="stroke:#038048;stroke-width:1.0;"/><text fill="#000000" font-family="sans-serif" font-size="14" lengthAdjust="spacing" textLength="382" x="235.5" y="1181.7764">createSurvey(survey: Survey): Observable&lt;Message&gt;</text><ellipse cx="226.5" cy="1194.7266" fill="#84BE84" rx="3" ry="3" style="stroke:#038048;stroke-width:1.0;"/><text fill="#000000" font-family="sans-serif" font-size="14" lengthAdjust="spacing" textLength="388" x="235.5" y="1198.0732">getSurveysByUser(id: number): Observable&lt;Survey[]&gt;</text><ellipse cx="226.5" cy="1211.0234" fill="#84BE84" rx="3" ry="3" style="stroke:#038048;stroke-width:1.0;"/><text fill="#000000" font-family="sans-serif" font-size="14" lengthAdjust="spacing" textLength="353" x="235.5" y="1214.3701">getSurveyById(id: number): Observable&lt;Survey&gt;</text><ellipse cx="226.5" cy="1227.3203" fill="#84BE84" rx="3" ry="3" style="stroke:#038048;stroke-width:1.0;"/><text fill="#000000" font-family="sans-serif" font-size="14" lengthAdjust="spacing" textLength="372" x="235.5" y="1230.667">getUsersByCourse(id: number): Observable&lt;User[]&gt;</text><ellipse cx="226.5" cy="1243.6172" fill="#84BE84" rx="3" ry="3" style="stroke:#038048;stroke-width:1.0;"/><text fill="#000000" font-family="sans-serif" font-size="14" lengthAdjust="spacing" textLength="406" x="235.5" y="1246.9639">getSurveysByCourse(id: number): Observable&lt;Survey[]&gt;</text><ellipse cx="226.5" cy="1259.9141" fill="#84BE84" rx="3" ry="3" style="stroke:#038048;stroke-width:1.0;"/><text fill="#000000" font-family="sans-serif" font-size="14" lengthAdjust="spacing" textLength="438" x="235.5" y="1263.2607">getQuestionsByCourse(id: number): Observable&lt;Question[]&gt;</text><ellipse cx="226.5" cy="1276.2109" fill="#84BE84" rx="3" ry="3" style="stroke:#038048;stroke-width:1.0;"/><text fill="#000000" font-family="sans-serif" font-size="14" lengthAdjust="spacing" textLength="345" x="235.5" y="1279.5576">createGame(game: Game): Observable&lt;Game&gt;</text><ellipse cx="226.5" cy="1292.5078" fill="#84BE84" rx="3" ry="3" style="stroke:#038048;stroke-width:1.0;"/><text fill="#000000" font-family="sans-serif" font-size="14" lengthAdjust="spacing" textLength="349" x="235.5" y="1295.8545">updateGame(game: Game): Observable&lt;Game&gt;</text><ellipse cx="226.5" cy="1308.8047" fill="#84BE84" rx="3" ry="3" style="stroke:#038048;stroke-width:1.0;"/><text fill="#000000" font-family="sans-serif" font-size="14" lengthAdjust="spacing" textLength="341" x="235.5" y="1312.1514">getGameById(id: number): Observable&lt;Game&gt;</text><ellipse cx="226.5" cy="1325.1016" fill="#84BE84" rx="3" ry="3" style="stroke:#038048;stroke-width:1.0;"/><text fill="#000000" font-family="sans-serif" font-size="14" lengthAdjust="spacing" textLength="491" x="235.5" y="1328.4482">createUserResults(userResults: UserResult[]): Observable&lt;Message&gt;</text><ellipse cx="226.5" cy="1341.3984" fill="#84BE84" rx="3" ry="3" style="stroke:#038048;stroke-width:1.0;"/><text fill="#000000" font-family="sans-serif" font-size="14" lengthAdjust="spacing" textLength="540" x="235.5" y="1344.7451">importQuestions(formData: FormData, id: number): Observable&lt;Message&gt;</text><ellipse cx="226.5" cy="1357.6953" fill="#84BE84" rx="3" ry="3" style="stroke:#038048;stroke-width:1.0;"/><text fill="#000000" font-family="sans-serif" font-size="14" lengthAdjust="spacing" textLength="382" x="235.5" y="1361.042">exportQuestions(id: number): Observable&lt;Message&gt;</text><ellipse cx="226.5" cy="1373.9922" fill="#84BE84" rx="3" ry="3" style="stroke:#038048;stroke-width:1.0;"/><text fill="#000000" font-family="sans-serif" font-size="14" lengthAdjust="spacing" textLength="434" x="235.5" y="1377.3389">updateQuestion(question: Question): Observable&lt;Message&gt;</text><ellipse cx="226.5" cy="1390.2891" fill="#84BE84" rx="3" ry="3" style="stroke:#038048;stroke-width:1.0;"/><text fill="#000000" font-family="sans-serif" font-size="14" lengthAdjust="spacing" textLength="373" x="235.5" y="1393.6357">deleteQuestion(id: number): Observable&lt;Message&gt;</text><ellipse cx="226.5" cy="1406.5859" fill="#84BE84" rx="3" ry="3" style="stroke:#038048;stroke-width:1.0;"/><text fill="#000000" font-family="sans-serif" font-size="14" lengthAdjust="spacing" textLength="386" x="235.5" y="1409.9326">updateSurvey(survey: Survey): Observable&lt;Message&gt;</text><ellipse cx="226.5" cy="1422.8828" fill="#84BE84" rx="3" ry="3" style="stroke:#038048;stroke-width:1.0;"/><text fill="#000000" font-family="sans-serif" font-size="14" lengthAdjust="spacing" textLength="357" x="235.5" y="1426.2295">deleteSurvey(id: number): Observable&lt;Message&gt;</text><ellipse cx="226.5" cy="1439.1797" fill="#84BE84" rx="3" ry="3" style="stroke:#038048;stroke-width:1.0;"/><text fill="#000000" font-family="sans-serif" font-size="14" lengthAdjust="spacing" textLength="622" x="235.5" y="1442.5264">deleteSurveyFromCourse(courseId: number, surveyId: number): Observable&lt;Message&gt;</text><ellipse cx="226.5" cy="1455.4766" fill="#84BE84" rx="3" ry="3" style="stroke:#038048;stroke-width:1.0;"/><text fill="#000000" font-family="sans-serif" font-size="14" lengthAdjust="spacing" textLength="654" x="235.5" y="1458.8232">deleteQuestionFromCourse(courseId: number, questionId: number): Observable&lt;Message&gt;</text><ellipse cx="226.5" cy="1471.7734" fill="#84BE84" rx="3" ry="3" style="stroke:#038048;stroke-width:1.0;"/><text fill="#000000" font-family="sans-serif" font-size="14" lengthAdjust="spacing" textLength="589" x="235.5" y="1475.1201">deleteUserFromCourse(courseId: number, userId: number): Observable&lt;Message&gt;</text><ellipse cx="226.5" cy="1488.0703" fill="#84BE84" rx="3" ry="3" style="stroke:#038048;stroke-width:1.0;"/><text fill="#000000" font-family="sans-serif" font-size="14" lengthAdjust="spacing" textLength="351" x="235.5" y="1491.417">deleteGame(id: number): Observable&lt;Message&gt;</text><ellipse cx="226.5" cy="1504.3672" fill="#84BE84" rx="3" ry="3" style="stroke:#038048;stroke-width:1.0;"/><text fill="#000000" font-family="sans-serif" font-size="14" lengthAdjust="spacing" textLength="506" x="235.5" y="1507.7139">getGameResultsByGame(gameId: number): Observable&lt;UserResult[]&gt;</text><ellipse cx="226.5" cy="1520.6641" fill="#84BE84" rx="3" ry="3" style="stroke:#038048;stroke-width:1.0;"/><text fill="#000000" font-family="sans-serif" font-size="14" lengthAdjust="spacing" textLength="441" x="235.5" y="1524.0107">getGamesByCourse(courseId: number): Observable&lt;Game[]&gt;</text></g><!--SRC=[dLRBZjiw3DtFLtYPekqF14M3cJvdKVGnxUgYC1oRITGwaYl9cGP5__rIecH9jfL7imXace_3GufqtLPA5RTSFO8i_jmK-7lAcjMouFr-3P843QXQiaupmPU5qfBnhTDKPIsaX5elYxKGBLJyvkyDunhafgh1-Vq2gc-rzxwjzb2o9etGAv0JuQyUb8avUL5Pj-K49ybHI759g7P2wd9u5SCF0NW3l-TyGHCI6sMyYbEkBOqFlJp0CKkZPhg5587DkvPGQP7FNosBp-xut_VHAmeP5EZPgqbGefTr2EgHlaAnWe0q3SonH2dEkGw82_qDyqXzrlPfjj2OZz57aB4BGdwH4sLLqSsGRUp8Kt6HgtcEFKtla8XiENT2wGoqYLWVEsJKkFkA9wUgA-s43-Re-av2EO0g3qonjMcQf0axWTcMvFEJEQlWDPCdYJ43OYKKOqN5YD6lFB7ErBGdD6MbLr7j0RqF2JcEn6RJCaxE1RV7ID4cwJITJtj67gG_rwrGU7HM8JTdXggygIJfDg97QkoHYz9oef96i451AMGo7Zv4-LmxJif2nb5rXedHCgNprt9keDYhBkqeT15fBjfs2oH58HreBdGPSuGZ25kX0RaMI4M95nE0-pUTX0E3nv5qm9KH4omltZ3ErCwMWQw10PkR5IQjwRpeqEnHo6OqSAKO3q0ZCGL6nI_2LVEf5Z-1hsO7pLVpocEnUjbvbAYoIaznkzPtz9luJlr1zmrm8kIJ51iiYY2xssRF-2HKkk5cbzdisZF2LToFRhCDRH8lqA51SG71-7RRbHG6nsfsAja5D2h9enHycpNKGbVjt5lV6lu6vDeZ- -cW-lKF-zqG2scanH97Y6PxcDlF0qNPZNT-pNP2COClJiusH3HuziW_4pOD-wnb3-McQjqajTyOiqie_IJ8Vj5areQ7Dh-pmlmPod7RiQ5V7q0UMEqpUBxJkbiMx_7_LSjySp_VuK1juOsKGYx0_9EA5M3RTLXqUB8iFgwHmKE5y_O5XmF8b_5gy2WMKs2fwGV4LMt16Mz1UpMrI1N3N9tHlJkQAxS8N5rkUtUyRyuQ9hbH_HRAVMRHuvciIEaSJl_jChOxYP5KWec9W85egMUjQBtD03nZDuKO5U6CxQGCnASPTOkmXLCR8t7QVTTSeOt8pDD9wY9rWX86jrhquPpkvbEbPliEhtteuOsG-zULhfR5MtTwLkJGf9xWT-hfCYlYw1zlNmCjHCRNHBpwJb0iPtPPfDZahHHxrstq6Ni_k7XM48hxAvpwd4-wzMHUuzZqpKcdfikkSMZR_pA-t0rmFNnt76xE_OcPu9iyzH7kzZY3wOKojd__1m00]--></g></svg>