<?xml version="1.0" encoding="us-ascii" standalone="no"?><svg xmlns="http://www.w3.org/2000/svg" xmlns:xlink="http://www.w3.org/1999/xlink" contentStyleType="text/css" height="1179px" preserveAspectRatio="none" style="width:1082px;height:1179px;background:#FFFFFF;" version="1.1" viewBox="0 0 1082 1179" width="1082px" zoomAndPan="magnify"><defs/><g><!--class Answer--><g id="elem_Answer"><rect codeLine="1" fill="#F1F1F1" height="96.8906" id="Answer" rx="2.5" ry="2.5" style="stroke:#181818;stroke-width:0.5;" width="164" x="62" y="56"/><ellipse cx="113.75" cy="72" fill="#ADD1B2" rx="11" ry="11" style="stroke:#181818;stroke-width:1.0;"/><path d="M116.0938,67.6719 C115.1563,67.2344 114.5625,67.0938 113.6875,67.0938 C111.0625,67.0938 109.0625,69.1719 109.0625,71.8906 L109.0625,73.0156 C109.0625,75.5938 111.1719,77.4844 114.0625,77.4844 C115.2813,77.4844 116.4375,77.1875 117.1875,76.6406 C117.7656,76.2344 118.0938,75.7813 118.0938,75.3906 C118.0938,74.9375 117.7031,74.5469 117.2344,74.5469 C117.0156,74.5469 116.8125,74.625 116.625,74.8125 C116.1719,75.2969 116.1719,75.2969 115.9844,75.3906 C115.5625,75.6563 114.875,75.7813 114.1094,75.7813 C112.0625,75.7813 110.7656,74.6875 110.7656,72.9844 L110.7656,71.8906 C110.7656,70.1094 112.0156,68.7969 113.75,68.7969 C114.3281,68.7969 114.9375,68.9531 115.4063,69.2031 C115.8906,69.4844 116.0625,69.7031 116.1563,70.1094 C116.2188,70.5156 116.25,70.6406 116.3906,70.7656 C116.5313,70.9063 116.7656,71.0156 116.9844,71.0156 C117.25,71.0156 117.5156,70.875 117.6875,70.6563 C117.7969,70.5 117.8281,70.3125 117.8281,69.8906 L117.8281,68.4688 C117.8281,68.0313 117.8125,67.9063 117.7188,67.75 C117.5625,67.4844 117.2813,67.3438 116.9844,67.3438 C116.6875,67.3438 116.4844,67.4375 116.2656,67.75 L116.0938,67.6719 Z " fill="#000000"/><text fill="#000000" font-family="sans-serif" font-size="14" lengthAdjust="spacing" textLength="52" x="134.25" y="76.8467">Answer</text><line style="stroke:#181818;stroke-width:0.5;" x1="63" x2="225" y1="88" y2="88"/><ellipse cx="73" cy="101.6484" fill="none" rx="3" ry="3" style="stroke:#038048;stroke-width:1.0;"/><text fill="#000000" font-family="sans-serif" font-size="14" lengthAdjust="spacing" textLength="85" x="82" y="104.9951">id?: number</text><ellipse cx="73" cy="117.9453" fill="none" rx="3" ry="3" style="stroke:#038048;stroke-width:1.0;"/><text fill="#000000" font-family="sans-serif" font-size="14" lengthAdjust="spacing" textLength="133" x="82" y="121.292">description: string</text><ellipse cx="73" cy="134.2422" fill="none" rx="3" ry="3" style="stroke:#038048;stroke-width:1.0;"/><text fill="#000000" font-family="sans-serif" font-size="14" lengthAdjust="spacing" textLength="138" x="82" y="137.5889">is_correct: boolean</text><line style="stroke:#181818;stroke-width:0.5;" x1="63" x2="225" y1="144.8906" y2="144.8906"/></g><!--class AnswerResult--><g id="elem_AnswerResult"><rect codeLine="6" fill="#F1F1F1" height="194.6719" id="AnswerResult" rx="2.5" ry="2.5" style="stroke:#181818;stroke-width:0.5;" width="199" x="261.5" y="7"/><ellipse cx="308.75" cy="23" fill="#B4A7E5" rx="11" ry="11" style="stroke:#181818;stroke-width:1.0;"/><path d="M309.7031,19.7813 L311.4219,19.7813 C311.8125,19.7813 312,19.75 312.125,19.6719 C312.3906,19.5156 312.5313,19.2344 312.5313,18.9375 C312.5313,18.6719 312.4219,18.4063 312.1875,18.2344 C312.0156,18.125 311.875,18.0938 311.4219,18.0938 L306.2813,18.0938 C305.8438,18.0938 305.7188,18.1094 305.5625,18.2031 C305.3125,18.3594 305.1563,18.6563 305.1563,18.9375 C305.1563,19.2188 305.2969,19.4688 305.5156,19.6406 C305.6719,19.75 305.8594,19.7813 306.2813,19.7813 L308,19.7813 L308,26.2969 L306.2813,26.2969 C305.8438,26.2969 305.7188,26.3125 305.5625,26.4219 C305.3125,26.5781 305.1563,26.8594 305.1563,27.1563 C305.1563,27.4063 305.2969,27.6719 305.5156,27.8281 C305.6719,27.9531 305.875,28 306.2813,28 L311.4219,28 C312.1719,28 312.5313,27.7188 312.5313,27.1563 C312.5313,26.875 312.4219,26.625 312.1875,26.4531 C312.0156,26.3281 311.875,26.2969 311.4219,26.2969 L309.7031,26.2969 L309.7031,19.7813 Z " fill="#000000"/><text fill="#000000" font-family="sans-serif" font-size="14" font-style="italic" lengthAdjust="spacing" textLength="96" x="329.25" y="27.8467">AnswerResult</text><line style="stroke:#181818;stroke-width:0.5;" x1="262.5" x2="459.5" y1="39" y2="39"/><ellipse cx="272.5" cy="52.6484" fill="none" rx="3" ry="3" style="stroke:#038048;stroke-width:1.0;"/><text fill="#000000" font-family="sans-serif" font-size="14" lengthAdjust="spacing" textLength="125" x="281.5" y="55.9951">game_id: number</text><ellipse cx="272.5" cy="68.9453" fill="none" rx="3" ry="3" style="stroke:#038048;stroke-width:1.0;"/><text fill="#000000" font-family="sans-serif" font-size="14" lengthAdjust="spacing" textLength="115" x="281.5" y="72.292">user_id: number</text><ellipse cx="272.5" cy="85.2422" fill="none" rx="3" ry="3" style="stroke:#038048;stroke-width:1.0;"/><text fill="#000000" font-family="sans-serif" font-size="14" lengthAdjust="spacing" textLength="147" x="281.5" y="88.5889">question_id: number</text><ellipse cx="272.5" cy="101.5391" fill="none" rx="3" ry="3" style="stroke:#038048;stroke-width:1.0;"/><text fill="#000000" font-family="sans-serif" font-size="14" lengthAdjust="spacing" textLength="142" x="281.5" y="104.8857">answer_id?: number</text><ellipse cx="272.5" cy="117.8359" fill="none" rx="3" ry="3" style="stroke:#038048;stroke-width:1.0;"/><text fill="#000000" font-family="sans-serif" font-size="14" lengthAdjust="spacing" textLength="118" x="281.5" y="121.1826">answer?: Answer</text><ellipse cx="272.5" cy="134.1328" fill="none" rx="3" ry="3" style="stroke:#038048;stroke-width:1.0;"/><text fill="#000000" font-family="sans-serif" font-size="14" lengthAdjust="spacing" textLength="153" x="281.5" y="137.4795">short_answer?: string</text><ellipse cx="272.5" cy="150.4297" fill="none" rx="3" ry="3" style="stroke:#038048;stroke-width:1.0;"/><text fill="#000000" font-family="sans-serif" font-size="14" lengthAdjust="spacing" textLength="173" x="281.5" y="153.7764">question_index: number</text><ellipse cx="272.5" cy="166.7266" fill="none" rx="3" ry="3" style="stroke:#038048;stroke-width:1.0;"/><text fill="#000000" font-family="sans-serif" font-size="14" lengthAdjust="spacing" textLength="135" x="281.5" y="170.0732">answered: boolean</text><ellipse cx="272.5" cy="183.0234" fill="none" rx="3" ry="3" style="stroke:#038048;stroke-width:1.0;"/><text fill="#000000" font-family="sans-serif" font-size="14" lengthAdjust="spacing" textLength="145" x="281.5" y="186.3701">is_correct?: boolean</text><line style="stroke:#181818;stroke-width:0.5;" x1="262.5" x2="459.5" y1="193.6719" y2="193.6719"/></g><!--class Question--><g id="elem_Question"><rect codeLine="17" fill="#F1F1F1" height="194.6719" id="Question" rx="2.5" ry="2.5" style="stroke:#181818;stroke-width:0.5;" width="201" x="495.5" y="7"/><ellipse cx="559.75" cy="23" fill="#ADD1B2" rx="11" ry="11" style="stroke:#181818;stroke-width:1.0;"/><path d="M562.0938,18.6719 C561.1563,18.2344 560.5625,18.0938 559.6875,18.0938 C557.0625,18.0938 555.0625,20.1719 555.0625,22.8906 L555.0625,24.0156 C555.0625,26.5938 557.1719,28.4844 560.0625,28.4844 C561.2813,28.4844 562.4375,28.1875 563.1875,27.6406 C563.7656,27.2344 564.0938,26.7813 564.0938,26.3906 C564.0938,25.9375 563.7031,25.5469 563.2344,25.5469 C563.0156,25.5469 562.8125,25.625 562.625,25.8125 C562.1719,26.2969 562.1719,26.2969 561.9844,26.3906 C561.5625,26.6563 560.875,26.7813 560.1094,26.7813 C558.0625,26.7813 556.7656,25.6875 556.7656,23.9844 L556.7656,22.8906 C556.7656,21.1094 558.0156,19.7969 559.75,19.7969 C560.3281,19.7969 560.9375,19.9531 561.4063,20.2031 C561.8906,20.4844 562.0625,20.7031 562.1563,21.1094 C562.2188,21.5156 562.25,21.6406 562.3906,21.7656 C562.5313,21.9063 562.7656,22.0156 562.9844,22.0156 C563.25,22.0156 563.5156,21.875 563.6875,21.6563 C563.7969,21.5 563.8281,21.3125 563.8281,20.8906 L563.8281,19.4688 C563.8281,19.0313 563.8125,18.9063 563.7188,18.75 C563.5625,18.4844 563.2813,18.3438 562.9844,18.3438 C562.6875,18.3438 562.4844,18.4375 562.2656,18.75 L562.0938,18.6719 Z " fill="#000000"/><text fill="#000000" font-family="sans-serif" font-size="14" lengthAdjust="spacing" textLength="64" x="580.25" y="27.8467">Question</text><line style="stroke:#181818;stroke-width:0.5;" x1="496.5" x2="695.5" y1="39" y2="39"/><ellipse cx="506.5" cy="52.6484" fill="none" rx="3" ry="3" style="stroke:#038048;stroke-width:1.0;"/><text fill="#000000" font-family="sans-serif" font-size="14" lengthAdjust="spacing" textLength="78" x="515.5" y="55.9951">id: number</text><ellipse cx="506.5" cy="68.9453" fill="none" rx="3" ry="3" style="stroke:#038048;stroke-width:1.0;"/><text fill="#000000" font-family="sans-serif" font-size="14" lengthAdjust="spacing" textLength="133" x="515.5" y="72.292">description: string</text><ellipse cx="506.5" cy="85.2422" fill="none" rx="3" ry="3" style="stroke:#038048;stroke-width:1.0;"/><text fill="#000000" font-family="sans-serif" font-size="14" lengthAdjust="spacing" textLength="104" x="515.5" y="88.5889">subject: string</text><ellipse cx="506.5" cy="101.5391" fill="none" rx="3" ry="3" style="stroke:#038048;stroke-width:1.0;"/><text fill="#000000" font-family="sans-serif" font-size="14" lengthAdjust="spacing" textLength="85" x="515.5" y="104.8857">type: string</text><ellipse cx="506.5" cy="117.8359" fill="none" rx="3" ry="3" style="stroke:#038048;stroke-width:1.0;"/><text fill="#000000" font-family="sans-serif" font-size="14" lengthAdjust="spacing" textLength="156" x="515.5" y="121.1826">answer_time: number</text><ellipse cx="506.5" cy="134.1328" fill="none" rx="3" ry="3" style="stroke:#038048;stroke-width:1.0;"/><text fill="#000000" font-family="sans-serif" font-size="14" lengthAdjust="spacing" textLength="128" x="515.5" y="137.4795">answers: Answer[]</text><ellipse cx="506.5" cy="150.4297" fill="none" rx="3" ry="3" style="stroke:#038048;stroke-width:1.0;"/><text fill="#000000" font-family="sans-serif" font-size="14" lengthAdjust="spacing" textLength="113" x="515.5" y="153.7764">resource: string</text><ellipse cx="506.5" cy="166.7266" fill="none" rx="3" ry="3" style="stroke:#038048;stroke-width:1.0;"/><text fill="#000000" font-family="sans-serif" font-size="14" lengthAdjust="spacing" textLength="175" x="515.5" y="170.0732">user_creator_id: number</text><ellipse cx="506.5" cy="183.0234" fill="none" rx="3" ry="3" style="stroke:#038048;stroke-width:1.0;"/><text fill="#000000" font-family="sans-serif" font-size="14" lengthAdjust="spacing" textLength="131" x="515.5" y="186.3701">position?: number</text><line style="stroke:#181818;stroke-width:0.5;" x1="496.5" x2="695.5" y1="193.6719" y2="193.6719"/></g><!--class Type--><g id="elem_Type"><rect codeLine="28" fill="#F1F1F1" height="96.8906" id="Type" rx="2.5" ry="2.5" style="stroke:#181818;stroke-width:0.5;" width="97" x="731.5" y="56"/><ellipse cx="759.55" cy="72" fill="#EB937F" rx="11" ry="11" style="stroke:#181818;stroke-width:1.0;"/><path d="M758.3469,72.875 L759.8,72.875 L759.8,72.9844 C759.8,73.3906 759.8313,73.5469 759.9094,73.7031 C760.0656,73.9531 760.3469,74.1094 760.6438,74.1094 C760.8938,74.1094 761.1594,73.9688 761.3156,73.75 C761.4406,73.5938 761.4719,73.4375 761.4719,72.9844 L761.4719,71.0625 C761.4719,70.9063 761.4719,70.8594 761.4563,70.7031 C761.3938,70.2344 761.0813,69.9219 760.6281,69.9219 C760.3781,69.9219 760.1125,70.0625 759.9406,70.2813 C759.8313,70.4531 759.8,70.6094 759.8,71.0625 L759.8,71.1875 L758.3469,71.1875 L758.3469,68.7813 L762.3313,68.7813 L762.3313,69.6406 C762.3313,70.0469 762.3625,70.2188 762.4406,70.375 C762.6125,70.625 762.8938,70.7813 763.175,70.7813 C763.4406,70.7813 763.7063,70.6406 763.8781,70.4219 C763.9875,70.25 764.0188,70.1094 764.0188,69.6406 L764.0188,67.0938 L756.3938,67.0938 C755.9563,67.0938 755.8313,67.1094 755.675,67.2031 C755.425,67.3594 755.2688,67.6563 755.2688,67.9375 C755.2688,68.2188 755.4094,68.4688 755.6281,68.6406 C755.7844,68.75 755.9719,68.7813 756.3938,68.7813 L756.6438,68.7813 L756.6438,75.2969 L756.3938,75.2969 C755.9875,75.2969 755.8313,75.3125 755.675,75.4219 C755.425,75.5938 755.2688,75.8594 755.2688,76.1563 C755.2688,76.4219 755.4094,76.6719 755.6281,76.8281 C755.7688,76.9531 756.0031,77 756.3938,77 L764.3938,77 L764.3938,74.4219 C764.3938,73.9844 764.3625,73.8438 764.2844,73.6875 C764.1125,73.4375 763.8313,73.2813 763.55,73.2813 C763.2844,73.2813 763.0188,73.3906 762.8469,73.6406 C762.7375,73.7969 762.7063,73.9375 762.7063,74.4219 L762.7063,75.2969 L758.3469,75.2969 L758.3469,72.875 Z " fill="#000000"/><text fill="#000000" font-family="sans-serif" font-size="14" lengthAdjust="spacing" textLength="36" x="776.45" y="76.8467">Type</text><line style="stroke:#181818;stroke-width:0.5;" x1="732.5" x2="827.5" y1="88" y2="88"/><text fill="#000000" font-family="sans-serif" font-size="14" lengthAdjust="spacing" textLength="85" x="737.5" y="104.9951">multioption</text><text fill="#000000" font-family="sans-serif" font-size="14" lengthAdjust="spacing" textLength="71" x="737.5" y="121.292">true_false</text><text fill="#000000" font-family="sans-serif" font-size="14" lengthAdjust="spacing" textLength="38" x="737.5" y="137.5889">short</text><line style="stroke:#181818;stroke-width:0.5;" x1="732.5" x2="827.5" y1="144.8906" y2="144.8906"/></g><!--class QuestionSurvey--><g id="elem_QuestionSurvey"><rect codeLine="33" fill="#F1F1F1" height="113.1875" id="QuestionSurvey" rx="2.5" ry="2.5" style="stroke:#181818;stroke-width:0.5;" width="173" x="863.5" y="48"/><ellipse cx="891.55" cy="64" fill="#B4A7E5" rx="11" ry="11" style="stroke:#181818;stroke-width:1.0;"/><path d="M892.5031,60.7813 L894.2219,60.7813 C894.6125,60.7813 894.8,60.75 894.925,60.6719 C895.1906,60.5156 895.3313,60.2344 895.3313,59.9375 C895.3313,59.6719 895.2219,59.4063 894.9875,59.2344 C894.8156,59.125 894.675,59.0938 894.2219,59.0938 L889.0813,59.0938 C888.6438,59.0938 888.5188,59.1094 888.3625,59.2031 C888.1125,59.3594 887.9563,59.6563 887.9563,59.9375 C887.9563,60.2188 888.0969,60.4688 888.3156,60.6406 C888.4719,60.75 888.6594,60.7813 889.0813,60.7813 L890.8,60.7813 L890.8,67.2969 L889.0813,67.2969 C888.6438,67.2969 888.5188,67.3125 888.3625,67.4219 C888.1125,67.5781 887.9563,67.8594 887.9563,68.1563 C887.9563,68.4063 888.0969,68.6719 888.3156,68.8281 C888.4719,68.9531 888.675,69 889.0813,69 L894.2219,69 C894.9719,69 895.3313,68.7188 895.3313,68.1563 C895.3313,67.875 895.2219,67.625 894.9875,67.4531 C894.8156,67.3281 894.675,67.2969 894.2219,67.2969 L892.5031,67.2969 L892.5031,60.7813 Z " fill="#000000"/><text fill="#000000" font-family="sans-serif" font-size="14" font-style="italic" lengthAdjust="spacing" textLength="112" x="908.45" y="68.8467">QuestionSurvey</text><line style="stroke:#181818;stroke-width:0.5;" x1="864.5" x2="1035.5" y1="80" y2="80"/><ellipse cx="874.5" cy="93.6484" fill="none" rx="3" ry="3" style="stroke:#038048;stroke-width:1.0;"/><text fill="#000000" font-family="sans-serif" font-size="14" lengthAdjust="spacing" textLength="147" x="883.5" y="96.9951">question_id: number</text><ellipse cx="874.5" cy="109.9453" fill="none" rx="3" ry="3" style="stroke:#038048;stroke-width:1.0;"/><text fill="#000000" font-family="sans-serif" font-size="14" lengthAdjust="spacing" textLength="131" x="883.5" y="113.292">survey_id: number</text><ellipse cx="874.5" cy="126.2422" fill="none" rx="3" ry="3" style="stroke:#038048;stroke-width:1.0;"/><text fill="#000000" font-family="sans-serif" font-size="14" lengthAdjust="spacing" textLength="124" x="883.5" y="129.5889">position: number</text><ellipse cx="874.5" cy="142.5391" fill="none" rx="3" ry="3" style="stroke:#038048;stroke-width:1.0;"/><text fill="#000000" font-family="sans-serif" font-size="14" lengthAdjust="spacing" textLength="135" x="883.5" y="145.8857">question: Question</text><line style="stroke:#181818;stroke-width:0.5;" x1="864.5" x2="1035.5" y1="153.1875" y2="153.1875"/></g><!--class Survey--><g id="elem_Survey"><rect codeLine="39" fill="#F1F1F1" height="145.7813" id="Survey" rx="2.5" ry="2.5" style="stroke:#181818;stroke-width:0.5;" width="274" x="7" y="262"/><ellipse cx="115.75" cy="278" fill="#ADD1B2" rx="11" ry="11" style="stroke:#181818;stroke-width:1.0;"/><path d="M118.0938,273.6719 C117.1563,273.2344 116.5625,273.0938 115.6875,273.0938 C113.0625,273.0938 111.0625,275.1719 111.0625,277.8906 L111.0625,279.0156 C111.0625,281.5938 113.1719,283.4844 116.0625,283.4844 C117.2813,283.4844 118.4375,283.1875 119.1875,282.6406 C119.7656,282.2344 120.0938,281.7813 120.0938,281.3906 C120.0938,280.9375 119.7031,280.5469 119.2344,280.5469 C119.0156,280.5469 118.8125,280.625 118.625,280.8125 C118.1719,281.2969 118.1719,281.2969 117.9844,281.3906 C117.5625,281.6563 116.875,281.7813 116.1094,281.7813 C114.0625,281.7813 112.7656,280.6875 112.7656,278.9844 L112.7656,277.8906 C112.7656,276.1094 114.0156,274.7969 115.75,274.7969 C116.3281,274.7969 116.9375,274.9531 117.4063,275.2031 C117.8906,275.4844 118.0625,275.7031 118.1563,276.1094 C118.2188,276.5156 118.25,276.6406 118.3906,276.7656 C118.5313,276.9063 118.7656,277.0156 118.9844,277.0156 C119.25,277.0156 119.5156,276.875 119.6875,276.6563 C119.7969,276.5 119.8281,276.3125 119.8281,275.8906 L119.8281,274.4688 C119.8281,274.0313 119.8125,273.9063 119.7188,273.75 C119.5625,273.4844 119.2813,273.3438 118.9844,273.3438 C118.6875,273.3438 118.4844,273.4375 118.2656,273.75 L118.0938,273.6719 Z " fill="#000000"/><text fill="#000000" font-family="sans-serif" font-size="14" lengthAdjust="spacing" textLength="48" x="136.25" y="282.8467">Survey</text><line style="stroke:#181818;stroke-width:0.5;" x1="8" x2="280" y1="294" y2="294"/><ellipse cx="18" cy="307.6484" fill="none" rx="3" ry="3" style="stroke:#038048;stroke-width:1.0;"/><text fill="#000000" font-family="sans-serif" font-size="14" lengthAdjust="spacing" textLength="85" x="27" y="310.9951">id?: number</text><ellipse cx="18" cy="323.9453" fill="none" rx="3" ry="3" style="stroke:#038048;stroke-width:1.0;"/><text fill="#000000" font-family="sans-serif" font-size="14" lengthAdjust="spacing" textLength="82" x="27" y="327.292">title: string</text><ellipse cx="18" cy="340.2422" fill="none" rx="3" ry="3" style="stroke:#038048;stroke-width:1.0;"/><text fill="#000000" font-family="sans-serif" font-size="14" lengthAdjust="spacing" textLength="175" x="27" y="343.5889">user_creator_id: number</text><ellipse cx="18" cy="356.5391" fill="none" rx="3" ry="3" style="stroke:#038048;stroke-width:1.0;"/><text fill="#000000" font-family="sans-serif" font-size="14" lengthAdjust="spacing" textLength="152" x="27" y="359.8857">questions: Question[]</text><ellipse cx="18" cy="372.8359" fill="none" rx="3" ry="3" style="stroke:#038048;stroke-width:1.0;"/><text fill="#000000" font-family="sans-serif" font-size="14" lengthAdjust="spacing" textLength="248" x="27" y="376.1826">questionsSurvey: QuestionSurvey[]</text><ellipse cx="18" cy="389.1328" fill="none" rx="3" ry="3" style="stroke:#038048;stroke-width:1.0;"/><text fill="#000000" font-family="sans-serif" font-size="14" lengthAdjust="spacing" textLength="113" x="27" y="392.4795">resource: string</text><line style="stroke:#181818;stroke-width:0.5;" x1="8" x2="280" y1="399.7813" y2="399.7813"/></g><!--class Course--><g id="elem_Course"><rect codeLine="47" fill="#F1F1F1" height="96.8906" id="Course" rx="2.5" ry="2.5" style="stroke:#181818;stroke-width:0.5;" width="159" x="316.5" y="286.5"/><ellipse cx="367.25" cy="302.5" fill="#ADD1B2" rx="11" ry="11" style="stroke:#181818;stroke-width:1.0;"/><path d="M369.5938,298.1719 C368.6563,297.7344 368.0625,297.5938 367.1875,297.5938 C364.5625,297.5938 362.5625,299.6719 362.5625,302.3906 L362.5625,303.5156 C362.5625,306.0938 364.6719,307.9844 367.5625,307.9844 C368.7813,307.9844 369.9375,307.6875 370.6875,307.1406 C371.2656,306.7344 371.5938,306.2813 371.5938,305.8906 C371.5938,305.4375 371.2031,305.0469 370.7344,305.0469 C370.5156,305.0469 370.3125,305.125 370.125,305.3125 C369.6719,305.7969 369.6719,305.7969 369.4844,305.8906 C369.0625,306.1563 368.375,306.2813 367.6094,306.2813 C365.5625,306.2813 364.2656,305.1875 364.2656,303.4844 L364.2656,302.3906 C364.2656,300.6094 365.5156,299.2969 367.25,299.2969 C367.8281,299.2969 368.4375,299.4531 368.9063,299.7031 C369.3906,299.9844 369.5625,300.2031 369.6563,300.6094 C369.7188,301.0156 369.75,301.1406 369.8906,301.2656 C370.0313,301.4063 370.2656,301.5156 370.4844,301.5156 C370.75,301.5156 371.0156,301.375 371.1875,301.1563 C371.2969,301 371.3281,300.8125 371.3281,300.3906 L371.3281,298.9688 C371.3281,298.5313 371.3125,298.4063 371.2188,298.25 C371.0625,297.9844 370.7813,297.8438 370.4844,297.8438 C370.1875,297.8438 369.9844,297.9375 369.7656,298.25 L369.5938,298.1719 Z " fill="#000000"/><text fill="#000000" font-family="sans-serif" font-size="14" lengthAdjust="spacing" textLength="49" x="387.75" y="307.3467">Course</text><line style="stroke:#181818;stroke-width:0.5;" x1="317.5" x2="474.5" y1="318.5" y2="318.5"/><ellipse cx="327.5" cy="332.1484" fill="none" rx="3" ry="3" style="stroke:#038048;stroke-width:1.0;"/><text fill="#000000" font-family="sans-serif" font-size="14" lengthAdjust="spacing" textLength="78" x="336.5" y="335.4951">id: number</text><ellipse cx="327.5" cy="348.4453" fill="none" rx="3" ry="3" style="stroke:#038048;stroke-width:1.0;"/><text fill="#000000" font-family="sans-serif" font-size="14" lengthAdjust="spacing" textLength="91" x="336.5" y="351.792">name: string</text><ellipse cx="327.5" cy="364.7422" fill="none" rx="3" ry="3" style="stroke:#038048;stroke-width:1.0;"/><text fill="#000000" font-family="sans-serif" font-size="14" lengthAdjust="spacing" textLength="133" x="336.5" y="368.0889">description: string</text><line style="stroke:#181818;stroke-width:0.5;" x1="317.5" x2="474.5" y1="375.3906" y2="375.3906"/></g><!--class UserCourse--><g id="elem_UserCourse"><rect codeLine="52" fill="#F1F1F1" height="80.5938" id="UserCourse" rx="2.5" ry="2.5" style="stroke:#181818;stroke-width:0.5;" width="158" x="511" y="294.5"/><ellipse cx="545.8" cy="310.5" fill="#B4A7E5" rx="11" ry="11" style="stroke:#181818;stroke-width:1.0;"/><path d="M546.7531,307.2813 L548.4719,307.2813 C548.8625,307.2813 549.05,307.25 549.175,307.1719 C549.4406,307.0156 549.5813,306.7344 549.5813,306.4375 C549.5813,306.1719 549.4719,305.9063 549.2375,305.7344 C549.0656,305.625 548.925,305.5938 548.4719,305.5938 L543.3313,305.5938 C542.8938,305.5938 542.7688,305.6094 542.6125,305.7031 C542.3625,305.8594 542.2063,306.1563 542.2063,306.4375 C542.2063,306.7188 542.3469,306.9688 542.5656,307.1406 C542.7219,307.25 542.9094,307.2813 543.3313,307.2813 L545.05,307.2813 L545.05,313.7969 L543.3313,313.7969 C542.8938,313.7969 542.7688,313.8125 542.6125,313.9219 C542.3625,314.0781 542.2063,314.3594 542.2063,314.6563 C542.2063,314.9063 542.3469,315.1719 542.5656,315.3281 C542.7219,315.4531 542.925,315.5 543.3313,315.5 L548.4719,315.5 C549.2219,315.5 549.5813,315.2188 549.5813,314.6563 C549.5813,314.375 549.4719,314.125 549.2375,313.9531 C549.0656,313.8281 548.925,313.7969 548.4719,313.7969 L546.7531,313.7969 L546.7531,307.2813 Z " fill="#000000"/><text fill="#000000" font-family="sans-serif" font-size="14" font-style="italic" lengthAdjust="spacing" textLength="82" x="564.2" y="315.3467">UserCourse</text><line style="stroke:#181818;stroke-width:0.5;" x1="512" x2="668" y1="326.5" y2="326.5"/><ellipse cx="522" cy="340.1484" fill="none" rx="3" ry="3" style="stroke:#038048;stroke-width:1.0;"/><text fill="#000000" font-family="sans-serif" font-size="14" lengthAdjust="spacing" textLength="132" x="531" y="343.4951">course_id: number</text><ellipse cx="522" cy="356.4453" fill="none" rx="3" ry="3" style="stroke:#038048;stroke-width:1.0;"/><text fill="#000000" font-family="sans-serif" font-size="14" lengthAdjust="spacing" textLength="87" x="531" y="359.792">users: User[]</text><line style="stroke:#181818;stroke-width:0.5;" x1="512" x2="668" y1="367.0938" y2="367.0938"/></g><!--class SurveyCourse--><g id="elem_SurveyCourse"><rect codeLine="56" fill="#F1F1F1" height="80.5938" id="SurveyCourse" rx="2.5" ry="2.5" style="stroke:#181818;stroke-width:0.5;" width="158" x="704" y="294.5"/><ellipse cx="731.15" cy="310.5" fill="#B4A7E5" rx="11" ry="11" style="stroke:#181818;stroke-width:1.0;"/><path d="M732.1031,307.2813 L733.8219,307.2813 C734.2125,307.2813 734.4,307.25 734.525,307.1719 C734.7906,307.0156 734.9313,306.7344 734.9313,306.4375 C734.9313,306.1719 734.8219,305.9063 734.5875,305.7344 C734.4156,305.625 734.275,305.5938 733.8219,305.5938 L728.6813,305.5938 C728.2438,305.5938 728.1188,305.6094 727.9625,305.7031 C727.7125,305.8594 727.5563,306.1563 727.5563,306.4375 C727.5563,306.7188 727.6969,306.9688 727.9156,307.1406 C728.0719,307.25 728.2594,307.2813 728.6813,307.2813 L730.4,307.2813 L730.4,313.7969 L728.6813,313.7969 C728.2438,313.7969 728.1188,313.8125 727.9625,313.9219 C727.7125,314.0781 727.5563,314.3594 727.5563,314.6563 C727.5563,314.9063 727.6969,315.1719 727.9156,315.3281 C728.0719,315.4531 728.275,315.5 728.6813,315.5 L733.8219,315.5 C734.5719,315.5 734.9313,315.2188 734.9313,314.6563 C734.9313,314.375 734.8219,314.125 734.5875,313.9531 C734.4156,313.8281 734.275,313.7969 733.8219,313.7969 L732.1031,313.7969 L732.1031,307.2813 Z " fill="#000000"/><text fill="#000000" font-family="sans-serif" font-size="14" font-style="italic" lengthAdjust="spacing" textLength="99" x="747.85" y="315.3467">SurveyCourse</text><line style="stroke:#181818;stroke-width:0.5;" x1="705" x2="861" y1="326.5" y2="326.5"/><ellipse cx="715" cy="340.1484" fill="none" rx="3" ry="3" style="stroke:#038048;stroke-width:1.0;"/><text fill="#000000" font-family="sans-serif" font-size="14" lengthAdjust="spacing" textLength="132" x="724" y="343.4951">course_id: number</text><ellipse cx="715" cy="356.4453" fill="none" rx="3" ry="3" style="stroke:#038048;stroke-width:1.0;"/><text fill="#000000" font-family="sans-serif" font-size="14" lengthAdjust="spacing" textLength="120" x="724" y="359.792">surveys: Survey[]</text><line style="stroke:#181818;stroke-width:0.5;" x1="705" x2="861" y1="367.0938" y2="367.0938"/></g><!--class QuestionCourse--><g id="elem_QuestionCourse"><rect codeLine="60" fill="#F1F1F1" height="80.5938" id="QuestionCourse" rx="2.5" ry="2.5" style="stroke:#181818;stroke-width:0.5;" width="178" x="897" y="294.5"/><ellipse cx="926.85" cy="310.5" fill="#B4A7E5" rx="11" ry="11" style="stroke:#181818;stroke-width:1.0;"/><path d="M927.8031,307.2813 L929.5219,307.2813 C929.9125,307.2813 930.1,307.25 930.225,307.1719 C930.4906,307.0156 930.6313,306.7344 930.6313,306.4375 C930.6313,306.1719 930.5219,305.9063 930.2875,305.7344 C930.1156,305.625 929.975,305.5938 929.5219,305.5938 L924.3813,305.5938 C923.9438,305.5938 923.8188,305.6094 923.6625,305.7031 C923.4125,305.8594 923.2563,306.1563 923.2563,306.4375 C923.2563,306.7188 923.3969,306.9688 923.6156,307.1406 C923.7719,307.25 923.9594,307.2813 924.3813,307.2813 L926.1,307.2813 L926.1,313.7969 L924.3813,313.7969 C923.9438,313.7969 923.8188,313.8125 923.6625,313.9219 C923.4125,314.0781 923.2563,314.3594 923.2563,314.6563 C923.2563,314.9063 923.3969,315.1719 923.6156,315.3281 C923.7719,315.4531 923.975,315.5 924.3813,315.5 L929.5219,315.5 C930.2719,315.5 930.6313,315.2188 930.6313,314.6563 C930.6313,314.375 930.5219,314.125 930.2875,313.9531 C930.1156,313.8281 929.975,313.7969 929.5219,313.7969 L927.8031,313.7969 L927.8031,307.2813 Z " fill="#000000"/><text fill="#000000" font-family="sans-serif" font-size="14" font-style="italic" lengthAdjust="spacing" textLength="113" x="944.15" y="315.3467">QuestionCourse</text><line style="stroke:#181818;stroke-width:0.5;" x1="898" x2="1074" y1="326.5" y2="326.5"/><ellipse cx="908" cy="340.1484" fill="none" rx="3" ry="3" style="stroke:#038048;stroke-width:1.0;"/><text fill="#000000" font-family="sans-serif" font-size="14" lengthAdjust="spacing" textLength="132" x="917" y="343.4951">course_id: number</text><ellipse cx="908" cy="356.4453" fill="none" rx="3" ry="3" style="stroke:#038048;stroke-width:1.0;"/><text fill="#000000" font-family="sans-serif" font-size="14" lengthAdjust="spacing" textLength="152" x="917" y="359.792">questions: Question[]</text><line style="stroke:#181818;stroke-width:0.5;" x1="898" x2="1074" y1="367.0938" y2="367.0938"/></g><!--class Game--><g id="elem_Game"><rect codeLine="64" fill="#F1F1F1" height="243.5625" id="Game" rx="2.5" ry="2.5" style="stroke:#181818;stroke-width:0.5;" width="245" x="21.5" y="468"/><ellipse cx="118.75" cy="484" fill="#ADD1B2" rx="11" ry="11" style="stroke:#181818;stroke-width:1.0;"/><path d="M121.0938,479.6719 C120.1563,479.2344 119.5625,479.0938 118.6875,479.0938 C116.0625,479.0938 114.0625,481.1719 114.0625,483.8906 L114.0625,485.0156 C114.0625,487.5938 116.1719,489.4844 119.0625,489.4844 C120.2813,489.4844 121.4375,489.1875 122.1875,488.6406 C122.7656,488.2344 123.0938,487.7813 123.0938,487.3906 C123.0938,486.9375 122.7031,486.5469 122.2344,486.5469 C122.0156,486.5469 121.8125,486.625 121.625,486.8125 C121.1719,487.2969 121.1719,487.2969 120.9844,487.3906 C120.5625,487.6563 119.875,487.7813 119.1094,487.7813 C117.0625,487.7813 115.7656,486.6875 115.7656,484.9844 L115.7656,483.8906 C115.7656,482.1094 117.0156,480.7969 118.75,480.7969 C119.3281,480.7969 119.9375,480.9531 120.4063,481.2031 C120.8906,481.4844 121.0625,481.7031 121.1563,482.1094 C121.2188,482.5156 121.25,482.6406 121.3906,482.7656 C121.5313,482.9063 121.7656,483.0156 121.9844,483.0156 C122.25,483.0156 122.5156,482.875 122.6875,482.6563 C122.7969,482.5 122.8281,482.3125 122.8281,481.8906 L122.8281,480.4688 C122.8281,480.0313 122.8125,479.9063 122.7188,479.75 C122.5625,479.4844 122.2813,479.3438 121.9844,479.3438 C121.6875,479.3438 121.4844,479.4375 121.2656,479.75 L121.0938,479.6719 Z " fill="#000000"/><text fill="#000000" font-family="sans-serif" font-size="14" lengthAdjust="spacing" textLength="42" x="139.25" y="488.8467">Game</text><line style="stroke:#181818;stroke-width:0.5;" x1="22.5" x2="265.5" y1="500" y2="500"/><ellipse cx="32.5" cy="513.6484" fill="none" rx="3" ry="3" style="stroke:#038048;stroke-width:1.0;"/><text fill="#000000" font-family="sans-serif" font-size="14" lengthAdjust="spacing" textLength="85" x="41.5" y="516.9951">id?: number</text><ellipse cx="32.5" cy="529.9453" fill="none" rx="3" ry="3" style="stroke:#038048;stroke-width:1.0;"/><text fill="#000000" font-family="sans-serif" font-size="14" lengthAdjust="spacing" textLength="117" x="41.5" y="533.292">host_id: number</text><ellipse cx="32.5" cy="546.2422" fill="none" rx="3" ry="3" style="stroke:#038048;stroke-width:1.0;"/><text fill="#000000" font-family="sans-serif" font-size="14" lengthAdjust="spacing" textLength="131" x="41.5" y="549.5889">survey_id: number</text><ellipse cx="32.5" cy="562.5391" fill="none" rx="3" ry="3" style="stroke:#038048;stroke-width:1.0;"/><text fill="#000000" font-family="sans-serif" font-size="14" lengthAdjust="spacing" textLength="121" x="41.5" y="565.8857">type: GameType</text><ellipse cx="32.5" cy="578.8359" fill="none" rx="3" ry="3" style="stroke:#038048;stroke-width:1.0;"/><text fill="#000000" font-family="sans-serif" font-size="14" lengthAdjust="spacing" textLength="129" x="41.5" y="582.1826">state: GameState</text><ellipse cx="32.5" cy="595.1328" fill="none" rx="3" ry="3" style="stroke:#038048;stroke-width:1.0;"/><text fill="#000000" font-family="sans-serif" font-size="14" lengthAdjust="spacing" textLength="219" x="41.5" y="598.4795">are_questions_visible: boolean</text><ellipse cx="32.5" cy="611.4297" fill="none" rx="3" ry="3" style="stroke:#038048;stroke-width:1.0;"/><text fill="#000000" font-family="sans-serif" font-size="14" lengthAdjust="spacing" textLength="170" x="41.5" y="614.7764">point_type: PointsType</text><ellipse cx="32.5" cy="627.7266" fill="none" rx="3" ry="3" style="stroke:#038048;stroke-width:1.0;"/><text fill="#000000" font-family="sans-serif" font-size="14" lengthAdjust="spacing" textLength="132" x="41.5" y="631.0732">course_id: number</text><ellipse cx="32.5" cy="644.0234" fill="none" rx="3" ry="3" style="stroke:#038048;stroke-width:1.0;"/><text fill="#000000" font-family="sans-serif" font-size="14" lengthAdjust="spacing" textLength="112" x="41.5" y="647.3701">course?: Course</text><ellipse cx="32.5" cy="660.3203" fill="none" rx="3" ry="3" style="stroke:#038048;stroke-width:1.0;"/><text fill="#000000" font-family="sans-serif" font-size="14" lengthAdjust="spacing" textLength="77" x="41.5" y="663.667">user?: User</text><ellipse cx="32.5" cy="676.6172" fill="none" rx="3" ry="3" style="stroke:#038048;stroke-width:1.0;"/><text fill="#000000" font-family="sans-serif" font-size="14" lengthAdjust="spacing" textLength="110" x="41.5" y="679.9639">survey?: Survey</text><ellipse cx="32.5" cy="692.9141" fill="none" rx="3" ry="3" style="stroke:#038048;stroke-width:1.0;"/><text fill="#000000" font-family="sans-serif" font-size="14" lengthAdjust="spacing" textLength="136" x="41.5" y="696.2607">created_at?: string</text><line style="stroke:#181818;stroke-width:0.5;" x1="22.5" x2="265.5" y1="703.5625" y2="703.5625"/></g><!--class GameType--><g id="elem_GameType"><rect codeLine="78" fill="#F1F1F1" height="80.5938" id="GameType" rx="2.5" ry="2.5" style="stroke:#181818;stroke-width:0.5;" width="110" x="302" y="549.5"/><ellipse cx="317" cy="565.5" fill="#EB937F" rx="11" ry="11" style="stroke:#181818;stroke-width:1.0;"/><path d="M315.7969,566.375 L317.25,566.375 L317.25,566.4844 C317.25,566.8906 317.2813,567.0469 317.3594,567.2031 C317.5156,567.4531 317.7969,567.6094 318.0938,567.6094 C318.3438,567.6094 318.6094,567.4688 318.7656,567.25 C318.8906,567.0938 318.9219,566.9375 318.9219,566.4844 L318.9219,564.5625 C318.9219,564.4063 318.9219,564.3594 318.9063,564.2031 C318.8438,563.7344 318.5313,563.4219 318.0781,563.4219 C317.8281,563.4219 317.5625,563.5625 317.3906,563.7813 C317.2813,563.9531 317.25,564.1094 317.25,564.5625 L317.25,564.6875 L315.7969,564.6875 L315.7969,562.2813 L319.7813,562.2813 L319.7813,563.1406 C319.7813,563.5469 319.8125,563.7188 319.8906,563.875 C320.0625,564.125 320.3438,564.2813 320.625,564.2813 C320.8906,564.2813 321.1563,564.1406 321.3281,563.9219 C321.4375,563.75 321.4688,563.6094 321.4688,563.1406 L321.4688,560.5938 L313.8438,560.5938 C313.4063,560.5938 313.2813,560.6094 313.125,560.7031 C312.875,560.8594 312.7188,561.1563 312.7188,561.4375 C312.7188,561.7188 312.8594,561.9688 313.0781,562.1406 C313.2344,562.25 313.4219,562.2813 313.8438,562.2813 L314.0938,562.2813 L314.0938,568.7969 L313.8438,568.7969 C313.4375,568.7969 313.2813,568.8125 313.125,568.9219 C312.875,569.0938 312.7188,569.3594 312.7188,569.6563 C312.7188,569.9219 312.8594,570.1719 313.0781,570.3281 C313.2188,570.4531 313.4531,570.5 313.8438,570.5 L321.8438,570.5 L321.8438,567.9219 C321.8438,567.4844 321.8125,567.3438 321.7344,567.1875 C321.5625,566.9375 321.2813,566.7813 321,566.7813 C320.7344,566.7813 320.4688,566.8906 320.2969,567.1406 C320.1875,567.2969 320.1563,567.4375 320.1563,567.9219 L320.1563,568.7969 L315.7969,568.7969 L315.7969,566.375 Z " fill="#000000"/><text fill="#000000" font-family="sans-serif" font-size="14" lengthAdjust="spacing" textLength="78" x="331" y="570.3467">GameType</text><line style="stroke:#181818;stroke-width:0.5;" x1="303" x2="411" y1="581.5" y2="581.5"/><text fill="#000000" font-family="sans-serif" font-size="14" lengthAdjust="spacing" textLength="47" x="308" y="598.4951">offline</text><text fill="#000000" font-family="sans-serif" font-size="14" lengthAdjust="spacing" textLength="44" x="308" y="614.792">online</text><line style="stroke:#181818;stroke-width:0.5;" x1="303" x2="411" y1="622.0938" y2="622.0938"/></g><!--class GameState--><g id="elem_GameState"><rect codeLine="82" fill="#F1F1F1" height="96.8906" id="GameState" rx="2.5" ry="2.5" style="stroke:#181818;stroke-width:0.5;" width="114" x="447" y="541.5"/><ellipse cx="462" cy="557.5" fill="#EB937F" rx="11" ry="11" style="stroke:#181818;stroke-width:1.0;"/><path d="M460.7969,558.375 L462.25,558.375 L462.25,558.4844 C462.25,558.8906 462.2813,559.0469 462.3594,559.2031 C462.5156,559.4531 462.7969,559.6094 463.0938,559.6094 C463.3438,559.6094 463.6094,559.4688 463.7656,559.25 C463.8906,559.0938 463.9219,558.9375 463.9219,558.4844 L463.9219,556.5625 C463.9219,556.4063 463.9219,556.3594 463.9063,556.2031 C463.8438,555.7344 463.5313,555.4219 463.0781,555.4219 C462.8281,555.4219 462.5625,555.5625 462.3906,555.7813 C462.2813,555.9531 462.25,556.1094 462.25,556.5625 L462.25,556.6875 L460.7969,556.6875 L460.7969,554.2813 L464.7813,554.2813 L464.7813,555.1406 C464.7813,555.5469 464.8125,555.7188 464.8906,555.875 C465.0625,556.125 465.3438,556.2813 465.625,556.2813 C465.8906,556.2813 466.1563,556.1406 466.3281,555.9219 C466.4375,555.75 466.4688,555.6094 466.4688,555.1406 L466.4688,552.5938 L458.8438,552.5938 C458.4063,552.5938 458.2813,552.6094 458.125,552.7031 C457.875,552.8594 457.7188,553.1563 457.7188,553.4375 C457.7188,553.7188 457.8594,553.9688 458.0781,554.1406 C458.2344,554.25 458.4219,554.2813 458.8438,554.2813 L459.0938,554.2813 L459.0938,560.7969 L458.8438,560.7969 C458.4375,560.7969 458.2813,560.8125 458.125,560.9219 C457.875,561.0938 457.7188,561.3594 457.7188,561.6563 C457.7188,561.9219 457.8594,562.1719 458.0781,562.3281 C458.2188,562.4531 458.4531,562.5 458.8438,562.5 L466.8438,562.5 L466.8438,559.9219 C466.8438,559.4844 466.8125,559.3438 466.7344,559.1875 C466.5625,558.9375 466.2813,558.7813 466,558.7813 C465.7344,558.7813 465.4688,558.8906 465.2969,559.1406 C465.1875,559.2969 465.1563,559.4375 465.1563,559.9219 L465.1563,560.7969 L460.7969,560.7969 L460.7969,558.375 Z " fill="#000000"/><text fill="#000000" font-family="sans-serif" font-size="14" lengthAdjust="spacing" textLength="82" x="476" y="562.3467">GameState</text><line style="stroke:#181818;stroke-width:0.5;" x1="448" x2="560" y1="573.5" y2="573.5"/><text fill="#000000" font-family="sans-serif" font-size="14" lengthAdjust="spacing" textLength="56" x="453" y="590.4951">created</text><text fill="#000000" font-family="sans-serif" font-size="14" lengthAdjust="spacing" textLength="53" x="453" y="606.792">started</text><text fill="#000000" font-family="sans-serif" font-size="14" lengthAdjust="spacing" textLength="46" x="453" y="623.0889">closed</text><line style="stroke:#181818;stroke-width:0.5;" x1="448" x2="560" y1="630.3906" y2="630.3906"/></g><!--class PointsType--><g id="elem_PointsType"><rect codeLine="87" fill="#F1F1F1" height="96.8906" id="PointsType" rx="2.5" ry="2.5" style="stroke:#181818;stroke-width:0.5;" width="113" x="596.5" y="541.5"/><ellipse cx="611.5" cy="557.5" fill="#EB937F" rx="11" ry="11" style="stroke:#181818;stroke-width:1.0;"/><path d="M610.2969,558.375 L611.75,558.375 L611.75,558.4844 C611.75,558.8906 611.7813,559.0469 611.8594,559.2031 C612.0156,559.4531 612.2969,559.6094 612.5938,559.6094 C612.8438,559.6094 613.1094,559.4688 613.2656,559.25 C613.3906,559.0938 613.4219,558.9375 613.4219,558.4844 L613.4219,556.5625 C613.4219,556.4063 613.4219,556.3594 613.4063,556.2031 C613.3438,555.7344 613.0313,555.4219 612.5781,555.4219 C612.3281,555.4219 612.0625,555.5625 611.8906,555.7813 C611.7813,555.9531 611.75,556.1094 611.75,556.5625 L611.75,556.6875 L610.2969,556.6875 L610.2969,554.2813 L614.2813,554.2813 L614.2813,555.1406 C614.2813,555.5469 614.3125,555.7188 614.3906,555.875 C614.5625,556.125 614.8438,556.2813 615.125,556.2813 C615.3906,556.2813 615.6563,556.1406 615.8281,555.9219 C615.9375,555.75 615.9688,555.6094 615.9688,555.1406 L615.9688,552.5938 L608.3438,552.5938 C607.9063,552.5938 607.7813,552.6094 607.625,552.7031 C607.375,552.8594 607.2188,553.1563 607.2188,553.4375 C607.2188,553.7188 607.3594,553.9688 607.5781,554.1406 C607.7344,554.25 607.9219,554.2813 608.3438,554.2813 L608.5938,554.2813 L608.5938,560.7969 L608.3438,560.7969 C607.9375,560.7969 607.7813,560.8125 607.625,560.9219 C607.375,561.0938 607.2188,561.3594 607.2188,561.6563 C607.2188,561.9219 607.3594,562.1719 607.5781,562.3281 C607.7188,562.4531 607.9531,562.5 608.3438,562.5 L616.3438,562.5 L616.3438,559.9219 C616.3438,559.4844 616.3125,559.3438 616.2344,559.1875 C616.0625,558.9375 615.7813,558.7813 615.5,558.7813 C615.2344,558.7813 614.9688,558.8906 614.7969,559.1406 C614.6875,559.2969 614.6563,559.4375 614.6563,559.9219 L614.6563,560.7969 L610.2969,560.7969 L610.2969,558.375 Z " fill="#000000"/><text fill="#000000" font-family="sans-serif" font-size="14" lengthAdjust="spacing" textLength="81" x="625.5" y="562.3467">PointsType</text><line style="stroke:#181818;stroke-width:0.5;" x1="597.5" x2="708.5" y1="573.5" y2="573.5"/><text fill="#000000" font-family="sans-serif" font-size="14" lengthAdjust="spacing" textLength="63" x="602.5" y="590.4951">standard</text><text fill="#000000" font-family="sans-serif" font-size="14" lengthAdjust="spacing" textLength="49" x="602.5" y="606.792">double</text><text fill="#000000" font-family="sans-serif" font-size="14" lengthAdjust="spacing" textLength="71" x="602.5" y="623.0889">no_points</text><line style="stroke:#181818;stroke-width:0.5;" x1="597.5" x2="708.5" y1="630.3906" y2="630.3906"/></g><!--class GameSession--><g id="elem_GameSession"><rect codeLine="92" fill="#F1F1F1" height="145.7813" id="GameSession" rx="2.5" ry="2.5" style="stroke:#181818;stroke-width:0.5;" width="209" x="744.5" y="517"/><ellipse cx="796.25" cy="533" fill="#B4A7E5" rx="11" ry="11" style="stroke:#181818;stroke-width:1.0;"/><path d="M797.2031,529.7813 L798.9219,529.7813 C799.3125,529.7813 799.5,529.75 799.625,529.6719 C799.8906,529.5156 800.0313,529.2344 800.0313,528.9375 C800.0313,528.6719 799.9219,528.4063 799.6875,528.2344 C799.5156,528.125 799.375,528.0938 798.9219,528.0938 L793.7813,528.0938 C793.3438,528.0938 793.2188,528.1094 793.0625,528.2031 C792.8125,528.3594 792.6563,528.6563 792.6563,528.9375 C792.6563,529.2188 792.7969,529.4688 793.0156,529.6406 C793.1719,529.75 793.3594,529.7813 793.7813,529.7813 L795.5,529.7813 L795.5,536.2969 L793.7813,536.2969 C793.3438,536.2969 793.2188,536.3125 793.0625,536.4219 C792.8125,536.5781 792.6563,536.8594 792.6563,537.1563 C792.6563,537.4063 792.7969,537.6719 793.0156,537.8281 C793.1719,537.9531 793.375,538 793.7813,538 L798.9219,538 C799.6719,538 800.0313,537.7188 800.0313,537.1563 C800.0313,536.875 799.9219,536.625 799.6875,536.4531 C799.5156,536.3281 799.375,536.2969 798.9219,536.2969 L797.2031,536.2969 L797.2031,529.7813 Z " fill="#000000"/><text fill="#000000" font-family="sans-serif" font-size="14" font-style="italic" lengthAdjust="spacing" textLength="97" x="816.75" y="537.8467">GameSession</text><line style="stroke:#181818;stroke-width:0.5;" x1="745.5" x2="952.5" y1="549" y2="549"/><ellipse cx="755.5" cy="562.6484" fill="none" rx="3" ry="3" style="stroke:#038048;stroke-width:1.0;"/><text fill="#000000" font-family="sans-serif" font-size="14" lengthAdjust="spacing" textLength="91" x="764.5" y="565.9951">game: Game</text><ellipse cx="755.5" cy="578.9453" fill="none" rx="3" ry="3" style="stroke:#038048;stroke-width:1.0;"/><text fill="#000000" font-family="sans-serif" font-size="14" lengthAdjust="spacing" textLength="87" x="764.5" y="582.292">users: User[]</text><ellipse cx="755.5" cy="595.2422" fill="none" rx="3" ry="3" style="stroke:#038048;stroke-width:1.0;"/><text fill="#000000" font-family="sans-serif" font-size="14" lengthAdjust="spacing" textLength="183" x="764.5" y="598.5889">state: GameSessionState</text><ellipse cx="755.5" cy="611.5391" fill="none" rx="3" ry="3" style="stroke:#038048;stroke-width:1.0;"/><text fill="#000000" font-family="sans-serif" font-size="14" lengthAdjust="spacing" textLength="174" x="764.5" y="614.8857">question_list: Question[]</text><ellipse cx="755.5" cy="627.8359" fill="none" rx="3" ry="3" style="stroke:#038048;stroke-width:1.0;"/><text fill="#000000" font-family="sans-serif" font-size="14" lengthAdjust="spacing" textLength="173" x="764.5" y="631.1826">question_index: number</text><ellipse cx="755.5" cy="644.1328" fill="none" rx="3" ry="3" style="stroke:#038048;stroke-width:1.0;"/><text fill="#000000" font-family="sans-serif" font-size="14" lengthAdjust="spacing" textLength="180" x="764.5" y="647.4795">user_results: UserResult[]</text><line style="stroke:#181818;stroke-width:0.5;" x1="745.5" x2="952.5" y1="654.7813" y2="654.7813"/></g><!--class GameSessionState--><g id="elem_GameSessionState"><rect codeLine="100" fill="#F1F1F1" height="145.7813" id="GameSessionState" rx="2.5" ry="2.5" style="stroke:#181818;stroke-width:0.5;" width="172" x="58" y="772"/><ellipse cx="74.8" cy="788" fill="#EB937F" rx="11" ry="11" style="stroke:#181818;stroke-width:1.0;"/><path d="M73.5969,788.875 L75.05,788.875 L75.05,788.9844 C75.05,789.3906 75.0813,789.5469 75.1594,789.7031 C75.3156,789.9531 75.5969,790.1094 75.8938,790.1094 C76.1438,790.1094 76.4094,789.9688 76.5656,789.75 C76.6906,789.5938 76.7219,789.4375 76.7219,788.9844 L76.7219,787.0625 C76.7219,786.9063 76.7219,786.8594 76.7063,786.7031 C76.6438,786.2344 76.3313,785.9219 75.8781,785.9219 C75.6281,785.9219 75.3625,786.0625 75.1906,786.2813 C75.0813,786.4531 75.05,786.6094 75.05,787.0625 L75.05,787.1875 L73.5969,787.1875 L73.5969,784.7813 L77.5813,784.7813 L77.5813,785.6406 C77.5813,786.0469 77.6125,786.2188 77.6906,786.375 C77.8625,786.625 78.1438,786.7813 78.425,786.7813 C78.6906,786.7813 78.9563,786.6406 79.1281,786.4219 C79.2375,786.25 79.2688,786.1094 79.2688,785.6406 L79.2688,783.0938 L71.6438,783.0938 C71.2063,783.0938 71.0813,783.1094 70.925,783.2031 C70.675,783.3594 70.5188,783.6563 70.5188,783.9375 C70.5188,784.2188 70.6594,784.4688 70.8781,784.6406 C71.0344,784.75 71.2219,784.7813 71.6438,784.7813 L71.8938,784.7813 L71.8938,791.2969 L71.6438,791.2969 C71.2375,791.2969 71.0813,791.3125 70.925,791.4219 C70.675,791.5938 70.5188,791.8594 70.5188,792.1563 C70.5188,792.4219 70.6594,792.6719 70.8781,792.8281 C71.0188,792.9531 71.2531,793 71.6438,793 L79.6438,793 L79.6438,790.4219 C79.6438,789.9844 79.6125,789.8438 79.5344,789.6875 C79.3625,789.4375 79.0813,789.2813 78.8,789.2813 C78.5344,789.2813 78.2688,789.3906 78.0969,789.6406 C77.9875,789.7969 77.9563,789.9375 77.9563,790.4219 L77.9563,791.2969 L73.5969,791.2969 L73.5969,788.875 Z " fill="#000000"/><text fill="#000000" font-family="sans-serif" font-size="14" lengthAdjust="spacing" textLength="136" x="89.2" y="792.8467">GameSessionState</text><line style="stroke:#181818;stroke-width:0.5;" x1="59" x2="229" y1="804" y2="804"/><text fill="#000000" font-family="sans-serif" font-size="14" lengthAdjust="spacing" textLength="85" x="64" y="820.9951">not_started</text><text fill="#000000" font-family="sans-serif" font-size="14" lengthAdjust="spacing" textLength="160" x="64" y="837.292">is_leaderboard_screen</text><text fill="#000000" font-family="sans-serif" font-size="14" lengthAdjust="spacing" textLength="130" x="64" y="853.5889">is_preview_screen</text><text fill="#000000" font-family="sans-serif" font-size="14" lengthAdjust="spacing" textLength="135" x="64" y="869.8857">is_question_screen</text><text fill="#000000" font-family="sans-serif" font-size="14" lengthAdjust="spacing" textLength="128" x="64" y="886.1826">is_question_result</text><text fill="#000000" font-family="sans-serif" font-size="14" lengthAdjust="spacing" textLength="75" x="64" y="902.4795">is_finished</text><line style="stroke:#181818;stroke-width:0.5;" x1="59" x2="229" y1="909.7813" y2="909.7813"/></g><!--class User--><g id="elem_User"><rect codeLine="108" fill="#F1F1F1" height="145.7813" id="User" rx="2.5" ry="2.5" style="stroke:#181818;stroke-width:0.5;" width="151" x="265.5" y="772"/><ellipse cx="321.25" cy="788" fill="#ADD1B2" rx="11" ry="11" style="stroke:#181818;stroke-width:1.0;"/><path d="M323.5938,783.6719 C322.6563,783.2344 322.0625,783.0938 321.1875,783.0938 C318.5625,783.0938 316.5625,785.1719 316.5625,787.8906 L316.5625,789.0156 C316.5625,791.5938 318.6719,793.4844 321.5625,793.4844 C322.7813,793.4844 323.9375,793.1875 324.6875,792.6406 C325.2656,792.2344 325.5938,791.7813 325.5938,791.3906 C325.5938,790.9375 325.2031,790.5469 324.7344,790.5469 C324.5156,790.5469 324.3125,790.625 324.125,790.8125 C323.6719,791.2969 323.6719,791.2969 323.4844,791.3906 C323.0625,791.6563 322.375,791.7813 321.6094,791.7813 C319.5625,791.7813 318.2656,790.6875 318.2656,788.9844 L318.2656,787.8906 C318.2656,786.1094 319.5156,784.7969 321.25,784.7969 C321.8281,784.7969 322.4375,784.9531 322.9063,785.2031 C323.3906,785.4844 323.5625,785.7031 323.6563,786.1094 C323.7188,786.5156 323.75,786.6406 323.8906,786.7656 C324.0313,786.9063 324.2656,787.0156 324.4844,787.0156 C324.75,787.0156 325.0156,786.875 325.1875,786.6563 C325.2969,786.5 325.3281,786.3125 325.3281,785.8906 L325.3281,784.4688 C325.3281,784.0313 325.3125,783.9063 325.2188,783.75 C325.0625,783.4844 324.7813,783.3438 324.4844,783.3438 C324.1875,783.3438 323.9844,783.4375 323.7656,783.75 L323.5938,783.6719 Z " fill="#000000"/><text fill="#000000" font-family="sans-serif" font-size="14" lengthAdjust="spacing" textLength="31" x="341.75" y="792.8467">User</text><line style="stroke:#181818;stroke-width:0.5;" x1="266.5" x2="415.5" y1="804" y2="804"/><ellipse cx="276.5" cy="817.6484" fill="none" rx="3" ry="3" style="stroke:#038048;stroke-width:1.0;"/><text fill="#000000" font-family="sans-serif" font-size="14" lengthAdjust="spacing" textLength="78" x="285.5" y="820.9951">id: number</text><ellipse cx="276.5" cy="833.9453" fill="none" rx="3" ry="3" style="stroke:#038048;stroke-width:1.0;"/><text fill="#000000" font-family="sans-serif" font-size="14" lengthAdjust="spacing" textLength="121" x="285.5" y="837.292">username: string</text><ellipse cx="276.5" cy="850.2422" fill="none" rx="3" ry="3" style="stroke:#038048;stroke-width:1.0;"/><text fill="#000000" font-family="sans-serif" font-size="14" lengthAdjust="spacing" textLength="125" x="285.5" y="853.5889">password?: string</text><ellipse cx="276.5" cy="866.5391" fill="none" rx="3" ry="3" style="stroke:#038048;stroke-width:1.0;"/><text fill="#000000" font-family="sans-serif" font-size="14" lengthAdjust="spacing" textLength="79" x="285.5" y="869.8857">role: string</text><ellipse cx="276.5" cy="882.8359" fill="none" rx="3" ry="3" style="stroke:#038048;stroke-width:1.0;"/><text fill="#000000" font-family="sans-serif" font-size="14" lengthAdjust="spacing" textLength="112" x="285.5" y="886.1826">roleType?: Role</text><ellipse cx="276.5" cy="899.1328" fill="none" rx="3" ry="3" style="stroke:#038048;stroke-width:1.0;"/><text fill="#000000" font-family="sans-serif" font-size="14" lengthAdjust="spacing" textLength="101" x="285.5" y="902.4795">token?: string</text><line style="stroke:#181818;stroke-width:0.5;" x1="266.5" x2="415.5" y1="909.7813" y2="909.7813"/></g><!--class Token--><g id="elem_Token"><rect codeLine="116" fill="#F1F1F1" height="64.2969" id="Token" rx="2.5" ry="2.5" style="stroke:#181818;stroke-width:0.5;" width="120" x="452" y="813"/><ellipse cx="486.8" cy="829" fill="#B4A7E5" rx="11" ry="11" style="stroke:#181818;stroke-width:1.0;"/><path d="M487.7531,825.7813 L489.4719,825.7813 C489.8625,825.7813 490.05,825.75 490.175,825.6719 C490.4406,825.5156 490.5813,825.2344 490.5813,824.9375 C490.5813,824.6719 490.4719,824.4063 490.2375,824.2344 C490.0656,824.125 489.925,824.0938 489.4719,824.0938 L484.3313,824.0938 C483.8938,824.0938 483.7688,824.1094 483.6125,824.2031 C483.3625,824.3594 483.2063,824.6563 483.2063,824.9375 C483.2063,825.2188 483.3469,825.4688 483.5656,825.6406 C483.7219,825.75 483.9094,825.7813 484.3313,825.7813 L486.05,825.7813 L486.05,832.2969 L484.3313,832.2969 C483.8938,832.2969 483.7688,832.3125 483.6125,832.4219 C483.3625,832.5781 483.2063,832.8594 483.2063,833.1563 C483.2063,833.4063 483.3469,833.6719 483.5656,833.8281 C483.7219,833.9531 483.925,834 484.3313,834 L489.4719,834 C490.2219,834 490.5813,833.7188 490.5813,833.1563 C490.5813,832.875 490.4719,832.625 490.2375,832.4531 C490.0656,832.3281 489.925,832.2969 489.4719,832.2969 L487.7531,832.2969 L487.7531,825.7813 Z " fill="#000000"/><text fill="#000000" font-family="sans-serif" font-size="14" font-style="italic" lengthAdjust="spacing" textLength="44" x="505.2" y="833.8467">Token</text><line style="stroke:#181818;stroke-width:0.5;" x1="453" x2="571" y1="845" y2="845"/><ellipse cx="463" cy="858.6484" fill="none" rx="3" ry="3" style="stroke:#038048;stroke-width:1.0;"/><text fill="#000000" font-family="sans-serif" font-size="14" lengthAdjust="spacing" textLength="94" x="472" y="861.9951">token: string</text><line style="stroke:#181818;stroke-width:0.5;" x1="453" x2="571" y1="869.2969" y2="869.2969"/></g><!--class UserToken--><g id="elem_UserToken"><rect codeLine="119" fill="#F1F1F1" height="80.5938" id="UserToken" rx="2.5" ry="2.5" style="stroke:#181818;stroke-width:0.5;" width="110" x="607" y="804.5"/><ellipse cx="622.9" cy="820.5" fill="#B4A7E5" rx="11" ry="11" style="stroke:#181818;stroke-width:1.0;"/><path d="M623.8531,817.2813 L625.5719,817.2813 C625.9625,817.2813 626.15,817.25 626.275,817.1719 C626.5406,817.0156 626.6813,816.7344 626.6813,816.4375 C626.6813,816.1719 626.5719,815.9063 626.3375,815.7344 C626.1656,815.625 626.025,815.5938 625.5719,815.5938 L620.4313,815.5938 C619.9938,815.5938 619.8688,815.6094 619.7125,815.7031 C619.4625,815.8594 619.3063,816.1563 619.3063,816.4375 C619.3063,816.7188 619.4469,816.9688 619.6656,817.1406 C619.8219,817.25 620.0094,817.2813 620.4313,817.2813 L622.15,817.2813 L622.15,823.7969 L620.4313,823.7969 C619.9938,823.7969 619.8688,823.8125 619.7125,823.9219 C619.4625,824.0781 619.3063,824.3594 619.3063,824.6563 C619.3063,824.9063 619.4469,825.1719 619.6656,825.3281 C619.8219,825.4531 620.025,825.5 620.4313,825.5 L625.5719,825.5 C626.3219,825.5 626.6813,825.2188 626.6813,824.6563 C626.6813,824.375 626.5719,824.125 626.3375,823.9531 C626.1656,823.8281 626.025,823.7969 625.5719,823.7969 L623.8531,823.7969 L623.8531,817.2813 Z " fill="#000000"/><text fill="#000000" font-family="sans-serif" font-size="14" font-style="italic" lengthAdjust="spacing" textLength="76" x="637.1" y="825.3467">UserToken</text><line style="stroke:#181818;stroke-width:0.5;" x1="608" x2="716" y1="836.5" y2="836.5"/><ellipse cx="618" cy="850.1484" fill="none" rx="3" ry="3" style="stroke:#038048;stroke-width:1.0;"/><text fill="#000000" font-family="sans-serif" font-size="14" lengthAdjust="spacing" textLength="84" x="627" y="853.4951">iat: number</text><ellipse cx="618" cy="866.4453" fill="none" rx="3" ry="3" style="stroke:#038048;stroke-width:1.0;"/><text fill="#000000" font-family="sans-serif" font-size="14" lengthAdjust="spacing" textLength="70" x="627" y="869.792">user: User</text><line style="stroke:#181818;stroke-width:0.5;" x1="608" x2="716" y1="877.0938" y2="877.0938"/></g><!--class Role--><g id="elem_Role"><rect codeLine="123" fill="#F1F1F1" height="96.8906" id="Role" rx="2.5" ry="2.5" style="stroke:#181818;stroke-width:0.5;" width="80" x="752" y="796.5"/><ellipse cx="774.2" cy="812.5" fill="#EB937F" rx="11" ry="11" style="stroke:#181818;stroke-width:1.0;"/><path d="M772.9969,813.375 L774.45,813.375 L774.45,813.4844 C774.45,813.8906 774.4813,814.0469 774.5594,814.2031 C774.7156,814.4531 774.9969,814.6094 775.2938,814.6094 C775.5438,814.6094 775.8094,814.4688 775.9656,814.25 C776.0906,814.0938 776.1219,813.9375 776.1219,813.4844 L776.1219,811.5625 C776.1219,811.4063 776.1219,811.3594 776.1063,811.2031 C776.0438,810.7344 775.7313,810.4219 775.2781,810.4219 C775.0281,810.4219 774.7625,810.5625 774.5906,810.7813 C774.4813,810.9531 774.45,811.1094 774.45,811.5625 L774.45,811.6875 L772.9969,811.6875 L772.9969,809.2813 L776.9813,809.2813 L776.9813,810.1406 C776.9813,810.5469 777.0125,810.7188 777.0906,810.875 C777.2625,811.125 777.5438,811.2813 777.825,811.2813 C778.0906,811.2813 778.3563,811.1406 778.5281,810.9219 C778.6375,810.75 778.6688,810.6094 778.6688,810.1406 L778.6688,807.5938 L771.0438,807.5938 C770.6063,807.5938 770.4813,807.6094 770.325,807.7031 C770.075,807.8594 769.9188,808.1563 769.9188,808.4375 C769.9188,808.7188 770.0594,808.9688 770.2781,809.1406 C770.4344,809.25 770.6219,809.2813 771.0438,809.2813 L771.2938,809.2813 L771.2938,815.7969 L771.0438,815.7969 C770.6375,815.7969 770.4813,815.8125 770.325,815.9219 C770.075,816.0938 769.9188,816.3594 769.9188,816.6563 C769.9188,816.9219 770.0594,817.1719 770.2781,817.3281 C770.4188,817.4531 770.6531,817.5 771.0438,817.5 L779.0438,817.5 L779.0438,814.9219 C779.0438,814.4844 779.0125,814.3438 778.9344,814.1875 C778.7625,813.9375 778.4813,813.7813 778.2,813.7813 C777.9344,813.7813 777.6688,813.8906 777.4969,814.1406 C777.3875,814.2969 777.3563,814.4375 777.3563,814.9219 L777.3563,815.7969 L772.9969,815.7969 L772.9969,813.375 Z " fill="#000000"/><text fill="#000000" font-family="sans-serif" font-size="14" lengthAdjust="spacing" textLength="32" x="789.8" y="817.3467">Role</text><line style="stroke:#181818;stroke-width:0.5;" x1="753" x2="831" y1="828.5" y2="828.5"/><text fill="#000000" font-family="sans-serif" font-size="14" lengthAdjust="spacing" textLength="58" x="758" y="845.4951">Student</text><text fill="#000000" font-family="sans-serif" font-size="14" lengthAdjust="spacing" textLength="68" x="758" y="861.792">Professor</text><text fill="#000000" font-family="sans-serif" font-size="14" lengthAdjust="spacing" textLength="46" x="758" y="878.0889">Admin</text><line style="stroke:#181818;stroke-width:0.5;" x1="753" x2="831" y1="885.3906" y2="885.3906"/></g><!--class UserResult--><g id="elem_UserResult"><rect codeLine="128" fill="#F1F1F1" height="194.6719" id="UserResult" rx="2.5" ry="2.5" style="stroke:#181818;stroke-width:0.5;" width="247" x="20.5" y="978"/><ellipse cx="101.75" cy="994" fill="#B4A7E5" rx="11" ry="11" style="stroke:#181818;stroke-width:1.0;"/><path d="M102.7031,990.7813 L104.4219,990.7813 C104.8125,990.7813 105,990.75 105.125,990.6719 C105.3906,990.5156 105.5313,990.2344 105.5313,989.9375 C105.5313,989.6719 105.4219,989.4063 105.1875,989.2344 C105.0156,989.125 104.875,989.0938 104.4219,989.0938 L99.2813,989.0938 C98.8438,989.0938 98.7188,989.1094 98.5625,989.2031 C98.3125,989.3594 98.1563,989.6563 98.1563,989.9375 C98.1563,990.2188 98.2969,990.4688 98.5156,990.6406 C98.6719,990.75 98.8594,990.7813 99.2813,990.7813 L101,990.7813 L101,997.2969 L99.2813,997.2969 C98.8438,997.2969 98.7188,997.3125 98.5625,997.4219 C98.3125,997.5781 98.1563,997.8594 98.1563,998.1563 C98.1563,998.4063 98.2969,998.6719 98.5156,998.8281 C98.6719,998.9531 98.875,999 99.2813,999 L104.4219,999 C105.1719,999 105.5313,998.7188 105.5313,998.1563 C105.5313,997.875 105.4219,997.625 105.1875,997.4531 C105.0156,997.3281 104.875,997.2969 104.4219,997.2969 L102.7031,997.2969 L102.7031,990.7813 Z " fill="#000000"/><text fill="#000000" font-family="sans-serif" font-size="14" font-style="italic" lengthAdjust="spacing" textLength="76" x="122.25" y="998.8467">UserResult</text><line style="stroke:#181818;stroke-width:0.5;" x1="21.5" x2="266.5" y1="1010" y2="1010"/><ellipse cx="31.5" cy="1023.6484" fill="none" rx="3" ry="3" style="stroke:#038048;stroke-width:1.0;"/><text fill="#000000" font-family="sans-serif" font-size="14" lengthAdjust="spacing" textLength="115" x="40.5" y="1026.9951">user_id: number</text><ellipse cx="31.5" cy="1039.9453" fill="none" rx="3" ry="3" style="stroke:#038048;stroke-width:1.0;"/><text fill="#000000" font-family="sans-serif" font-size="14" lengthAdjust="spacing" textLength="125" x="40.5" y="1043.292">game_id: number</text><ellipse cx="31.5" cy="1056.2422" fill="none" rx="3" ry="3" style="stroke:#038048;stroke-width:1.0;"/><text fill="#000000" font-family="sans-serif" font-size="14" lengthAdjust="spacing" textLength="98" x="40.5" y="1059.5889">game?: Game</text><ellipse cx="31.5" cy="1072.5391" fill="none" rx="3" ry="3" style="stroke:#038048;stroke-width:1.0;"/><text fill="#000000" font-family="sans-serif" font-size="14" lengthAdjust="spacing" textLength="221" x="40.5" y="1075.8857">answer_results: AnswerResult[]</text><ellipse cx="31.5" cy="1088.8359" fill="none" rx="3" ry="3" style="stroke:#038048;stroke-width:1.0;"/><text fill="#000000" font-family="sans-serif" font-size="14" lengthAdjust="spacing" textLength="104" x="40.5" y="1092.1826">score: number</text><ellipse cx="31.5" cy="1105.1328" fill="none" rx="3" ry="3" style="stroke:#038048;stroke-width:1.0;"/><text fill="#000000" font-family="sans-serif" font-size="14" lengthAdjust="spacing" textLength="201" x="40.5" y="1108.4795">correct_questions?: number</text><ellipse cx="31.5" cy="1121.4297" fill="none" rx="3" ry="3" style="stroke:#038048;stroke-width:1.0;"/><text fill="#000000" font-family="sans-serif" font-size="14" lengthAdjust="spacing" textLength="142" x="40.5" y="1124.7764">survey_title?: string</text><ellipse cx="31.5" cy="1137.7266" fill="none" rx="3" ry="3" style="stroke:#038048;stroke-width:1.0;"/><text fill="#000000" font-family="sans-serif" font-size="14" lengthAdjust="spacing" textLength="192" x="40.5" y="1141.0732">wrong_questions?: number</text><ellipse cx="31.5" cy="1154.0234" fill="none" rx="3" ry="3" style="stroke:#038048;stroke-width:1.0;"/><text fill="#000000" font-family="sans-serif" font-size="14" lengthAdjust="spacing" textLength="183" x="40.5" y="1157.3701">total_questions?: number</text><line style="stroke:#181818;stroke-width:0.5;" x1="21.5" x2="266.5" y1="1164.6719" y2="1164.6719"/></g><!--class ApiStudentService--><g id="elem_ApiStudentService"><rect codeLine="139" fill="#F1F1F1" height="178.375" id="ApiStudentService" rx="2.5" ry="2.5" style="stroke:#181818;stroke-width:0.5;" width="739" x="302.5" y="986.5"/><ellipse cx="600.25" cy="1002.5" fill="#ADD1B2" rx="11" ry="11" style="stroke:#181818;stroke-width:1.0;"/><path d="M602.5938,998.1719 C601.6563,997.7344 601.0625,997.5938 600.1875,997.5938 C597.5625,997.5938 595.5625,999.6719 595.5625,1002.3906 L595.5625,1003.5156 C595.5625,1006.0938 597.6719,1007.9844 600.5625,1007.9844 C601.7813,1007.9844 602.9375,1007.6875 603.6875,1007.1406 C604.2656,1006.7344 604.5938,1006.2813 604.5938,1005.8906 C604.5938,1005.4375 604.2031,1005.0469 603.7344,1005.0469 C603.5156,1005.0469 603.3125,1005.125 603.125,1005.3125 C602.6719,1005.7969 602.6719,1005.7969 602.4844,1005.8906 C602.0625,1006.1563 601.375,1006.2813 600.6094,1006.2813 C598.5625,1006.2813 597.2656,1005.1875 597.2656,1003.4844 L597.2656,1002.3906 C597.2656,1000.6094 598.5156,999.2969 600.25,999.2969 C600.8281,999.2969 601.4375,999.4531 601.9063,999.7031 C602.3906,999.9844 602.5625,1000.2031 602.6563,1000.6094 C602.7188,1001.0156 602.75,1001.1406 602.8906,1001.2656 C603.0313,1001.4063 603.2656,1001.5156 603.4844,1001.5156 C603.75,1001.5156 604.0156,1001.375 604.1875,1001.1563 C604.2969,1001 604.3281,1000.8125 604.3281,1000.3906 L604.3281,998.9688 C604.3281,998.5313 604.3125,998.4063 604.2188,998.25 C604.0625,997.9844 603.7813,997.8438 603.4844,997.8438 C603.1875,997.8438 602.9844,997.9375 602.7656,998.25 L602.5938,998.1719 Z " fill="#000000"/><text fill="#000000" font-family="sans-serif" font-size="14" lengthAdjust="spacing" textLength="135" x="620.75" y="1007.3467">ApiStudentService</text><line style="stroke:#181818;stroke-width:0.5;" x1="303.5" x2="1040.5" y1="1018.5" y2="1018.5"/><rect fill="none" height="6" style="stroke:#C82930;stroke-width:1.0;" width="6" x="310.5" y="1029.1484"/><text fill="#000000" font-family="sans-serif" font-size="14" lengthAdjust="spacing" textLength="119" x="322.5" y="1035.4951">http: HttpClient</text><line style="stroke:#181818;stroke-width:0.5;" x1="303.5" x2="1040.5" y1="1042.7969" y2="1042.7969"/><rect fill="#F24D5C" height="6" style="stroke:#C82930;stroke-width:1.0;" width="6" x="310.5" y="1053.4453"/><text fill="#000000" font-family="sans-serif" font-size="14" lengthAdjust="spacing" textLength="433" x="322.5" y="1059.792">handleError(error: HttpErrorResponse): Observable&lt;never&gt;</text><ellipse cx="313.5" cy="1072.7422" fill="#84BE84" rx="3" ry="3" style="stroke:#038048;stroke-width:1.0;"/><text fill="#000000" font-family="sans-serif" font-size="14" lengthAdjust="spacing" textLength="390" x="322.5" y="1076.0889">getCoursesByUser(id: number): Observable&lt;Course[]&gt;</text><ellipse cx="313.5" cy="1089.0391" fill="#84BE84" rx="3" ry="3" style="stroke:#038048;stroke-width:1.0;"/><text fill="#000000" font-family="sans-serif" font-size="14" lengthAdjust="spacing" textLength="556" x="322.5" y="1092.3857">getOpenOrStartedGamesByCourses(courses: Course[]): Observable&lt;Game[]&gt;</text><ellipse cx="313.5" cy="1105.3359" fill="#84BE84" rx="3" ry="3" style="stroke:#038048;stroke-width:1.0;"/><text fill="#000000" font-family="sans-serif" font-size="14" lengthAdjust="spacing" textLength="713" x="322.5" y="1108.6826">changePassword(userId: number, actualPassword: string, newPassword: string): Observable&lt;string&gt;</text><ellipse cx="313.5" cy="1121.6328" fill="#84BE84" rx="3" ry="3" style="stroke:#038048;stroke-width:1.0;"/><text fill="#000000" font-family="sans-serif" font-size="14" lengthAdjust="spacing" textLength="492" x="322.5" y="1124.9795">getGamesResultsByUser(userId: number): Observable&lt;UserResult[]&gt;</text><ellipse cx="313.5" cy="1137.9297" fill="#84BE84" rx="3" ry="3" style="stroke:#038048;stroke-width:1.0;"/><text fill="#000000" font-family="sans-serif" font-size="14" lengthAdjust="spacing" textLength="702" x="322.5" y="1141.2764">getGamesResultsByUserAndCourse(userId: number, courseId: number): Observable&lt;UserResult[]&gt;</text><ellipse cx="313.5" cy="1154.2266" fill="#84BE84" rx="3" ry="3" style="stroke:#038048;stroke-width:1.0;"/><text fill="#000000" font-family="sans-serif" font-size="14" lengthAdjust="spacing" textLength="671" x="322.5" y="1157.5732">getGamesResultByUserAndGame(userId: number, gameId: number): Observable&lt;UserResult&gt;</text></g><!--SRC=[dLRDRjim3BxdANpCqEu5Wg56LWpRJksQxbGKXc8pYJP7yYWvMJ7qtKU9al-zPSiXa2dg8_dnHyfBOKooLkOCcFnQ9FIxaaMwIbHzt0Aoe02Jewoir6gL68jIxOEcoNAD2BbT9LkjIn1gyRgGoWBkH0u1zm5CNTg8lXT7o6JHjr0Rm97mHmt6sHnj20-RZVnaEGdPBWlDGQFDcgsk-wq1LS3FAImesi064QVTa7DFuvU0rn9v8O-ctdxp97Q5zgM2lYJ4RUKHffmrCV2dPnOZ65rZFa3nNES8mkenvvKsqldNClkw05ebZ-HDYEj8sPJQX-6_BTQGxKHfm7zwmdjb47dPr7Y2byZER7gDLvjrRRf8LesL9XrzSwDgiTAM_q9Dj6HQKv7ePejDhWOHp-OZUdfBOWDpPQF4SU3dL25r2VzASVGnS_yrsNSKZzCd9xiGxFb589mlWccYdKh-HL3J74UQFX8Hi-ayQ6ClBILkBGVdoZgeMc63SEEMeRCGiiQfx2IDtBgYwSs4IbEq6MFUkxLfKMVYP355mAoqoKWv6LtlqqXiEEhA4ufCsBIJUz-ZCQ30aTxjIgaON2k_x2Zw88DcmEJsjGBZEY-reMKurSOMZf6gAWIoRg5heiOlbSuy9wPN2Due6DCPa7jVsMvZgXn7QU73dUmq8wIKniwtvTHyzwsE_cOA5lcQykNMajGn6PnMscPTZkX6e58e0BUQgCYeCG5KtAaGJXBE0sdZruoOtOhYdLJI77mQk0sSitEpmeKrdXSL7JjhB0Rt7-hX07GIbs1IVD0XcrTMVmULJWwQHxSLVV5wi_Eefog57ViTIZ_Gx-m7zOsj2r1Co3tg7IL5yxbrSPHgPAh_u9XyMqo-GfmmxTPZk72RCkc-Pve2fVS03BlRln3QmP5EJYL_0GrISaQjzhC7hRQYdDgDfR6kP21h0tYIUMJmxS7QQfLyel_RKaOktnweVqluWAXn2UwVLRo0egp81hnP9NTRel0agBtVAJW1tWIwmFBuCkzV7EtBbi_-8TPwUcxFtLMWxd33RUJu9eY0jUJPQE9iV7hkWpdj1Ygd2FPm7yfxwLBzkN7YEX6vhKKPjoFJruc2yr3ODyAorb_l8kSz1jktrJ_U7IT_0bchWeCSUSua_3T-0-za8t1Nvt-7lbcy_WO0]--></g></svg>