<?xml version="1.0" encoding="us-ascii" standalone="no"?><svg xmlns="http://www.w3.org/2000/svg" xmlns:xlink="http://www.w3.org/1999/xlink" contentStyleType="text/css" height="1456px" preserveAspectRatio="none" style="width:2390px;height:1456px;background:#FFFFFF;" version="1.1" viewBox="0 0 2390 1456" width="2390px" zoomAndPan="magnify"><defs/><g><!--class Answer--><g id="elem_Answer"><rect codeLine="1" fill="#F1F1F1" height="96.8906" id="Answer" rx="2.5" ry="2.5" style="stroke:#181818;stroke-width:0.5;" width="164" x="14" y="80.5"/><ellipse cx="65.75" cy="96.5" fill="#ADD1B2" rx="11" ry="11" style="stroke:#181818;stroke-width:1.0;"/><path d="M68.0938,92.1719 C67.1563,91.7344 66.5625,91.5938 65.6875,91.5938 C63.0625,91.5938 61.0625,93.6719 61.0625,96.3906 L61.0625,97.5156 C61.0625,100.0938 63.1719,101.9844 66.0625,101.9844 C67.2813,101.9844 68.4375,101.6875 69.1875,101.1406 C69.7656,100.7344 70.0938,100.2813 70.0938,99.8906 C70.0938,99.4375 69.7031,99.0469 69.2344,99.0469 C69.0156,99.0469 68.8125,99.125 68.625,99.3125 C68.1719,99.7969 68.1719,99.7969 67.9844,99.8906 C67.5625,100.1563 66.875,100.2813 66.1094,100.2813 C64.0625,100.2813 62.7656,99.1875 62.7656,97.4844 L62.7656,96.3906 C62.7656,94.6094 64.0156,93.2969 65.75,93.2969 C66.3281,93.2969 66.9375,93.4531 67.4063,93.7031 C67.8906,93.9844 68.0625,94.2031 68.1563,94.6094 C68.2188,95.0156 68.25,95.1406 68.3906,95.2656 C68.5313,95.4063 68.7656,95.5156 68.9844,95.5156 C69.25,95.5156 69.5156,95.375 69.6875,95.1563 C69.7969,95 69.8281,94.8125 69.8281,94.3906 L69.8281,92.9688 C69.8281,92.5313 69.8125,92.4063 69.7188,92.25 C69.5625,91.9844 69.2813,91.8438 68.9844,91.8438 C68.6875,91.8438 68.4844,91.9375 68.2656,92.25 L68.0938,92.1719 Z " fill="#000000"/><text fill="#000000" font-family="sans-serif" font-size="14" lengthAdjust="spacing" textLength="52" x="86.25" y="101.3467">Answer</text><line style="stroke:#181818;stroke-width:0.5;" x1="15" x2="177" y1="112.5" y2="112.5"/><ellipse cx="25" cy="126.1484" fill="none" rx="3" ry="3" style="stroke:#038048;stroke-width:1.0;"/><text fill="#000000" font-family="sans-serif" font-size="14" lengthAdjust="spacing" textLength="85" x="34" y="129.4951">id?: number</text><ellipse cx="25" cy="142.4453" fill="none" rx="3" ry="3" style="stroke:#038048;stroke-width:1.0;"/><text fill="#000000" font-family="sans-serif" font-size="14" lengthAdjust="spacing" textLength="133" x="34" y="145.792">description: string</text><ellipse cx="25" cy="158.7422" fill="none" rx="3" ry="3" style="stroke:#038048;stroke-width:1.0;"/><text fill="#000000" font-family="sans-serif" font-size="14" lengthAdjust="spacing" textLength="138" x="34" y="162.0889">is_correct: boolean</text><line style="stroke:#181818;stroke-width:0.5;" x1="15" x2="177" y1="169.3906" y2="169.3906"/></g><!--class AnswerResult--><g id="elem_AnswerResult"><rect codeLine="6" fill="#F1F1F1" height="194.6719" id="AnswerResult" rx="2.5" ry="2.5" style="stroke:#181818;stroke-width:0.5;" width="199" x="213.5" y="31.5"/><ellipse cx="260.75" cy="47.5" fill="#B4A7E5" rx="11" ry="11" style="stroke:#181818;stroke-width:1.0;"/><path d="M261.7031,44.2813 L263.4219,44.2813 C263.8125,44.2813 264,44.25 264.125,44.1719 C264.3906,44.0156 264.5313,43.7344 264.5313,43.4375 C264.5313,43.1719 264.4219,42.9063 264.1875,42.7344 C264.0156,42.625 263.875,42.5938 263.4219,42.5938 L258.2813,42.5938 C257.8438,42.5938 257.7188,42.6094 257.5625,42.7031 C257.3125,42.8594 257.1563,43.1563 257.1563,43.4375 C257.1563,43.7188 257.2969,43.9688 257.5156,44.1406 C257.6719,44.25 257.8594,44.2813 258.2813,44.2813 L260,44.2813 L260,50.7969 L258.2813,50.7969 C257.8438,50.7969 257.7188,50.8125 257.5625,50.9219 C257.3125,51.0781 257.1563,51.3594 257.1563,51.6563 C257.1563,51.9063 257.2969,52.1719 257.5156,52.3281 C257.6719,52.4531 257.875,52.5 258.2813,52.5 L263.4219,52.5 C264.1719,52.5 264.5313,52.2188 264.5313,51.6563 C264.5313,51.375 264.4219,51.125 264.1875,50.9531 C264.0156,50.8281 263.875,50.7969 263.4219,50.7969 L261.7031,50.7969 L261.7031,44.2813 Z " fill="#000000"/><text fill="#000000" font-family="sans-serif" font-size="14" font-style="italic" lengthAdjust="spacing" textLength="96" x="281.25" y="52.3467">AnswerResult</text><line style="stroke:#181818;stroke-width:0.5;" x1="214.5" x2="411.5" y1="63.5" y2="63.5"/><ellipse cx="224.5" cy="77.1484" fill="none" rx="3" ry="3" style="stroke:#038048;stroke-width:1.0;"/><text fill="#000000" font-family="sans-serif" font-size="14" lengthAdjust="spacing" textLength="125" x="233.5" y="80.4951">game_id: number</text><ellipse cx="224.5" cy="93.4453" fill="none" rx="3" ry="3" style="stroke:#038048;stroke-width:1.0;"/><text fill="#000000" font-family="sans-serif" font-size="14" lengthAdjust="spacing" textLength="115" x="233.5" y="96.792">user_id: number</text><ellipse cx="224.5" cy="109.7422" fill="none" rx="3" ry="3" style="stroke:#038048;stroke-width:1.0;"/><text fill="#000000" font-family="sans-serif" font-size="14" lengthAdjust="spacing" textLength="147" x="233.5" y="113.0889">question_id: number</text><ellipse cx="224.5" cy="126.0391" fill="none" rx="3" ry="3" style="stroke:#038048;stroke-width:1.0;"/><text fill="#000000" font-family="sans-serif" font-size="14" lengthAdjust="spacing" textLength="142" x="233.5" y="129.3857">answer_id?: number</text><ellipse cx="224.5" cy="142.3359" fill="none" rx="3" ry="3" style="stroke:#038048;stroke-width:1.0;"/><text fill="#000000" font-family="sans-serif" font-size="14" lengthAdjust="spacing" textLength="118" x="233.5" y="145.6826">answer?: Answer</text><ellipse cx="224.5" cy="158.6328" fill="none" rx="3" ry="3" style="stroke:#038048;stroke-width:1.0;"/><text fill="#000000" font-family="sans-serif" font-size="14" lengthAdjust="spacing" textLength="153" x="233.5" y="161.9795">short_answer?: string</text><ellipse cx="224.5" cy="174.9297" fill="none" rx="3" ry="3" style="stroke:#038048;stroke-width:1.0;"/><text fill="#000000" font-family="sans-serif" font-size="14" lengthAdjust="spacing" textLength="173" x="233.5" y="178.2764">question_index: number</text><ellipse cx="224.5" cy="191.2266" fill="none" rx="3" ry="3" style="stroke:#038048;stroke-width:1.0;"/><text fill="#000000" font-family="sans-serif" font-size="14" lengthAdjust="spacing" textLength="135" x="233.5" y="194.5732">answered: boolean</text><ellipse cx="224.5" cy="207.5234" fill="none" rx="3" ry="3" style="stroke:#038048;stroke-width:1.0;"/><text fill="#000000" font-family="sans-serif" font-size="14" lengthAdjust="spacing" textLength="145" x="233.5" y="210.8701">is_correct?: boolean</text><line style="stroke:#181818;stroke-width:0.5;" x1="214.5" x2="411.5" y1="218.1719" y2="218.1719"/></g><!--class Survey--><g id="elem_Survey"><rect codeLine="17" fill="#F1F1F1" height="145.7813" id="Survey" rx="2.5" ry="2.5" style="stroke:#181818;stroke-width:0.5;" width="274" x="448" y="56"/><ellipse cx="556.75" cy="72" fill="#ADD1B2" rx="11" ry="11" style="stroke:#181818;stroke-width:1.0;"/><path d="M559.0938,67.6719 C558.1563,67.2344 557.5625,67.0938 556.6875,67.0938 C554.0625,67.0938 552.0625,69.1719 552.0625,71.8906 L552.0625,73.0156 C552.0625,75.5938 554.1719,77.4844 557.0625,77.4844 C558.2813,77.4844 559.4375,77.1875 560.1875,76.6406 C560.7656,76.2344 561.0938,75.7813 561.0938,75.3906 C561.0938,74.9375 560.7031,74.5469 560.2344,74.5469 C560.0156,74.5469 559.8125,74.625 559.625,74.8125 C559.1719,75.2969 559.1719,75.2969 558.9844,75.3906 C558.5625,75.6563 557.875,75.7813 557.1094,75.7813 C555.0625,75.7813 553.7656,74.6875 553.7656,72.9844 L553.7656,71.8906 C553.7656,70.1094 555.0156,68.7969 556.75,68.7969 C557.3281,68.7969 557.9375,68.9531 558.4063,69.2031 C558.8906,69.4844 559.0625,69.7031 559.1563,70.1094 C559.2188,70.5156 559.25,70.6406 559.3906,70.7656 C559.5313,70.9063 559.7656,71.0156 559.9844,71.0156 C560.25,71.0156 560.5156,70.875 560.6875,70.6563 C560.7969,70.5 560.8281,70.3125 560.8281,69.8906 L560.8281,68.4688 C560.8281,68.0313 560.8125,67.9063 560.7188,67.75 C560.5625,67.4844 560.2813,67.3438 559.9844,67.3438 C559.6875,67.3438 559.4844,67.4375 559.2656,67.75 L559.0938,67.6719 Z " fill="#000000"/><text fill="#000000" font-family="sans-serif" font-size="14" lengthAdjust="spacing" textLength="48" x="577.25" y="76.8467">Survey</text><line style="stroke:#181818;stroke-width:0.5;" x1="449" x2="721" y1="88" y2="88"/><ellipse cx="459" cy="101.6484" fill="none" rx="3" ry="3" style="stroke:#038048;stroke-width:1.0;"/><text fill="#000000" font-family="sans-serif" font-size="14" lengthAdjust="spacing" textLength="85" x="468" y="104.9951">id?: number</text><ellipse cx="459" cy="117.9453" fill="none" rx="3" ry="3" style="stroke:#038048;stroke-width:1.0;"/><text fill="#000000" font-family="sans-serif" font-size="14" lengthAdjust="spacing" textLength="82" x="468" y="121.292">title: string</text><ellipse cx="459" cy="134.2422" fill="none" rx="3" ry="3" style="stroke:#038048;stroke-width:1.0;"/><text fill="#000000" font-family="sans-serif" font-size="14" lengthAdjust="spacing" textLength="175" x="468" y="137.5889">user_creator_id: number</text><ellipse cx="459" cy="150.5391" fill="none" rx="3" ry="3" style="stroke:#038048;stroke-width:1.0;"/><text fill="#000000" font-family="sans-serif" font-size="14" lengthAdjust="spacing" textLength="152" x="468" y="153.8857">questions: Question[]</text><ellipse cx="459" cy="166.8359" fill="none" rx="3" ry="3" style="stroke:#038048;stroke-width:1.0;"/><text fill="#000000" font-family="sans-serif" font-size="14" lengthAdjust="spacing" textLength="248" x="468" y="170.1826">questionsSurvey: QuestionSurvey[]</text><ellipse cx="459" cy="183.1328" fill="none" rx="3" ry="3" style="stroke:#038048;stroke-width:1.0;"/><text fill="#000000" font-family="sans-serif" font-size="14" lengthAdjust="spacing" textLength="113" x="468" y="186.4795">resource: string</text><line style="stroke:#181818;stroke-width:0.5;" x1="449" x2="721" y1="193.7813" y2="193.7813"/></g><!--class Game--><g id="elem_Game"><rect codeLine="25" fill="#F1F1F1" height="243.5625" id="Game" rx="2.5" ry="2.5" style="stroke:#181818;stroke-width:0.5;" width="245" x="757.5" y="7"/><ellipse cx="854.75" cy="23" fill="#ADD1B2" rx="11" ry="11" style="stroke:#181818;stroke-width:1.0;"/><path d="M857.0938,18.6719 C856.1563,18.2344 855.5625,18.0938 854.6875,18.0938 C852.0625,18.0938 850.0625,20.1719 850.0625,22.8906 L850.0625,24.0156 C850.0625,26.5938 852.1719,28.4844 855.0625,28.4844 C856.2813,28.4844 857.4375,28.1875 858.1875,27.6406 C858.7656,27.2344 859.0938,26.7813 859.0938,26.3906 C859.0938,25.9375 858.7031,25.5469 858.2344,25.5469 C858.0156,25.5469 857.8125,25.625 857.625,25.8125 C857.1719,26.2969 857.1719,26.2969 856.9844,26.3906 C856.5625,26.6563 855.875,26.7813 855.1094,26.7813 C853.0625,26.7813 851.7656,25.6875 851.7656,23.9844 L851.7656,22.8906 C851.7656,21.1094 853.0156,19.7969 854.75,19.7969 C855.3281,19.7969 855.9375,19.9531 856.4063,20.2031 C856.8906,20.4844 857.0625,20.7031 857.1563,21.1094 C857.2188,21.5156 857.25,21.6406 857.3906,21.7656 C857.5313,21.9063 857.7656,22.0156 857.9844,22.0156 C858.25,22.0156 858.5156,21.875 858.6875,21.6563 C858.7969,21.5 858.8281,21.3125 858.8281,20.8906 L858.8281,19.4688 C858.8281,19.0313 858.8125,18.9063 858.7188,18.75 C858.5625,18.4844 858.2813,18.3438 857.9844,18.3438 C857.6875,18.3438 857.4844,18.4375 857.2656,18.75 L857.0938,18.6719 Z " fill="#000000"/><text fill="#000000" font-family="sans-serif" font-size="14" lengthAdjust="spacing" textLength="42" x="875.25" y="27.8467">Game</text><line style="stroke:#181818;stroke-width:0.5;" x1="758.5" x2="1001.5" y1="39" y2="39"/><ellipse cx="768.5" cy="52.6484" fill="none" rx="3" ry="3" style="stroke:#038048;stroke-width:1.0;"/><text fill="#000000" font-family="sans-serif" font-size="14" lengthAdjust="spacing" textLength="85" x="777.5" y="55.9951">id?: number</text><ellipse cx="768.5" cy="68.9453" fill="none" rx="3" ry="3" style="stroke:#038048;stroke-width:1.0;"/><text fill="#000000" font-family="sans-serif" font-size="14" lengthAdjust="spacing" textLength="117" x="777.5" y="72.292">host_id: number</text><ellipse cx="768.5" cy="85.2422" fill="none" rx="3" ry="3" style="stroke:#038048;stroke-width:1.0;"/><text fill="#000000" font-family="sans-serif" font-size="14" lengthAdjust="spacing" textLength="131" x="777.5" y="88.5889">survey_id: number</text><ellipse cx="768.5" cy="101.5391" fill="none" rx="3" ry="3" style="stroke:#038048;stroke-width:1.0;"/><text fill="#000000" font-family="sans-serif" font-size="14" lengthAdjust="spacing" textLength="121" x="777.5" y="104.8857">type: GameType</text><ellipse cx="768.5" cy="117.8359" fill="none" rx="3" ry="3" style="stroke:#038048;stroke-width:1.0;"/><text fill="#000000" font-family="sans-serif" font-size="14" lengthAdjust="spacing" textLength="129" x="777.5" y="121.1826">state: GameState</text><ellipse cx="768.5" cy="134.1328" fill="none" rx="3" ry="3" style="stroke:#038048;stroke-width:1.0;"/><text fill="#000000" font-family="sans-serif" font-size="14" lengthAdjust="spacing" textLength="219" x="777.5" y="137.4795">are_questions_visible: boolean</text><ellipse cx="768.5" cy="150.4297" fill="none" rx="3" ry="3" style="stroke:#038048;stroke-width:1.0;"/><text fill="#000000" font-family="sans-serif" font-size="14" lengthAdjust="spacing" textLength="170" x="777.5" y="153.7764">point_type: PointsType</text><ellipse cx="768.5" cy="166.7266" fill="none" rx="3" ry="3" style="stroke:#038048;stroke-width:1.0;"/><text fill="#000000" font-family="sans-serif" font-size="14" lengthAdjust="spacing" textLength="132" x="777.5" y="170.0732">course_id: number</text><ellipse cx="768.5" cy="183.0234" fill="none" rx="3" ry="3" style="stroke:#038048;stroke-width:1.0;"/><text fill="#000000" font-family="sans-serif" font-size="14" lengthAdjust="spacing" textLength="112" x="777.5" y="186.3701">course?: Course</text><ellipse cx="768.5" cy="199.3203" fill="none" rx="3" ry="3" style="stroke:#038048;stroke-width:1.0;"/><text fill="#000000" font-family="sans-serif" font-size="14" lengthAdjust="spacing" textLength="77" x="777.5" y="202.667">user?: User</text><ellipse cx="768.5" cy="215.6172" fill="none" rx="3" ry="3" style="stroke:#038048;stroke-width:1.0;"/><text fill="#000000" font-family="sans-serif" font-size="14" lengthAdjust="spacing" textLength="110" x="777.5" y="218.9639">survey?: Survey</text><ellipse cx="768.5" cy="231.9141" fill="none" rx="3" ry="3" style="stroke:#038048;stroke-width:1.0;"/><text fill="#000000" font-family="sans-serif" font-size="14" lengthAdjust="spacing" textLength="136" x="777.5" y="235.2607">created_at?: string</text><line style="stroke:#181818;stroke-width:0.5;" x1="758.5" x2="1001.5" y1="242.5625" y2="242.5625"/></g><!--class GameType--><g id="elem_GameType"><rect codeLine="39" fill="#F1F1F1" height="80.5938" id="GameType" rx="2.5" ry="2.5" style="stroke:#181818;stroke-width:0.5;" width="110" x="1038" y="88.5"/><ellipse cx="1053" cy="104.5" fill="#EB937F" rx="11" ry="11" style="stroke:#181818;stroke-width:1.0;"/><path d="M1051.7969,105.375 L1053.25,105.375 L1053.25,105.4844 C1053.25,105.8906 1053.2813,106.0469 1053.3594,106.2031 C1053.5156,106.4531 1053.7969,106.6094 1054.0938,106.6094 C1054.3438,106.6094 1054.6094,106.4688 1054.7656,106.25 C1054.8906,106.0938 1054.9219,105.9375 1054.9219,105.4844 L1054.9219,103.5625 C1054.9219,103.4063 1054.9219,103.3594 1054.9063,103.2031 C1054.8438,102.7344 1054.5313,102.4219 1054.0781,102.4219 C1053.8281,102.4219 1053.5625,102.5625 1053.3906,102.7813 C1053.2813,102.9531 1053.25,103.1094 1053.25,103.5625 L1053.25,103.6875 L1051.7969,103.6875 L1051.7969,101.2813 L1055.7813,101.2813 L1055.7813,102.1406 C1055.7813,102.5469 1055.8125,102.7188 1055.8906,102.875 C1056.0625,103.125 1056.3438,103.2813 1056.625,103.2813 C1056.8906,103.2813 1057.1563,103.1406 1057.3281,102.9219 C1057.4375,102.75 1057.4688,102.6094 1057.4688,102.1406 L1057.4688,99.5938 L1049.8438,99.5938 C1049.4063,99.5938 1049.2813,99.6094 1049.125,99.7031 C1048.875,99.8594 1048.7188,100.1563 1048.7188,100.4375 C1048.7188,100.7188 1048.8594,100.9688 1049.0781,101.1406 C1049.2344,101.25 1049.4219,101.2813 1049.8438,101.2813 L1050.0938,101.2813 L1050.0938,107.7969 L1049.8438,107.7969 C1049.4375,107.7969 1049.2813,107.8125 1049.125,107.9219 C1048.875,108.0938 1048.7188,108.3594 1048.7188,108.6563 C1048.7188,108.9219 1048.8594,109.1719 1049.0781,109.3281 C1049.2188,109.4531 1049.4531,109.5 1049.8438,109.5 L1057.8438,109.5 L1057.8438,106.9219 C1057.8438,106.4844 1057.8125,106.3438 1057.7344,106.1875 C1057.5625,105.9375 1057.2813,105.7813 1057,105.7813 C1056.7344,105.7813 1056.4688,105.8906 1056.2969,106.1406 C1056.1875,106.2969 1056.1563,106.4375 1056.1563,106.9219 L1056.1563,107.7969 L1051.7969,107.7969 L1051.7969,105.375 Z " fill="#000000"/><text fill="#000000" font-family="sans-serif" font-size="14" lengthAdjust="spacing" textLength="78" x="1067" y="109.3467">GameType</text><line style="stroke:#181818;stroke-width:0.5;" x1="1039" x2="1147" y1="120.5" y2="120.5"/><text fill="#000000" font-family="sans-serif" font-size="14" lengthAdjust="spacing" textLength="47" x="1044" y="137.4951">offline</text><text fill="#000000" font-family="sans-serif" font-size="14" lengthAdjust="spacing" textLength="44" x="1044" y="153.792">online</text><line style="stroke:#181818;stroke-width:0.5;" x1="1039" x2="1147" y1="161.0938" y2="161.0938"/></g><!--class GameState--><g id="elem_GameState"><rect codeLine="43" fill="#F1F1F1" height="96.8906" id="GameState" rx="2.5" ry="2.5" style="stroke:#181818;stroke-width:0.5;" width="114" x="39" y="335.5"/><ellipse cx="54" cy="351.5" fill="#EB937F" rx="11" ry="11" style="stroke:#181818;stroke-width:1.0;"/><path d="M52.7969,352.375 L54.25,352.375 L54.25,352.4844 C54.25,352.8906 54.2813,353.0469 54.3594,353.2031 C54.5156,353.4531 54.7969,353.6094 55.0938,353.6094 C55.3438,353.6094 55.6094,353.4688 55.7656,353.25 C55.8906,353.0938 55.9219,352.9375 55.9219,352.4844 L55.9219,350.5625 C55.9219,350.4063 55.9219,350.3594 55.9063,350.2031 C55.8438,349.7344 55.5313,349.4219 55.0781,349.4219 C54.8281,349.4219 54.5625,349.5625 54.3906,349.7813 C54.2813,349.9531 54.25,350.1094 54.25,350.5625 L54.25,350.6875 L52.7969,350.6875 L52.7969,348.2813 L56.7813,348.2813 L56.7813,349.1406 C56.7813,349.5469 56.8125,349.7188 56.8906,349.875 C57.0625,350.125 57.3438,350.2813 57.625,350.2813 C57.8906,350.2813 58.1563,350.1406 58.3281,349.9219 C58.4375,349.75 58.4688,349.6094 58.4688,349.1406 L58.4688,346.5938 L50.8438,346.5938 C50.4063,346.5938 50.2813,346.6094 50.125,346.7031 C49.875,346.8594 49.7188,347.1563 49.7188,347.4375 C49.7188,347.7188 49.8594,347.9688 50.0781,348.1406 C50.2344,348.25 50.4219,348.2813 50.8438,348.2813 L51.0938,348.2813 L51.0938,354.7969 L50.8438,354.7969 C50.4375,354.7969 50.2813,354.8125 50.125,354.9219 C49.875,355.0938 49.7188,355.3594 49.7188,355.6563 C49.7188,355.9219 49.8594,356.1719 50.0781,356.3281 C50.2188,356.4531 50.4531,356.5 50.8438,356.5 L58.8438,356.5 L58.8438,353.9219 C58.8438,353.4844 58.8125,353.3438 58.7344,353.1875 C58.5625,352.9375 58.2813,352.7813 58,352.7813 C57.7344,352.7813 57.4688,352.8906 57.2969,353.1406 C57.1875,353.2969 57.1563,353.4375 57.1563,353.9219 L57.1563,354.7969 L52.7969,354.7969 L52.7969,352.375 Z " fill="#000000"/><text fill="#000000" font-family="sans-serif" font-size="14" lengthAdjust="spacing" textLength="82" x="68" y="356.3467">GameState</text><line style="stroke:#181818;stroke-width:0.5;" x1="40" x2="152" y1="367.5" y2="367.5"/><text fill="#000000" font-family="sans-serif" font-size="14" lengthAdjust="spacing" textLength="56" x="45" y="384.4951">created</text><text fill="#000000" font-family="sans-serif" font-size="14" lengthAdjust="spacing" textLength="53" x="45" y="400.792">started</text><text fill="#000000" font-family="sans-serif" font-size="14" lengthAdjust="spacing" textLength="46" x="45" y="417.0889">closed</text><line style="stroke:#181818;stroke-width:0.5;" x1="40" x2="152" y1="424.3906" y2="424.3906"/></g><!--class PointsType--><g id="elem_PointsType"><rect codeLine="48" fill="#F1F1F1" height="96.8906" id="PointsType" rx="2.5" ry="2.5" style="stroke:#181818;stroke-width:0.5;" width="113" x="188.5" y="335.5"/><ellipse cx="203.5" cy="351.5" fill="#EB937F" rx="11" ry="11" style="stroke:#181818;stroke-width:1.0;"/><path d="M202.2969,352.375 L203.75,352.375 L203.75,352.4844 C203.75,352.8906 203.7813,353.0469 203.8594,353.2031 C204.0156,353.4531 204.2969,353.6094 204.5938,353.6094 C204.8438,353.6094 205.1094,353.4688 205.2656,353.25 C205.3906,353.0938 205.4219,352.9375 205.4219,352.4844 L205.4219,350.5625 C205.4219,350.4063 205.4219,350.3594 205.4063,350.2031 C205.3438,349.7344 205.0313,349.4219 204.5781,349.4219 C204.3281,349.4219 204.0625,349.5625 203.8906,349.7813 C203.7813,349.9531 203.75,350.1094 203.75,350.5625 L203.75,350.6875 L202.2969,350.6875 L202.2969,348.2813 L206.2813,348.2813 L206.2813,349.1406 C206.2813,349.5469 206.3125,349.7188 206.3906,349.875 C206.5625,350.125 206.8438,350.2813 207.125,350.2813 C207.3906,350.2813 207.6563,350.1406 207.8281,349.9219 C207.9375,349.75 207.9688,349.6094 207.9688,349.1406 L207.9688,346.5938 L200.3438,346.5938 C199.9063,346.5938 199.7813,346.6094 199.625,346.7031 C199.375,346.8594 199.2188,347.1563 199.2188,347.4375 C199.2188,347.7188 199.3594,347.9688 199.5781,348.1406 C199.7344,348.25 199.9219,348.2813 200.3438,348.2813 L200.5938,348.2813 L200.5938,354.7969 L200.3438,354.7969 C199.9375,354.7969 199.7813,354.8125 199.625,354.9219 C199.375,355.0938 199.2188,355.3594 199.2188,355.6563 C199.2188,355.9219 199.3594,356.1719 199.5781,356.3281 C199.7188,356.4531 199.9531,356.5 200.3438,356.5 L208.3438,356.5 L208.3438,353.9219 C208.3438,353.4844 208.3125,353.3438 208.2344,353.1875 C208.0625,352.9375 207.7813,352.7813 207.5,352.7813 C207.2344,352.7813 206.9688,352.8906 206.7969,353.1406 C206.6875,353.2969 206.6563,353.4375 206.6563,353.9219 L206.6563,354.7969 L202.2969,354.7969 L202.2969,352.375 Z " fill="#000000"/><text fill="#000000" font-family="sans-serif" font-size="14" lengthAdjust="spacing" textLength="81" x="217.5" y="356.3467">PointsType</text><line style="stroke:#181818;stroke-width:0.5;" x1="189.5" x2="300.5" y1="367.5" y2="367.5"/><text fill="#000000" font-family="sans-serif" font-size="14" lengthAdjust="spacing" textLength="63" x="194.5" y="384.4951">standard</text><text fill="#000000" font-family="sans-serif" font-size="14" lengthAdjust="spacing" textLength="49" x="194.5" y="400.792">double</text><text fill="#000000" font-family="sans-serif" font-size="14" lengthAdjust="spacing" textLength="71" x="194.5" y="417.0889">no_points</text><line style="stroke:#181818;stroke-width:0.5;" x1="189.5" x2="300.5" y1="424.3906" y2="424.3906"/></g><!--class GameSession--><g id="elem_GameSession"><rect codeLine="53" fill="#F1F1F1" height="145.7813" id="GameSession" rx="2.5" ry="2.5" style="stroke:#181818;stroke-width:0.5;" width="209" x="336.5" y="311"/><ellipse cx="388.25" cy="327" fill="#B4A7E5" rx="11" ry="11" style="stroke:#181818;stroke-width:1.0;"/><path d="M389.2031,323.7813 L390.9219,323.7813 C391.3125,323.7813 391.5,323.75 391.625,323.6719 C391.8906,323.5156 392.0313,323.2344 392.0313,322.9375 C392.0313,322.6719 391.9219,322.4063 391.6875,322.2344 C391.5156,322.125 391.375,322.0938 390.9219,322.0938 L385.7813,322.0938 C385.3438,322.0938 385.2188,322.1094 385.0625,322.2031 C384.8125,322.3594 384.6563,322.6563 384.6563,322.9375 C384.6563,323.2188 384.7969,323.4688 385.0156,323.6406 C385.1719,323.75 385.3594,323.7813 385.7813,323.7813 L387.5,323.7813 L387.5,330.2969 L385.7813,330.2969 C385.3438,330.2969 385.2188,330.3125 385.0625,330.4219 C384.8125,330.5781 384.6563,330.8594 384.6563,331.1563 C384.6563,331.4063 384.7969,331.6719 385.0156,331.8281 C385.1719,331.9531 385.375,332 385.7813,332 L390.9219,332 C391.6719,332 392.0313,331.7188 392.0313,331.1563 C392.0313,330.875 391.9219,330.625 391.6875,330.4531 C391.5156,330.3281 391.375,330.2969 390.9219,330.2969 L389.2031,330.2969 L389.2031,323.7813 Z " fill="#000000"/><text fill="#000000" font-family="sans-serif" font-size="14" font-style="italic" lengthAdjust="spacing" textLength="97" x="408.75" y="331.8467">GameSession</text><line style="stroke:#181818;stroke-width:0.5;" x1="337.5" x2="544.5" y1="343" y2="343"/><ellipse cx="347.5" cy="356.6484" fill="none" rx="3" ry="3" style="stroke:#038048;stroke-width:1.0;"/><text fill="#000000" font-family="sans-serif" font-size="14" lengthAdjust="spacing" textLength="91" x="356.5" y="359.9951">game: Game</text><ellipse cx="347.5" cy="372.9453" fill="none" rx="3" ry="3" style="stroke:#038048;stroke-width:1.0;"/><text fill="#000000" font-family="sans-serif" font-size="14" lengthAdjust="spacing" textLength="87" x="356.5" y="376.292">users: User[]</text><ellipse cx="347.5" cy="389.2422" fill="none" rx="3" ry="3" style="stroke:#038048;stroke-width:1.0;"/><text fill="#000000" font-family="sans-serif" font-size="14" lengthAdjust="spacing" textLength="183" x="356.5" y="392.5889">state: GameSessionState</text><ellipse cx="347.5" cy="405.5391" fill="none" rx="3" ry="3" style="stroke:#038048;stroke-width:1.0;"/><text fill="#000000" font-family="sans-serif" font-size="14" lengthAdjust="spacing" textLength="174" x="356.5" y="408.8857">question_list: Question[]</text><ellipse cx="347.5" cy="421.8359" fill="none" rx="3" ry="3" style="stroke:#038048;stroke-width:1.0;"/><text fill="#000000" font-family="sans-serif" font-size="14" lengthAdjust="spacing" textLength="173" x="356.5" y="425.1826">question_index: number</text><ellipse cx="347.5" cy="438.1328" fill="none" rx="3" ry="3" style="stroke:#038048;stroke-width:1.0;"/><text fill="#000000" font-family="sans-serif" font-size="14" lengthAdjust="spacing" textLength="180" x="356.5" y="441.4795">user_results: UserResult[]</text><line style="stroke:#181818;stroke-width:0.5;" x1="337.5" x2="544.5" y1="448.7813" y2="448.7813"/></g><!--class GameSessionState--><g id="elem_GameSessionState"><rect codeLine="61" fill="#F1F1F1" height="145.7813" id="GameSessionState" rx="2.5" ry="2.5" style="stroke:#181818;stroke-width:0.5;" width="172" x="581" y="311"/><ellipse cx="597.8" cy="327" fill="#EB937F" rx="11" ry="11" style="stroke:#181818;stroke-width:1.0;"/><path d="M596.5969,327.875 L598.05,327.875 L598.05,327.9844 C598.05,328.3906 598.0813,328.5469 598.1594,328.7031 C598.3156,328.9531 598.5969,329.1094 598.8938,329.1094 C599.1438,329.1094 599.4094,328.9688 599.5656,328.75 C599.6906,328.5938 599.7219,328.4375 599.7219,327.9844 L599.7219,326.0625 C599.7219,325.9063 599.7219,325.8594 599.7063,325.7031 C599.6438,325.2344 599.3313,324.9219 598.8781,324.9219 C598.6281,324.9219 598.3625,325.0625 598.1906,325.2813 C598.0813,325.4531 598.05,325.6094 598.05,326.0625 L598.05,326.1875 L596.5969,326.1875 L596.5969,323.7813 L600.5813,323.7813 L600.5813,324.6406 C600.5813,325.0469 600.6125,325.2188 600.6906,325.375 C600.8625,325.625 601.1438,325.7813 601.425,325.7813 C601.6906,325.7813 601.9563,325.6406 602.1281,325.4219 C602.2375,325.25 602.2688,325.1094 602.2688,324.6406 L602.2688,322.0938 L594.6438,322.0938 C594.2063,322.0938 594.0813,322.1094 593.925,322.2031 C593.675,322.3594 593.5188,322.6563 593.5188,322.9375 C593.5188,323.2188 593.6594,323.4688 593.8781,323.6406 C594.0344,323.75 594.2219,323.7813 594.6438,323.7813 L594.8938,323.7813 L594.8938,330.2969 L594.6438,330.2969 C594.2375,330.2969 594.0813,330.3125 593.925,330.4219 C593.675,330.5938 593.5188,330.8594 593.5188,331.1563 C593.5188,331.4219 593.6594,331.6719 593.8781,331.8281 C594.0188,331.9531 594.2531,332 594.6438,332 L602.6438,332 L602.6438,329.4219 C602.6438,328.9844 602.6125,328.8438 602.5344,328.6875 C602.3625,328.4375 602.0813,328.2813 601.8,328.2813 C601.5344,328.2813 601.2688,328.3906 601.0969,328.6406 C600.9875,328.7969 600.9563,328.9375 600.9563,329.4219 L600.9563,330.2969 L596.5969,330.2969 L596.5969,327.875 Z " fill="#000000"/><text fill="#000000" font-family="sans-serif" font-size="14" lengthAdjust="spacing" textLength="136" x="612.2" y="331.8467">GameSessionState</text><line style="stroke:#181818;stroke-width:0.5;" x1="582" x2="752" y1="343" y2="343"/><text fill="#000000" font-family="sans-serif" font-size="14" lengthAdjust="spacing" textLength="85" x="587" y="359.9951">not_started</text><text fill="#000000" font-family="sans-serif" font-size="14" lengthAdjust="spacing" textLength="160" x="587" y="376.292">is_leaderboard_screen</text><text fill="#000000" font-family="sans-serif" font-size="14" lengthAdjust="spacing" textLength="130" x="587" y="392.5889">is_preview_screen</text><text fill="#000000" font-family="sans-serif" font-size="14" lengthAdjust="spacing" textLength="135" x="587" y="408.8857">is_question_screen</text><text fill="#000000" font-family="sans-serif" font-size="14" lengthAdjust="spacing" textLength="128" x="587" y="425.1826">is_question_result</text><text fill="#000000" font-family="sans-serif" font-size="14" lengthAdjust="spacing" textLength="75" x="587" y="441.4795">is_finished</text><line style="stroke:#181818;stroke-width:0.5;" x1="582" x2="752" y1="448.7813" y2="448.7813"/></g><!--class User--><g id="elem_User"><rect codeLine="69" fill="#F1F1F1" height="145.7813" id="User" rx="2.5" ry="2.5" style="stroke:#181818;stroke-width:0.5;" width="151" x="788.5" y="311"/><ellipse cx="844.25" cy="327" fill="#ADD1B2" rx="11" ry="11" style="stroke:#181818;stroke-width:1.0;"/><path d="M846.5938,322.6719 C845.6563,322.2344 845.0625,322.0938 844.1875,322.0938 C841.5625,322.0938 839.5625,324.1719 839.5625,326.8906 L839.5625,328.0156 C839.5625,330.5938 841.6719,332.4844 844.5625,332.4844 C845.7813,332.4844 846.9375,332.1875 847.6875,331.6406 C848.2656,331.2344 848.5938,330.7813 848.5938,330.3906 C848.5938,329.9375 848.2031,329.5469 847.7344,329.5469 C847.5156,329.5469 847.3125,329.625 847.125,329.8125 C846.6719,330.2969 846.6719,330.2969 846.4844,330.3906 C846.0625,330.6563 845.375,330.7813 844.6094,330.7813 C842.5625,330.7813 841.2656,329.6875 841.2656,327.9844 L841.2656,326.8906 C841.2656,325.1094 842.5156,323.7969 844.25,323.7969 C844.8281,323.7969 845.4375,323.9531 845.9063,324.2031 C846.3906,324.4844 846.5625,324.7031 846.6563,325.1094 C846.7188,325.5156 846.75,325.6406 846.8906,325.7656 C847.0313,325.9063 847.2656,326.0156 847.4844,326.0156 C847.75,326.0156 848.0156,325.875 848.1875,325.6563 C848.2969,325.5 848.3281,325.3125 848.3281,324.8906 L848.3281,323.4688 C848.3281,323.0313 848.3125,322.9063 848.2188,322.75 C848.0625,322.4844 847.7813,322.3438 847.4844,322.3438 C847.1875,322.3438 846.9844,322.4375 846.7656,322.75 L846.5938,322.6719 Z " fill="#000000"/><text fill="#000000" font-family="sans-serif" font-size="14" lengthAdjust="spacing" textLength="31" x="864.75" y="331.8467">User</text><line style="stroke:#181818;stroke-width:0.5;" x1="789.5" x2="938.5" y1="343" y2="343"/><ellipse cx="799.5" cy="356.6484" fill="none" rx="3" ry="3" style="stroke:#038048;stroke-width:1.0;"/><text fill="#000000" font-family="sans-serif" font-size="14" lengthAdjust="spacing" textLength="78" x="808.5" y="359.9951">id: number</text><ellipse cx="799.5" cy="372.9453" fill="none" rx="3" ry="3" style="stroke:#038048;stroke-width:1.0;"/><text fill="#000000" font-family="sans-serif" font-size="14" lengthAdjust="spacing" textLength="121" x="808.5" y="376.292">username: string</text><ellipse cx="799.5" cy="389.2422" fill="none" rx="3" ry="3" style="stroke:#038048;stroke-width:1.0;"/><text fill="#000000" font-family="sans-serif" font-size="14" lengthAdjust="spacing" textLength="125" x="808.5" y="392.5889">password?: string</text><ellipse cx="799.5" cy="405.5391" fill="none" rx="3" ry="3" style="stroke:#038048;stroke-width:1.0;"/><text fill="#000000" font-family="sans-serif" font-size="14" lengthAdjust="spacing" textLength="79" x="808.5" y="408.8857">role: string</text><ellipse cx="799.5" cy="421.8359" fill="none" rx="3" ry="3" style="stroke:#038048;stroke-width:1.0;"/><text fill="#000000" font-family="sans-serif" font-size="14" lengthAdjust="spacing" textLength="112" x="808.5" y="425.1826">roleType?: Role</text><ellipse cx="799.5" cy="438.1328" fill="none" rx="3" ry="3" style="stroke:#038048;stroke-width:1.0;"/><text fill="#000000" font-family="sans-serif" font-size="14" lengthAdjust="spacing" textLength="101" x="808.5" y="441.4795">token?: string</text><line style="stroke:#181818;stroke-width:0.5;" x1="789.5" x2="938.5" y1="448.7813" y2="448.7813"/></g><!--class Token--><g id="elem_Token"><rect codeLine="77" fill="#F1F1F1" height="64.2969" id="Token" rx="2.5" ry="2.5" style="stroke:#181818;stroke-width:0.5;" width="120" x="36" y="582.5"/><ellipse cx="70.8" cy="598.5" fill="#B4A7E5" rx="11" ry="11" style="stroke:#181818;stroke-width:1.0;"/><path d="M71.7531,595.2813 L73.4719,595.2813 C73.8625,595.2813 74.05,595.25 74.175,595.1719 C74.4406,595.0156 74.5813,594.7344 74.5813,594.4375 C74.5813,594.1719 74.4719,593.9063 74.2375,593.7344 C74.0656,593.625 73.925,593.5938 73.4719,593.5938 L68.3313,593.5938 C67.8938,593.5938 67.7688,593.6094 67.6125,593.7031 C67.3625,593.8594 67.2063,594.1563 67.2063,594.4375 C67.2063,594.7188 67.3469,594.9688 67.5656,595.1406 C67.7219,595.25 67.9094,595.2813 68.3313,595.2813 L70.05,595.2813 L70.05,601.7969 L68.3313,601.7969 C67.8938,601.7969 67.7688,601.8125 67.6125,601.9219 C67.3625,602.0781 67.2063,602.3594 67.2063,602.6563 C67.2063,602.9063 67.3469,603.1719 67.5656,603.3281 C67.7219,603.4531 67.925,603.5 68.3313,603.5 L73.4719,603.5 C74.2219,603.5 74.5813,603.2188 74.5813,602.6563 C74.5813,602.375 74.4719,602.125 74.2375,601.9531 C74.0656,601.8281 73.925,601.7969 73.4719,601.7969 L71.7531,601.7969 L71.7531,595.2813 Z " fill="#000000"/><text fill="#000000" font-family="sans-serif" font-size="14" font-style="italic" lengthAdjust="spacing" textLength="44" x="89.2" y="603.3467">Token</text><line style="stroke:#181818;stroke-width:0.5;" x1="37" x2="155" y1="614.5" y2="614.5"/><ellipse cx="47" cy="628.1484" fill="none" rx="3" ry="3" style="stroke:#038048;stroke-width:1.0;"/><text fill="#000000" font-family="sans-serif" font-size="14" lengthAdjust="spacing" textLength="94" x="56" y="631.4951">token: string</text><line style="stroke:#181818;stroke-width:0.5;" x1="37" x2="155" y1="638.7969" y2="638.7969"/></g><!--class UserToken--><g id="elem_UserToken"><rect codeLine="80" fill="#F1F1F1" height="80.5938" id="UserToken" rx="2.5" ry="2.5" style="stroke:#181818;stroke-width:0.5;" width="110" x="191" y="574"/><ellipse cx="206.9" cy="590" fill="#B4A7E5" rx="11" ry="11" style="stroke:#181818;stroke-width:1.0;"/><path d="M207.8531,586.7813 L209.5719,586.7813 C209.9625,586.7813 210.15,586.75 210.275,586.6719 C210.5406,586.5156 210.6813,586.2344 210.6813,585.9375 C210.6813,585.6719 210.5719,585.4063 210.3375,585.2344 C210.1656,585.125 210.025,585.0938 209.5719,585.0938 L204.4313,585.0938 C203.9938,585.0938 203.8688,585.1094 203.7125,585.2031 C203.4625,585.3594 203.3063,585.6563 203.3063,585.9375 C203.3063,586.2188 203.4469,586.4688 203.6656,586.6406 C203.8219,586.75 204.0094,586.7813 204.4313,586.7813 L206.15,586.7813 L206.15,593.2969 L204.4313,593.2969 C203.9938,593.2969 203.8688,593.3125 203.7125,593.4219 C203.4625,593.5781 203.3063,593.8594 203.3063,594.1563 C203.3063,594.4063 203.4469,594.6719 203.6656,594.8281 C203.8219,594.9531 204.025,595 204.4313,595 L209.5719,595 C210.3219,595 210.6813,594.7188 210.6813,594.1563 C210.6813,593.875 210.5719,593.625 210.3375,593.4531 C210.1656,593.3281 210.025,593.2969 209.5719,593.2969 L207.8531,593.2969 L207.8531,586.7813 Z " fill="#000000"/><text fill="#000000" font-family="sans-serif" font-size="14" font-style="italic" lengthAdjust="spacing" textLength="76" x="221.1" y="594.8467">UserToken</text><line style="stroke:#181818;stroke-width:0.5;" x1="192" x2="300" y1="606" y2="606"/><ellipse cx="202" cy="619.6484" fill="none" rx="3" ry="3" style="stroke:#038048;stroke-width:1.0;"/><text fill="#000000" font-family="sans-serif" font-size="14" lengthAdjust="spacing" textLength="84" x="211" y="622.9951">iat: number</text><ellipse cx="202" cy="635.9453" fill="none" rx="3" ry="3" style="stroke:#038048;stroke-width:1.0;"/><text fill="#000000" font-family="sans-serif" font-size="14" lengthAdjust="spacing" textLength="70" x="211" y="639.292">user: User</text><line style="stroke:#181818;stroke-width:0.5;" x1="192" x2="300" y1="646.5938" y2="646.5938"/></g><!--class Role--><g id="elem_Role"><rect codeLine="84" fill="#F1F1F1" height="96.8906" id="Role" rx="2.5" ry="2.5" style="stroke:#181818;stroke-width:0.5;" width="80" x="336" y="566"/><ellipse cx="358.2" cy="582" fill="#EB937F" rx="11" ry="11" style="stroke:#181818;stroke-width:1.0;"/><path d="M356.9969,582.875 L358.45,582.875 L358.45,582.9844 C358.45,583.3906 358.4813,583.5469 358.5594,583.7031 C358.7156,583.9531 358.9969,584.1094 359.2938,584.1094 C359.5438,584.1094 359.8094,583.9688 359.9656,583.75 C360.0906,583.5938 360.1219,583.4375 360.1219,582.9844 L360.1219,581.0625 C360.1219,580.9063 360.1219,580.8594 360.1063,580.7031 C360.0438,580.2344 359.7313,579.9219 359.2781,579.9219 C359.0281,579.9219 358.7625,580.0625 358.5906,580.2813 C358.4813,580.4531 358.45,580.6094 358.45,581.0625 L358.45,581.1875 L356.9969,581.1875 L356.9969,578.7813 L360.9813,578.7813 L360.9813,579.6406 C360.9813,580.0469 361.0125,580.2188 361.0906,580.375 C361.2625,580.625 361.5438,580.7813 361.825,580.7813 C362.0906,580.7813 362.3563,580.6406 362.5281,580.4219 C362.6375,580.25 362.6688,580.1094 362.6688,579.6406 L362.6688,577.0938 L355.0438,577.0938 C354.6063,577.0938 354.4813,577.1094 354.325,577.2031 C354.075,577.3594 353.9188,577.6563 353.9188,577.9375 C353.9188,578.2188 354.0594,578.4688 354.2781,578.6406 C354.4344,578.75 354.6219,578.7813 355.0438,578.7813 L355.2938,578.7813 L355.2938,585.2969 L355.0438,585.2969 C354.6375,585.2969 354.4813,585.3125 354.325,585.4219 C354.075,585.5938 353.9188,585.8594 353.9188,586.1563 C353.9188,586.4219 354.0594,586.6719 354.2781,586.8281 C354.4188,586.9531 354.6531,587 355.0438,587 L363.0438,587 L363.0438,584.4219 C363.0438,583.9844 363.0125,583.8438 362.9344,583.6875 C362.7625,583.4375 362.4813,583.2813 362.2,583.2813 C361.9344,583.2813 361.6688,583.3906 361.4969,583.6406 C361.3875,583.7969 361.3563,583.9375 361.3563,584.4219 L361.3563,585.2969 L356.9969,585.2969 L356.9969,582.875 Z " fill="#000000"/><text fill="#000000" font-family="sans-serif" font-size="14" lengthAdjust="spacing" textLength="32" x="373.8" y="586.8467">Role</text><line style="stroke:#181818;stroke-width:0.5;" x1="337" x2="415" y1="598" y2="598"/><text fill="#000000" font-family="sans-serif" font-size="14" lengthAdjust="spacing" textLength="58" x="342" y="614.9951">Student</text><text fill="#000000" font-family="sans-serif" font-size="14" lengthAdjust="spacing" textLength="68" x="342" y="631.292">Professor</text><text fill="#000000" font-family="sans-serif" font-size="14" lengthAdjust="spacing" textLength="46" x="342" y="647.5889">Admin</text><line style="stroke:#181818;stroke-width:0.5;" x1="337" x2="415" y1="654.8906" y2="654.8906"/></g><!--class UserResult--><g id="elem_UserResult"><rect codeLine="89" fill="#F1F1F1" height="194.6719" id="UserResult" rx="2.5" ry="2.5" style="stroke:#181818;stroke-width:0.5;" width="247" x="451.5" y="517"/><ellipse cx="532.75" cy="533" fill="#B4A7E5" rx="11" ry="11" style="stroke:#181818;stroke-width:1.0;"/><path d="M533.7031,529.7813 L535.4219,529.7813 C535.8125,529.7813 536,529.75 536.125,529.6719 C536.3906,529.5156 536.5313,529.2344 536.5313,528.9375 C536.5313,528.6719 536.4219,528.4063 536.1875,528.2344 C536.0156,528.125 535.875,528.0938 535.4219,528.0938 L530.2813,528.0938 C529.8438,528.0938 529.7188,528.1094 529.5625,528.2031 C529.3125,528.3594 529.1563,528.6563 529.1563,528.9375 C529.1563,529.2188 529.2969,529.4688 529.5156,529.6406 C529.6719,529.75 529.8594,529.7813 530.2813,529.7813 L532,529.7813 L532,536.2969 L530.2813,536.2969 C529.8438,536.2969 529.7188,536.3125 529.5625,536.4219 C529.3125,536.5781 529.1563,536.8594 529.1563,537.1563 C529.1563,537.4063 529.2969,537.6719 529.5156,537.8281 C529.6719,537.9531 529.875,538 530.2813,538 L535.4219,538 C536.1719,538 536.5313,537.7188 536.5313,537.1563 C536.5313,536.875 536.4219,536.625 536.1875,536.4531 C536.0156,536.3281 535.875,536.2969 535.4219,536.2969 L533.7031,536.2969 L533.7031,529.7813 Z " fill="#000000"/><text fill="#000000" font-family="sans-serif" font-size="14" font-style="italic" lengthAdjust="spacing" textLength="76" x="553.25" y="537.8467">UserResult</text><line style="stroke:#181818;stroke-width:0.5;" x1="452.5" x2="697.5" y1="549" y2="549"/><ellipse cx="462.5" cy="562.6484" fill="none" rx="3" ry="3" style="stroke:#038048;stroke-width:1.0;"/><text fill="#000000" font-family="sans-serif" font-size="14" lengthAdjust="spacing" textLength="115" x="471.5" y="565.9951">user_id: number</text><ellipse cx="462.5" cy="578.9453" fill="none" rx="3" ry="3" style="stroke:#038048;stroke-width:1.0;"/><text fill="#000000" font-family="sans-serif" font-size="14" lengthAdjust="spacing" textLength="125" x="471.5" y="582.292">game_id: number</text><ellipse cx="462.5" cy="595.2422" fill="none" rx="3" ry="3" style="stroke:#038048;stroke-width:1.0;"/><text fill="#000000" font-family="sans-serif" font-size="14" lengthAdjust="spacing" textLength="98" x="471.5" y="598.5889">game?: Game</text><ellipse cx="462.5" cy="611.5391" fill="none" rx="3" ry="3" style="stroke:#038048;stroke-width:1.0;"/><text fill="#000000" font-family="sans-serif" font-size="14" lengthAdjust="spacing" textLength="221" x="471.5" y="614.8857">answer_results: AnswerResult[]</text><ellipse cx="462.5" cy="627.8359" fill="none" rx="3" ry="3" style="stroke:#038048;stroke-width:1.0;"/><text fill="#000000" font-family="sans-serif" font-size="14" lengthAdjust="spacing" textLength="104" x="471.5" y="631.1826">score: number</text><ellipse cx="462.5" cy="644.1328" fill="none" rx="3" ry="3" style="stroke:#038048;stroke-width:1.0;"/><text fill="#000000" font-family="sans-serif" font-size="14" lengthAdjust="spacing" textLength="201" x="471.5" y="647.4795">correct_questions?: number</text><ellipse cx="462.5" cy="660.4297" fill="none" rx="3" ry="3" style="stroke:#038048;stroke-width:1.0;"/><text fill="#000000" font-family="sans-serif" font-size="14" lengthAdjust="spacing" textLength="142" x="471.5" y="663.7764">survey_title?: string</text><ellipse cx="462.5" cy="676.7266" fill="none" rx="3" ry="3" style="stroke:#038048;stroke-width:1.0;"/><text fill="#000000" font-family="sans-serif" font-size="14" lengthAdjust="spacing" textLength="192" x="471.5" y="680.0732">wrong_questions?: number</text><ellipse cx="462.5" cy="693.0234" fill="none" rx="3" ry="3" style="stroke:#038048;stroke-width:1.0;"/><text fill="#000000" font-family="sans-serif" font-size="14" lengthAdjust="spacing" textLength="183" x="471.5" y="696.3701">total_questions?: number</text><line style="stroke:#181818;stroke-width:0.5;" x1="452.5" x2="697.5" y1="703.6719" y2="703.6719"/></g><!--class Question--><g id="elem_Question"><rect codeLine="100" fill="#F1F1F1" height="194.6719" id="Question" rx="2.5" ry="2.5" style="stroke:#181818;stroke-width:0.5;" width="201" x="733.5" y="517"/><ellipse cx="797.75" cy="533" fill="#ADD1B2" rx="11" ry="11" style="stroke:#181818;stroke-width:1.0;"/><path d="M800.0938,528.6719 C799.1563,528.2344 798.5625,528.0938 797.6875,528.0938 C795.0625,528.0938 793.0625,530.1719 793.0625,532.8906 L793.0625,534.0156 C793.0625,536.5938 795.1719,538.4844 798.0625,538.4844 C799.2813,538.4844 800.4375,538.1875 801.1875,537.6406 C801.7656,537.2344 802.0938,536.7813 802.0938,536.3906 C802.0938,535.9375 801.7031,535.5469 801.2344,535.5469 C801.0156,535.5469 800.8125,535.625 800.625,535.8125 C800.1719,536.2969 800.1719,536.2969 799.9844,536.3906 C799.5625,536.6563 798.875,536.7813 798.1094,536.7813 C796.0625,536.7813 794.7656,535.6875 794.7656,533.9844 L794.7656,532.8906 C794.7656,531.1094 796.0156,529.7969 797.75,529.7969 C798.3281,529.7969 798.9375,529.9531 799.4063,530.2031 C799.8906,530.4844 800.0625,530.7031 800.1563,531.1094 C800.2188,531.5156 800.25,531.6406 800.3906,531.7656 C800.5313,531.9063 800.7656,532.0156 800.9844,532.0156 C801.25,532.0156 801.5156,531.875 801.6875,531.6563 C801.7969,531.5 801.8281,531.3125 801.8281,530.8906 L801.8281,529.4688 C801.8281,529.0313 801.8125,528.9063 801.7188,528.75 C801.5625,528.4844 801.2813,528.3438 800.9844,528.3438 C800.6875,528.3438 800.4844,528.4375 800.2656,528.75 L800.0938,528.6719 Z " fill="#000000"/><text fill="#000000" font-family="sans-serif" font-size="14" lengthAdjust="spacing" textLength="64" x="818.25" y="537.8467">Question</text><line style="stroke:#181818;stroke-width:0.5;" x1="734.5" x2="933.5" y1="549" y2="549"/><ellipse cx="744.5" cy="562.6484" fill="none" rx="3" ry="3" style="stroke:#038048;stroke-width:1.0;"/><text fill="#000000" font-family="sans-serif" font-size="14" lengthAdjust="spacing" textLength="78" x="753.5" y="565.9951">id: number</text><ellipse cx="744.5" cy="578.9453" fill="none" rx="3" ry="3" style="stroke:#038048;stroke-width:1.0;"/><text fill="#000000" font-family="sans-serif" font-size="14" lengthAdjust="spacing" textLength="133" x="753.5" y="582.292">description: string</text><ellipse cx="744.5" cy="595.2422" fill="none" rx="3" ry="3" style="stroke:#038048;stroke-width:1.0;"/><text fill="#000000" font-family="sans-serif" font-size="14" lengthAdjust="spacing" textLength="104" x="753.5" y="598.5889">subject: string</text><ellipse cx="744.5" cy="611.5391" fill="none" rx="3" ry="3" style="stroke:#038048;stroke-width:1.0;"/><text fill="#000000" font-family="sans-serif" font-size="14" lengthAdjust="spacing" textLength="85" x="753.5" y="614.8857">type: string</text><ellipse cx="744.5" cy="627.8359" fill="none" rx="3" ry="3" style="stroke:#038048;stroke-width:1.0;"/><text fill="#000000" font-family="sans-serif" font-size="14" lengthAdjust="spacing" textLength="156" x="753.5" y="631.1826">answer_time: number</text><ellipse cx="744.5" cy="644.1328" fill="none" rx="3" ry="3" style="stroke:#038048;stroke-width:1.0;"/><text fill="#000000" font-family="sans-serif" font-size="14" lengthAdjust="spacing" textLength="128" x="753.5" y="647.4795">answers: Answer[]</text><ellipse cx="744.5" cy="660.4297" fill="none" rx="3" ry="3" style="stroke:#038048;stroke-width:1.0;"/><text fill="#000000" font-family="sans-serif" font-size="14" lengthAdjust="spacing" textLength="113" x="753.5" y="663.7764">resource: string</text><ellipse cx="744.5" cy="676.7266" fill="none" rx="3" ry="3" style="stroke:#038048;stroke-width:1.0;"/><text fill="#000000" font-family="sans-serif" font-size="14" lengthAdjust="spacing" textLength="175" x="753.5" y="680.0732">user_creator_id: number</text><ellipse cx="744.5" cy="693.0234" fill="none" rx="3" ry="3" style="stroke:#038048;stroke-width:1.0;"/><text fill="#000000" font-family="sans-serif" font-size="14" lengthAdjust="spacing" textLength="131" x="753.5" y="696.3701">position?: number</text><line style="stroke:#181818;stroke-width:0.5;" x1="734.5" x2="933.5" y1="703.6719" y2="703.6719"/></g><!--class Type--><g id="elem_Type"><rect codeLine="111" fill="#F1F1F1" height="96.8906" id="Type" rx="2.5" ry="2.5" style="stroke:#181818;stroke-width:0.5;" width="97" x="47.5" y="780"/><ellipse cx="75.55" cy="796" fill="#EB937F" rx="11" ry="11" style="stroke:#181818;stroke-width:1.0;"/><path d="M74.3469,796.875 L75.8,796.875 L75.8,796.9844 C75.8,797.3906 75.8313,797.5469 75.9094,797.7031 C76.0656,797.9531 76.3469,798.1094 76.6438,798.1094 C76.8938,798.1094 77.1594,797.9688 77.3156,797.75 C77.4406,797.5938 77.4719,797.4375 77.4719,796.9844 L77.4719,795.0625 C77.4719,794.9063 77.4719,794.8594 77.4563,794.7031 C77.3938,794.2344 77.0813,793.9219 76.6281,793.9219 C76.3781,793.9219 76.1125,794.0625 75.9406,794.2813 C75.8313,794.4531 75.8,794.6094 75.8,795.0625 L75.8,795.1875 L74.3469,795.1875 L74.3469,792.7813 L78.3313,792.7813 L78.3313,793.6406 C78.3313,794.0469 78.3625,794.2188 78.4406,794.375 C78.6125,794.625 78.8938,794.7813 79.175,794.7813 C79.4406,794.7813 79.7063,794.6406 79.8781,794.4219 C79.9875,794.25 80.0188,794.1094 80.0188,793.6406 L80.0188,791.0938 L72.3938,791.0938 C71.9563,791.0938 71.8313,791.1094 71.675,791.2031 C71.425,791.3594 71.2688,791.6563 71.2688,791.9375 C71.2688,792.2188 71.4094,792.4688 71.6281,792.6406 C71.7844,792.75 71.9719,792.7813 72.3938,792.7813 L72.6438,792.7813 L72.6438,799.2969 L72.3938,799.2969 C71.9875,799.2969 71.8313,799.3125 71.675,799.4219 C71.425,799.5938 71.2688,799.8594 71.2688,800.1563 C71.2688,800.4219 71.4094,800.6719 71.6281,800.8281 C71.7688,800.9531 72.0031,801 72.3938,801 L80.3938,801 L80.3938,798.4219 C80.3938,797.9844 80.3625,797.8438 80.2844,797.6875 C80.1125,797.4375 79.8313,797.2813 79.55,797.2813 C79.2844,797.2813 79.0188,797.3906 78.8469,797.6406 C78.7375,797.7969 78.7063,797.9375 78.7063,798.4219 L78.7063,799.2969 L74.3469,799.2969 L74.3469,796.875 Z " fill="#000000"/><text fill="#000000" font-family="sans-serif" font-size="14" lengthAdjust="spacing" textLength="36" x="92.45" y="800.8467">Type</text><line style="stroke:#181818;stroke-width:0.5;" x1="48.5" x2="143.5" y1="812" y2="812"/><text fill="#000000" font-family="sans-serif" font-size="14" lengthAdjust="spacing" textLength="85" x="53.5" y="828.9951">multioption</text><text fill="#000000" font-family="sans-serif" font-size="14" lengthAdjust="spacing" textLength="71" x="53.5" y="845.292">true_false</text><text fill="#000000" font-family="sans-serif" font-size="14" lengthAdjust="spacing" textLength="38" x="53.5" y="861.5889">short</text><line style="stroke:#181818;stroke-width:0.5;" x1="48.5" x2="143.5" y1="868.8906" y2="868.8906"/></g><!--class QuestionSurvey--><g id="elem_QuestionSurvey"><rect codeLine="116" fill="#F1F1F1" height="113.1875" id="QuestionSurvey" rx="2.5" ry="2.5" style="stroke:#181818;stroke-width:0.5;" width="173" x="179.5" y="772"/><ellipse cx="207.55" cy="788" fill="#B4A7E5" rx="11" ry="11" style="stroke:#181818;stroke-width:1.0;"/><path d="M208.5031,784.7813 L210.2219,784.7813 C210.6125,784.7813 210.8,784.75 210.925,784.6719 C211.1906,784.5156 211.3313,784.2344 211.3313,783.9375 C211.3313,783.6719 211.2219,783.4063 210.9875,783.2344 C210.8156,783.125 210.675,783.0938 210.2219,783.0938 L205.0813,783.0938 C204.6438,783.0938 204.5188,783.1094 204.3625,783.2031 C204.1125,783.3594 203.9563,783.6563 203.9563,783.9375 C203.9563,784.2188 204.0969,784.4688 204.3156,784.6406 C204.4719,784.75 204.6594,784.7813 205.0813,784.7813 L206.8,784.7813 L206.8,791.2969 L205.0813,791.2969 C204.6438,791.2969 204.5188,791.3125 204.3625,791.4219 C204.1125,791.5781 203.9563,791.8594 203.9563,792.1563 C203.9563,792.4063 204.0969,792.6719 204.3156,792.8281 C204.4719,792.9531 204.675,793 205.0813,793 L210.2219,793 C210.9719,793 211.3313,792.7188 211.3313,792.1563 C211.3313,791.875 211.2219,791.625 210.9875,791.4531 C210.8156,791.3281 210.675,791.2969 210.2219,791.2969 L208.5031,791.2969 L208.5031,784.7813 Z " fill="#000000"/><text fill="#000000" font-family="sans-serif" font-size="14" font-style="italic" lengthAdjust="spacing" textLength="112" x="224.45" y="792.8467">QuestionSurvey</text><line style="stroke:#181818;stroke-width:0.5;" x1="180.5" x2="351.5" y1="804" y2="804"/><ellipse cx="190.5" cy="817.6484" fill="none" rx="3" ry="3" style="stroke:#038048;stroke-width:1.0;"/><text fill="#000000" font-family="sans-serif" font-size="14" lengthAdjust="spacing" textLength="147" x="199.5" y="820.9951">question_id: number</text><ellipse cx="190.5" cy="833.9453" fill="none" rx="3" ry="3" style="stroke:#038048;stroke-width:1.0;"/><text fill="#000000" font-family="sans-serif" font-size="14" lengthAdjust="spacing" textLength="131" x="199.5" y="837.292">survey_id: number</text><ellipse cx="190.5" cy="850.2422" fill="none" rx="3" ry="3" style="stroke:#038048;stroke-width:1.0;"/><text fill="#000000" font-family="sans-serif" font-size="14" lengthAdjust="spacing" textLength="124" x="199.5" y="853.5889">position: number</text><ellipse cx="190.5" cy="866.5391" fill="none" rx="3" ry="3" style="stroke:#038048;stroke-width:1.0;"/><text fill="#000000" font-family="sans-serif" font-size="14" lengthAdjust="spacing" textLength="135" x="199.5" y="869.8857">question: Question</text><line style="stroke:#181818;stroke-width:0.5;" x1="180.5" x2="351.5" y1="877.1875" y2="877.1875"/></g><!--class Course--><g id="elem_Course"><rect codeLine="122" fill="#F1F1F1" height="96.8906" id="Course" rx="2.5" ry="2.5" style="stroke:#181818;stroke-width:0.5;" width="159" x="387.5" y="780"/><ellipse cx="438.25" cy="796" fill="#ADD1B2" rx="11" ry="11" style="stroke:#181818;stroke-width:1.0;"/><path d="M440.5938,791.6719 C439.6563,791.2344 439.0625,791.0938 438.1875,791.0938 C435.5625,791.0938 433.5625,793.1719 433.5625,795.8906 L433.5625,797.0156 C433.5625,799.5938 435.6719,801.4844 438.5625,801.4844 C439.7813,801.4844 440.9375,801.1875 441.6875,800.6406 C442.2656,800.2344 442.5938,799.7813 442.5938,799.3906 C442.5938,798.9375 442.2031,798.5469 441.7344,798.5469 C441.5156,798.5469 441.3125,798.625 441.125,798.8125 C440.6719,799.2969 440.6719,799.2969 440.4844,799.3906 C440.0625,799.6563 439.375,799.7813 438.6094,799.7813 C436.5625,799.7813 435.2656,798.6875 435.2656,796.9844 L435.2656,795.8906 C435.2656,794.1094 436.5156,792.7969 438.25,792.7969 C438.8281,792.7969 439.4375,792.9531 439.9063,793.2031 C440.3906,793.4844 440.5625,793.7031 440.6563,794.1094 C440.7188,794.5156 440.75,794.6406 440.8906,794.7656 C441.0313,794.9063 441.2656,795.0156 441.4844,795.0156 C441.75,795.0156 442.0156,794.875 442.1875,794.6563 C442.2969,794.5 442.3281,794.3125 442.3281,793.8906 L442.3281,792.4688 C442.3281,792.0313 442.3125,791.9063 442.2188,791.75 C442.0625,791.4844 441.7813,791.3438 441.4844,791.3438 C441.1875,791.3438 440.9844,791.4375 440.7656,791.75 L440.5938,791.6719 Z " fill="#000000"/><text fill="#000000" font-family="sans-serif" font-size="14" lengthAdjust="spacing" textLength="49" x="458.75" y="800.8467">Course</text><line style="stroke:#181818;stroke-width:0.5;" x1="388.5" x2="545.5" y1="812" y2="812"/><ellipse cx="398.5" cy="825.6484" fill="none" rx="3" ry="3" style="stroke:#038048;stroke-width:1.0;"/><text fill="#000000" font-family="sans-serif" font-size="14" lengthAdjust="spacing" textLength="78" x="407.5" y="828.9951">id: number</text><ellipse cx="398.5" cy="841.9453" fill="none" rx="3" ry="3" style="stroke:#038048;stroke-width:1.0;"/><text fill="#000000" font-family="sans-serif" font-size="14" lengthAdjust="spacing" textLength="91" x="407.5" y="845.292">name: string</text><ellipse cx="398.5" cy="858.2422" fill="none" rx="3" ry="3" style="stroke:#038048;stroke-width:1.0;"/><text fill="#000000" font-family="sans-serif" font-size="14" lengthAdjust="spacing" textLength="133" x="407.5" y="861.5889">description: string</text><line style="stroke:#181818;stroke-width:0.5;" x1="388.5" x2="545.5" y1="868.8906" y2="868.8906"/></g><!--class UserCourse--><g id="elem_UserCourse"><rect codeLine="127" fill="#F1F1F1" height="80.5938" id="UserCourse" rx="2.5" ry="2.5" style="stroke:#181818;stroke-width:0.5;" width="158" x="582" y="788"/><ellipse cx="616.8" cy="804" fill="#B4A7E5" rx="11" ry="11" style="stroke:#181818;stroke-width:1.0;"/><path d="M617.7531,800.7813 L619.4719,800.7813 C619.8625,800.7813 620.05,800.75 620.175,800.6719 C620.4406,800.5156 620.5813,800.2344 620.5813,799.9375 C620.5813,799.6719 620.4719,799.4063 620.2375,799.2344 C620.0656,799.125 619.925,799.0938 619.4719,799.0938 L614.3313,799.0938 C613.8938,799.0938 613.7688,799.1094 613.6125,799.2031 C613.3625,799.3594 613.2063,799.6563 613.2063,799.9375 C613.2063,800.2188 613.3469,800.4688 613.5656,800.6406 C613.7219,800.75 613.9094,800.7813 614.3313,800.7813 L616.05,800.7813 L616.05,807.2969 L614.3313,807.2969 C613.8938,807.2969 613.7688,807.3125 613.6125,807.4219 C613.3625,807.5781 613.2063,807.8594 613.2063,808.1563 C613.2063,808.4063 613.3469,808.6719 613.5656,808.8281 C613.7219,808.9531 613.925,809 614.3313,809 L619.4719,809 C620.2219,809 620.5813,808.7188 620.5813,808.1563 C620.5813,807.875 620.4719,807.625 620.2375,807.4531 C620.0656,807.3281 619.925,807.2969 619.4719,807.2969 L617.7531,807.2969 L617.7531,800.7813 Z " fill="#000000"/><text fill="#000000" font-family="sans-serif" font-size="14" font-style="italic" lengthAdjust="spacing" textLength="82" x="635.2" y="808.8467">UserCourse</text><line style="stroke:#181818;stroke-width:0.5;" x1="583" x2="739" y1="820" y2="820"/><ellipse cx="593" cy="833.6484" fill="none" rx="3" ry="3" style="stroke:#038048;stroke-width:1.0;"/><text fill="#000000" font-family="sans-serif" font-size="14" lengthAdjust="spacing" textLength="132" x="602" y="836.9951">course_id: number</text><ellipse cx="593" cy="849.9453" fill="none" rx="3" ry="3" style="stroke:#038048;stroke-width:1.0;"/><text fill="#000000" font-family="sans-serif" font-size="14" lengthAdjust="spacing" textLength="87" x="602" y="853.292">users: User[]</text><line style="stroke:#181818;stroke-width:0.5;" x1="583" x2="739" y1="860.5938" y2="860.5938"/></g><!--class SurveyCourse--><g id="elem_SurveyCourse"><rect codeLine="131" fill="#F1F1F1" height="80.5938" id="SurveyCourse" rx="2.5" ry="2.5" style="stroke:#181818;stroke-width:0.5;" width="158" x="775" y="788"/><ellipse cx="802.15" cy="804" fill="#B4A7E5" rx="11" ry="11" style="stroke:#181818;stroke-width:1.0;"/><path d="M803.1031,800.7813 L804.8219,800.7813 C805.2125,800.7813 805.4,800.75 805.525,800.6719 C805.7906,800.5156 805.9313,800.2344 805.9313,799.9375 C805.9313,799.6719 805.8219,799.4063 805.5875,799.2344 C805.4156,799.125 805.275,799.0938 804.8219,799.0938 L799.6813,799.0938 C799.2438,799.0938 799.1188,799.1094 798.9625,799.2031 C798.7125,799.3594 798.5563,799.6563 798.5563,799.9375 C798.5563,800.2188 798.6969,800.4688 798.9156,800.6406 C799.0719,800.75 799.2594,800.7813 799.6813,800.7813 L801.4,800.7813 L801.4,807.2969 L799.6813,807.2969 C799.2438,807.2969 799.1188,807.3125 798.9625,807.4219 C798.7125,807.5781 798.5563,807.8594 798.5563,808.1563 C798.5563,808.4063 798.6969,808.6719 798.9156,808.8281 C799.0719,808.9531 799.275,809 799.6813,809 L804.8219,809 C805.5719,809 805.9313,808.7188 805.9313,808.1563 C805.9313,807.875 805.8219,807.625 805.5875,807.4531 C805.4156,807.3281 805.275,807.2969 804.8219,807.2969 L803.1031,807.2969 L803.1031,800.7813 Z " fill="#000000"/><text fill="#000000" font-family="sans-serif" font-size="14" font-style="italic" lengthAdjust="spacing" textLength="99" x="818.85" y="808.8467">SurveyCourse</text><line style="stroke:#181818;stroke-width:0.5;" x1="776" x2="932" y1="820" y2="820"/><ellipse cx="786" cy="833.6484" fill="none" rx="3" ry="3" style="stroke:#038048;stroke-width:1.0;"/><text fill="#000000" font-family="sans-serif" font-size="14" lengthAdjust="spacing" textLength="132" x="795" y="836.9951">course_id: number</text><ellipse cx="786" cy="849.9453" fill="none" rx="3" ry="3" style="stroke:#038048;stroke-width:1.0;"/><text fill="#000000" font-family="sans-serif" font-size="14" lengthAdjust="spacing" textLength="120" x="795" y="853.292">surveys: Survey[]</text><line style="stroke:#181818;stroke-width:0.5;" x1="776" x2="932" y1="860.5938" y2="860.5938"/></g><!--class QuestionCourse--><g id="elem_QuestionCourse"><rect codeLine="135" fill="#F1F1F1" height="80.5938" id="QuestionCourse" rx="2.5" ry="2.5" style="stroke:#181818;stroke-width:0.5;" width="178" x="7" y="1156.5"/><ellipse cx="36.85" cy="1172.5" fill="#B4A7E5" rx="11" ry="11" style="stroke:#181818;stroke-width:1.0;"/><path d="M37.8031,1169.2813 L39.5219,1169.2813 C39.9125,1169.2813 40.1,1169.25 40.225,1169.1719 C40.4906,1169.0156 40.6313,1168.7344 40.6313,1168.4375 C40.6313,1168.1719 40.5219,1167.9063 40.2875,1167.7344 C40.1156,1167.625 39.975,1167.5938 39.5219,1167.5938 L34.3813,1167.5938 C33.9438,1167.5938 33.8188,1167.6094 33.6625,1167.7031 C33.4125,1167.8594 33.2563,1168.1563 33.2563,1168.4375 C33.2563,1168.7188 33.3969,1168.9688 33.6156,1169.1406 C33.7719,1169.25 33.9594,1169.2813 34.3813,1169.2813 L36.1,1169.2813 L36.1,1175.7969 L34.3813,1175.7969 C33.9438,1175.7969 33.8188,1175.8125 33.6625,1175.9219 C33.4125,1176.0781 33.2563,1176.3594 33.2563,1176.6563 C33.2563,1176.9063 33.3969,1177.1719 33.6156,1177.3281 C33.7719,1177.4531 33.975,1177.5 34.3813,1177.5 L39.5219,1177.5 C40.2719,1177.5 40.6313,1177.2188 40.6313,1176.6563 C40.6313,1176.375 40.5219,1176.125 40.2875,1175.9531 C40.1156,1175.8281 39.975,1175.7969 39.5219,1175.7969 L37.8031,1175.7969 L37.8031,1169.2813 Z " fill="#000000"/><text fill="#000000" font-family="sans-serif" font-size="14" font-style="italic" lengthAdjust="spacing" textLength="113" x="54.15" y="1177.3467">QuestionCourse</text><line style="stroke:#181818;stroke-width:0.5;" x1="8" x2="184" y1="1188.5" y2="1188.5"/><ellipse cx="18" cy="1202.1484" fill="none" rx="3" ry="3" style="stroke:#038048;stroke-width:1.0;"/><text fill="#000000" font-family="sans-serif" font-size="14" lengthAdjust="spacing" textLength="132" x="27" y="1205.4951">course_id: number</text><ellipse cx="18" cy="1218.4453" fill="none" rx="3" ry="3" style="stroke:#038048;stroke-width:1.0;"/><text fill="#000000" font-family="sans-serif" font-size="14" lengthAdjust="spacing" textLength="152" x="27" y="1221.792">questions: Question[]</text><line style="stroke:#181818;stroke-width:0.5;" x1="8" x2="184" y1="1229.0938" y2="1229.0938"/></g><!--class ApiAuthService--><g id="elem_ApiAuthService"><rect codeLine="139" fill="#F1F1F1" height="162.0781" id="ApiAuthService" rx="2.5" ry="2.5" style="stroke:#181818;stroke-width:0.5;" width="291" x="220.5" y="1116"/><ellipse cx="306.25" cy="1132" fill="#ADD1B2" rx="11" ry="11" style="stroke:#181818;stroke-width:1.0;"/><path d="M308.5938,1127.6719 C307.6563,1127.2344 307.0625,1127.0938 306.1875,1127.0938 C303.5625,1127.0938 301.5625,1129.1719 301.5625,1131.8906 L301.5625,1133.0156 C301.5625,1135.5938 303.6719,1137.4844 306.5625,1137.4844 C307.7813,1137.4844 308.9375,1137.1875 309.6875,1136.6406 C310.2656,1136.2344 310.5938,1135.7813 310.5938,1135.3906 C310.5938,1134.9375 310.2031,1134.5469 309.7344,1134.5469 C309.5156,1134.5469 309.3125,1134.625 309.125,1134.8125 C308.6719,1135.2969 308.6719,1135.2969 308.4844,1135.3906 C308.0625,1135.6563 307.375,1135.7813 306.6094,1135.7813 C304.5625,1135.7813 303.2656,1134.6875 303.2656,1132.9844 L303.2656,1131.8906 C303.2656,1130.1094 304.5156,1128.7969 306.25,1128.7969 C306.8281,1128.7969 307.4375,1128.9531 307.9063,1129.2031 C308.3906,1129.4844 308.5625,1129.7031 308.6563,1130.1094 C308.7188,1130.5156 308.75,1130.6406 308.8906,1130.7656 C309.0313,1130.9063 309.2656,1131.0156 309.4844,1131.0156 C309.75,1131.0156 310.0156,1130.875 310.1875,1130.6563 C310.2969,1130.5 310.3281,1130.3125 310.3281,1129.8906 L310.3281,1128.4688 C310.3281,1128.0313 310.3125,1127.9063 310.2188,1127.75 C310.0625,1127.4844 309.7813,1127.3438 309.4844,1127.3438 C309.1875,1127.3438 308.9844,1127.4375 308.7656,1127.75 L308.5938,1127.6719 Z " fill="#000000"/><text fill="#000000" font-family="sans-serif" font-size="14" lengthAdjust="spacing" textLength="111" x="326.75" y="1136.8467">ApiAuthService</text><line style="stroke:#181818;stroke-width:0.5;" x1="221.5" x2="510.5" y1="1148" y2="1148"/><rect fill="none" height="6" style="stroke:#C82930;stroke-width:1.0;" width="6" x="228.5" y="1158.6484"/><text fill="#000000" font-family="sans-serif" font-size="14" lengthAdjust="spacing" textLength="265" x="240.5" y="1164.9951">userSubject: BehaviorSubject&lt;User&gt;</text><ellipse cx="231.5" cy="1177.9453" fill="none" rx="3" ry="3" style="stroke:#038048;stroke-width:1.0;"/><text fill="#000000" font-family="sans-serif" font-size="14" lengthAdjust="spacing" textLength="174" x="240.5" y="1181.292">user: Observable&lt;User&gt;</text><rect fill="none" height="6" style="stroke:#C82930;stroke-width:1.0;" width="6" x="228.5" y="1191.2422"/><text fill="#000000" font-family="sans-serif" font-size="14" lengthAdjust="spacing" textLength="103" x="240.5" y="1197.5889">router: Router</text><rect fill="none" height="6" style="stroke:#C82930;stroke-width:1.0;" width="6" x="228.5" y="1207.5391"/><text fill="#000000" font-family="sans-serif" font-size="14" lengthAdjust="spacing" textLength="119" x="240.5" y="1213.8857">http: HttpClient</text><ellipse cx="231.5" cy="1226.8359" fill="none" rx="3" ry="3" style="stroke:#038048;stroke-width:1.0;"/><text fill="#000000" font-family="sans-serif" font-size="14" lengthAdjust="spacing" textLength="109" x="240.5" y="1230.1826">userValue: User</text><line style="stroke:#181818;stroke-width:0.5;" x1="221.5" x2="510.5" y1="1237.4844" y2="1237.4844"/><ellipse cx="231.5" cy="1251.1328" fill="#84BE84" rx="3" ry="3" style="stroke:#038048;stroke-width:1.0;"/><text fill="#000000" font-family="sans-serif" font-size="14" lengthAdjust="spacing" textLength="259" x="240.5" y="1254.4795">login(user: User): Observable&lt;User&gt;</text><ellipse cx="231.5" cy="1267.4297" fill="#84BE84" rx="3" ry="3" style="stroke:#038048;stroke-width:1.0;"/><text fill="#000000" font-family="sans-serif" font-size="14" lengthAdjust="spacing" textLength="175" x="240.5" y="1270.7764">logout(): Promise&lt;void&gt;</text></g><!--class ApiProfessorService--><g id="elem_ApiProfessorService"><rect codeLine="148" fill="#F1F1F1" height="504.3125" id="ApiProfessorService" rx="2.5" ry="2.5" style="stroke:#181818;stroke-width:0.5;" width="680" x="547" y="945"/><ellipse cx="810.25" cy="961" fill="#ADD1B2" rx="11" ry="11" style="stroke:#181818;stroke-width:1.0;"/><path d="M812.5938,956.6719 C811.6563,956.2344 811.0625,956.0938 810.1875,956.0938 C807.5625,956.0938 805.5625,958.1719 805.5625,960.8906 L805.5625,962.0156 C805.5625,964.5938 807.6719,966.4844 810.5625,966.4844 C811.7813,966.4844 812.9375,966.1875 813.6875,965.6406 C814.2656,965.2344 814.5938,964.7813 814.5938,964.3906 C814.5938,963.9375 814.2031,963.5469 813.7344,963.5469 C813.5156,963.5469 813.3125,963.625 813.125,963.8125 C812.6719,964.2969 812.6719,964.2969 812.4844,964.3906 C812.0625,964.6563 811.375,964.7813 810.6094,964.7813 C808.5625,964.7813 807.2656,963.6875 807.2656,961.9844 L807.2656,960.8906 C807.2656,959.1094 808.5156,957.7969 810.25,957.7969 C810.8281,957.7969 811.4375,957.9531 811.9063,958.2031 C812.3906,958.4844 812.5625,958.7031 812.6563,959.1094 C812.7188,959.5156 812.75,959.6406 812.8906,959.7656 C813.0313,959.9063 813.2656,960.0156 813.4844,960.0156 C813.75,960.0156 814.0156,959.875 814.1875,959.6563 C814.2969,959.5 814.3281,959.3125 814.3281,958.8906 L814.3281,957.4688 C814.3281,957.0313 814.3125,956.9063 814.2188,956.75 C814.0625,956.4844 813.7813,956.3438 813.4844,956.3438 C813.1875,956.3438 812.9844,956.4375 812.7656,956.75 L812.5938,956.6719 Z " fill="#000000"/><text fill="#000000" font-family="sans-serif" font-size="14" lengthAdjust="spacing" textLength="145" x="830.75" y="965.8467">ApiProfessorService</text><line style="stroke:#181818;stroke-width:0.5;" x1="548" x2="1226" y1="977" y2="977"/><rect fill="none" height="6" style="stroke:#C82930;stroke-width:1.0;" width="6" x="555" y="987.6484"/><text fill="#000000" font-family="sans-serif" font-size="14" lengthAdjust="spacing" textLength="119" x="567" y="993.9951">http: HttpClient</text><line style="stroke:#181818;stroke-width:0.5;" x1="548" x2="1226" y1="1001.2969" y2="1001.2969"/><rect fill="#F24D5C" height="6" style="stroke:#C82930;stroke-width:1.0;" width="6" x="555" y="1011.9453"/><text fill="#000000" font-family="sans-serif" font-size="14" lengthAdjust="spacing" textLength="433" x="567" y="1018.292">handleError(error: HttpErrorResponse): Observable&lt;never&gt;</text><ellipse cx="558" cy="1031.2422" fill="#84BE84" rx="3" ry="3" style="stroke:#038048;stroke-width:1.0;"/><text fill="#000000" font-family="sans-serif" font-size="14" lengthAdjust="spacing" textLength="430" x="567" y="1034.5889">createQuestion(question: Question): Observable&lt;Message&gt;</text><ellipse cx="558" cy="1047.5391" fill="#84BE84" rx="3" ry="3" style="stroke:#038048;stroke-width:1.0;"/><text fill="#000000" font-family="sans-serif" font-size="14" lengthAdjust="spacing" textLength="293" x="567" y="1050.8857">getQuestions(): Observable&lt;Question[]&gt;</text><ellipse cx="558" cy="1063.8359" fill="#84BE84" rx="3" ry="3" style="stroke:#038048;stroke-width:1.0;"/><text fill="#000000" font-family="sans-serif" font-size="14" lengthAdjust="spacing" textLength="420" x="567" y="1067.1826">getQuestionsByUser(id: number): Observable&lt;Question[]&gt;</text><ellipse cx="558" cy="1080.1328" fill="#84BE84" rx="3" ry="3" style="stroke:#038048;stroke-width:1.0;"/><text fill="#000000" font-family="sans-serif" font-size="14" lengthAdjust="spacing" textLength="385" x="567" y="1083.4795">getQuestionById(id: number): Observable&lt;Question&gt;</text><ellipse cx="558" cy="1096.4297" fill="#84BE84" rx="3" ry="3" style="stroke:#038048;stroke-width:1.0;"/><text fill="#000000" font-family="sans-serif" font-size="14" lengthAdjust="spacing" textLength="382" x="567" y="1099.7764">createSurvey(survey: Survey): Observable&lt;Message&gt;</text><ellipse cx="558" cy="1112.7266" fill="#84BE84" rx="3" ry="3" style="stroke:#038048;stroke-width:1.0;"/><text fill="#000000" font-family="sans-serif" font-size="14" lengthAdjust="spacing" textLength="388" x="567" y="1116.0732">getSurveysByUser(id: number): Observable&lt;Survey[]&gt;</text><ellipse cx="558" cy="1129.0234" fill="#84BE84" rx="3" ry="3" style="stroke:#038048;stroke-width:1.0;"/><text fill="#000000" font-family="sans-serif" font-size="14" lengthAdjust="spacing" textLength="353" x="567" y="1132.3701">getSurveyById(id: number): Observable&lt;Survey&gt;</text><ellipse cx="558" cy="1145.3203" fill="#84BE84" rx="3" ry="3" style="stroke:#038048;stroke-width:1.0;"/><text fill="#000000" font-family="sans-serif" font-size="14" lengthAdjust="spacing" textLength="372" x="567" y="1148.667">getUsersByCourse(id: number): Observable&lt;User[]&gt;</text><ellipse cx="558" cy="1161.6172" fill="#84BE84" rx="3" ry="3" style="stroke:#038048;stroke-width:1.0;"/><text fill="#000000" font-family="sans-serif" font-size="14" lengthAdjust="spacing" textLength="406" x="567" y="1164.9639">getSurveysByCourse(id: number): Observable&lt;Survey[]&gt;</text><ellipse cx="558" cy="1177.9141" fill="#84BE84" rx="3" ry="3" style="stroke:#038048;stroke-width:1.0;"/><text fill="#000000" font-family="sans-serif" font-size="14" lengthAdjust="spacing" textLength="438" x="567" y="1181.2607">getQuestionsByCourse(id: number): Observable&lt;Question[]&gt;</text><ellipse cx="558" cy="1194.2109" fill="#84BE84" rx="3" ry="3" style="stroke:#038048;stroke-width:1.0;"/><text fill="#000000" font-family="sans-serif" font-size="14" lengthAdjust="spacing" textLength="345" x="567" y="1197.5576">createGame(game: Game): Observable&lt;Game&gt;</text><ellipse cx="558" cy="1210.5078" fill="#84BE84" rx="3" ry="3" style="stroke:#038048;stroke-width:1.0;"/><text fill="#000000" font-family="sans-serif" font-size="14" lengthAdjust="spacing" textLength="349" x="567" y="1213.8545">updateGame(game: Game): Observable&lt;Game&gt;</text><ellipse cx="558" cy="1226.8047" fill="#84BE84" rx="3" ry="3" style="stroke:#038048;stroke-width:1.0;"/><text fill="#000000" font-family="sans-serif" font-size="14" lengthAdjust="spacing" textLength="341" x="567" y="1230.1514">getGameById(id: number): Observable&lt;Game&gt;</text><ellipse cx="558" cy="1243.1016" fill="#84BE84" rx="3" ry="3" style="stroke:#038048;stroke-width:1.0;"/><text fill="#000000" font-family="sans-serif" font-size="14" lengthAdjust="spacing" textLength="491" x="567" y="1246.4482">createUserResults(userResults: UserResult[]): Observable&lt;Message&gt;</text><ellipse cx="558" cy="1259.3984" fill="#84BE84" rx="3" ry="3" style="stroke:#038048;stroke-width:1.0;"/><text fill="#000000" font-family="sans-serif" font-size="14" lengthAdjust="spacing" textLength="540" x="567" y="1262.7451">importQuestions(formData: FormData, id: number): Observable&lt;Message&gt;</text><ellipse cx="558" cy="1275.6953" fill="#84BE84" rx="3" ry="3" style="stroke:#038048;stroke-width:1.0;"/><text fill="#000000" font-family="sans-serif" font-size="14" lengthAdjust="spacing" textLength="382" x="567" y="1279.042">exportQuestions(id: number): Observable&lt;Message&gt;</text><ellipse cx="558" cy="1291.9922" fill="#84BE84" rx="3" ry="3" style="stroke:#038048;stroke-width:1.0;"/><text fill="#000000" font-family="sans-serif" font-size="14" lengthAdjust="spacing" textLength="434" x="567" y="1295.3389">updateQuestion(question: Question): Observable&lt;Message&gt;</text><ellipse cx="558" cy="1308.2891" fill="#84BE84" rx="3" ry="3" style="stroke:#038048;stroke-width:1.0;"/><text fill="#000000" font-family="sans-serif" font-size="14" lengthAdjust="spacing" textLength="373" x="567" y="1311.6357">deleteQuestion(id: number): Observable&lt;Message&gt;</text><ellipse cx="558" cy="1324.5859" fill="#84BE84" rx="3" ry="3" style="stroke:#038048;stroke-width:1.0;"/><text fill="#000000" font-family="sans-serif" font-size="14" lengthAdjust="spacing" textLength="386" x="567" y="1327.9326">updateSurvey(survey: Survey): Observable&lt;Message&gt;</text><ellipse cx="558" cy="1340.8828" fill="#84BE84" rx="3" ry="3" style="stroke:#038048;stroke-width:1.0;"/><text fill="#000000" font-family="sans-serif" font-size="14" lengthAdjust="spacing" textLength="357" x="567" y="1344.2295">deleteSurvey(id: number): Observable&lt;Message&gt;</text><ellipse cx="558" cy="1357.1797" fill="#84BE84" rx="3" ry="3" style="stroke:#038048;stroke-width:1.0;"/><text fill="#000000" font-family="sans-serif" font-size="14" lengthAdjust="spacing" textLength="622" x="567" y="1360.5264">deleteSurveyFromCourse(courseId: number, surveyId: number): Observable&lt;Message&gt;</text><ellipse cx="558" cy="1373.4766" fill="#84BE84" rx="3" ry="3" style="stroke:#038048;stroke-width:1.0;"/><text fill="#000000" font-family="sans-serif" font-size="14" lengthAdjust="spacing" textLength="654" x="567" y="1376.8232">deleteQuestionFromCourse(courseId: number, questionId: number): Observable&lt;Message&gt;</text><ellipse cx="558" cy="1389.7734" fill="#84BE84" rx="3" ry="3" style="stroke:#038048;stroke-width:1.0;"/><text fill="#000000" font-family="sans-serif" font-size="14" lengthAdjust="spacing" textLength="589" x="567" y="1393.1201">deleteUserFromCourse(courseId: number, userId: number): Observable&lt;Message&gt;</text><ellipse cx="558" cy="1406.0703" fill="#84BE84" rx="3" ry="3" style="stroke:#038048;stroke-width:1.0;"/><text fill="#000000" font-family="sans-serif" font-size="14" lengthAdjust="spacing" textLength="351" x="567" y="1409.417">deleteGame(id: number): Observable&lt;Message&gt;</text><ellipse cx="558" cy="1422.3672" fill="#84BE84" rx="3" ry="3" style="stroke:#038048;stroke-width:1.0;"/><text fill="#000000" font-family="sans-serif" font-size="14" lengthAdjust="spacing" textLength="506" x="567" y="1425.7139">getGameResultsByGame(gameId: number): Observable&lt;UserResult[]&gt;</text><ellipse cx="558" cy="1438.6641" fill="#84BE84" rx="3" ry="3" style="stroke:#038048;stroke-width:1.0;"/><text fill="#000000" font-family="sans-serif" font-size="14" lengthAdjust="spacing" textLength="441" x="567" y="1442.0107">getGamesByCourse(courseId: number): Observable&lt;Game[]&gt;</text></g><!--class SocketioService--><g id="elem_SocketioService"><rect codeLine="178" fill="#F1F1F1" height="357.6406" id="SocketioService" rx="2.5" ry="2.5" style="stroke:#181818;stroke-width:0.5;" width="430" x="1262" y="1018"/><ellipse cx="1414.25" cy="1034" fill="#ADD1B2" rx="11" ry="11" style="stroke:#181818;stroke-width:1.0;"/><path d="M1416.5938,1029.6719 C1415.6563,1029.2344 1415.0625,1029.0938 1414.1875,1029.0938 C1411.5625,1029.0938 1409.5625,1031.1719 1409.5625,1033.8906 L1409.5625,1035.0156 C1409.5625,1037.5938 1411.6719,1039.4844 1414.5625,1039.4844 C1415.7813,1039.4844 1416.9375,1039.1875 1417.6875,1038.6406 C1418.2656,1038.2344 1418.5938,1037.7813 1418.5938,1037.3906 C1418.5938,1036.9375 1418.2031,1036.5469 1417.7344,1036.5469 C1417.5156,1036.5469 1417.3125,1036.625 1417.125,1036.8125 C1416.6719,1037.2969 1416.6719,1037.2969 1416.4844,1037.3906 C1416.0625,1037.6563 1415.375,1037.7813 1414.6094,1037.7813 C1412.5625,1037.7813 1411.2656,1036.6875 1411.2656,1034.9844 L1411.2656,1033.8906 C1411.2656,1032.1094 1412.5156,1030.7969 1414.25,1030.7969 C1414.8281,1030.7969 1415.4375,1030.9531 1415.9063,1031.2031 C1416.3906,1031.4844 1416.5625,1031.7031 1416.6563,1032.1094 C1416.7188,1032.5156 1416.75,1032.6406 1416.8906,1032.7656 C1417.0313,1032.9063 1417.2656,1033.0156 1417.4844,1033.0156 C1417.75,1033.0156 1418.0156,1032.875 1418.1875,1032.6563 C1418.2969,1032.5 1418.3281,1032.3125 1418.3281,1031.8906 L1418.3281,1030.4688 C1418.3281,1030.0313 1418.3125,1029.9063 1418.2188,1029.75 C1418.0625,1029.4844 1417.7813,1029.3438 1417.4844,1029.3438 C1417.1875,1029.3438 1416.9844,1029.4375 1416.7656,1029.75 L1416.5938,1029.6719 Z " fill="#000000"/><text fill="#000000" font-family="sans-serif" font-size="14" lengthAdjust="spacing" textLength="117" x="1434.75" y="1038.8467">SocketioService</text><line style="stroke:#181818;stroke-width:0.5;" x1="1263" x2="1691" y1="1050" y2="1050"/><rect fill="none" height="6" style="stroke:#C82930;stroke-width:1.0;" width="6" x="1270" y="1060.6484"/><text fill="#000000" font-family="sans-serif" font-size="14" lengthAdjust="spacing" textLength="205" x="1282" y="1066.9951">authService: ApiAuthService</text><rect fill="none" height="6" style="stroke:#C82930;stroke-width:1.0;" width="6" x="1270" y="1076.9453"/><text fill="#000000" font-family="sans-serif" font-size="14" lengthAdjust="spacing" textLength="297" x="1282" y="1083.292">apiProfessorService: ApiProfessorService</text><ellipse cx="1273" cy="1096.2422" fill="none" rx="3" ry="3" style="stroke:#038048;stroke-width:1.0;"/><text fill="#000000" font-family="sans-serif" font-size="14" lengthAdjust="spacing" textLength="83" x="1282" y="1099.5889">socket: any</text><rect fill="none" height="6" style="stroke:#C82930;stroke-width:1.0;" width="6" x="1270" y="1109.5391"/><text fill="#000000" font-family="sans-serif" font-size="14" lengthAdjust="spacing" textLength="361" x="1282" y="1115.8857">usersConnectedSubject: BehaviorSubject&lt;User[]&gt;</text><ellipse cx="1273" cy="1128.8359" fill="none" rx="3" ry="3" style="stroke:#038048;stroke-width:1.0;"/><text fill="#000000" font-family="sans-serif" font-size="14" lengthAdjust="spacing" textLength="191" x="1282" y="1132.1826">users: Observable&lt;User[]&gt;</text><rect fill="none" height="6" style="stroke:#C82930;stroke-width:1.0;" width="6" x="1270" y="1142.1328"/><text fill="#000000" font-family="sans-serif" font-size="14" lengthAdjust="spacing" textLength="106" x="1282" y="1148.4795">userList: User[]</text><rect fill="none" height="6" style="stroke:#C82930;stroke-width:1.0;" width="6" x="1270" y="1158.4297"/><text fill="#000000" font-family="sans-serif" font-size="14" lengthAdjust="spacing" textLength="254" x="1282" y="1164.7764">newGameSubject: Subject&lt;Game&gt;</text><ellipse cx="1273" cy="1177.7266" fill="none" rx="3" ry="3" style="stroke:#038048;stroke-width:1.0;"/><text fill="#000000" font-family="sans-serif" font-size="14" lengthAdjust="spacing" textLength="226" x="1282" y="1181.0732">newGame: Observable&lt;Game&gt;</text><rect fill="none" height="6" style="stroke:#C82930;stroke-width:1.0;" width="6" x="1270" y="1191.0234"/><text fill="#000000" font-family="sans-serif" font-size="14" lengthAdjust="spacing" textLength="286" x="1282" y="1197.3701">gameSubject: BehaviorSubject&lt;Game&gt;</text><ellipse cx="1273" cy="1210.3203" fill="none" rx="3" ry="3" style="stroke:#038048;stroke-width:1.0;"/><text fill="#000000" font-family="sans-serif" font-size="14" lengthAdjust="spacing" textLength="195" x="1282" y="1213.667">game: Observable&lt;Game&gt;</text><rect fill="none" height="6" style="stroke:#C82930;stroke-width:1.0;" width="6" x="1270" y="1223.6172"/><text fill="#000000" font-family="sans-serif" font-size="14" lengthAdjust="spacing" textLength="132" x="1282" y="1229.9639">course_id: number</text><ellipse cx="1273" cy="1242.9141" fill="none" rx="3" ry="3" style="stroke:#038048;stroke-width:1.0;"/><text fill="#000000" font-family="sans-serif" font-size="14" lengthAdjust="spacing" textLength="119" x="1282" y="1246.2607">userValue: User[]</text><ellipse cx="1273" cy="1259.2109" fill="none" rx="3" ry="3" style="stroke:#038048;stroke-width:1.0;"/><text fill="#000000" font-family="sans-serif" font-size="14" lengthAdjust="spacing" textLength="130" x="1282" y="1262.5576">gameValue: Game</text><line style="stroke:#181818;stroke-width:0.5;" x1="1263" x2="1691" y1="1269.8594" y2="1269.8594"/><ellipse cx="1273" cy="1283.5078" fill="#84BE84" rx="3" ry="3" style="stroke:#038048;stroke-width:1.0;"/><text fill="#000000" font-family="sans-serif" font-size="14" lengthAdjust="spacing" textLength="224" x="1282" y="1286.8545">setupSocketConnection(): void</text><ellipse cx="1273" cy="1299.8047" fill="#84BE84" rx="3" ry="3" style="stroke:#038048;stroke-width:1.0;"/><text fill="#000000" font-family="sans-serif" font-size="14" lengthAdjust="spacing" textLength="396" x="1282" y="1303.1514">createGame(game_id: number, courseId: number): void</text><ellipse cx="1273" cy="1316.1016" fill="#84BE84" rx="3" ry="3" style="stroke:#038048;stroke-width:1.0;"/><text fill="#000000" font-family="sans-serif" font-size="14" lengthAdjust="spacing" textLength="404" x="1282" y="1319.4482">closeGame(userResults: UserResult[], game: Game): void</text><ellipse cx="1273" cy="1332.3984" fill="#84BE84" rx="3" ry="3" style="stroke:#038048;stroke-width:1.0;"/><text fill="#000000" font-family="sans-serif" font-size="14" lengthAdjust="spacing" textLength="178" x="1282" y="1335.7451">sendUser(id: string): void</text><ellipse cx="1273" cy="1348.6953" fill="#84BE84" rx="3" ry="3" style="stroke:#038048;stroke-width:1.0;"/><text fill="#000000" font-family="sans-serif" font-size="14" lengthAdjust="spacing" textLength="157" x="1282" y="1352.042">waitForSurveys(): void</text><ellipse cx="1273" cy="1364.9922" fill="#84BE84" rx="3" ry="3" style="stroke:#038048;stroke-width:1.0;"/><text fill="#000000" font-family="sans-serif" font-size="14" lengthAdjust="spacing" textLength="304" x="1282" y="1368.3389">joinSocketCourses(courses: Course[]): void</text></g><!--class SocketioServiceStub--><g id="elem_SocketioServiceStub"><rect codeLine="199" fill="#F1F1F1" height="80.5938" id="SocketioServiceStub" rx="2.5" ry="2.5" style="stroke:#181818;stroke-width:0.5;" width="656" x="1727" y="1156.5"/><ellipse cx="1975.25" cy="1172.5" fill="#ADD1B2" rx="11" ry="11" style="stroke:#181818;stroke-width:1.0;"/><path d="M1977.5938,1168.1719 C1976.6563,1167.7344 1976.0625,1167.5938 1975.1875,1167.5938 C1972.5625,1167.5938 1970.5625,1169.6719 1970.5625,1172.3906 L1970.5625,1173.5156 C1970.5625,1176.0938 1972.6719,1177.9844 1975.5625,1177.9844 C1976.7813,1177.9844 1977.9375,1177.6875 1978.6875,1177.1406 C1979.2656,1176.7344 1979.5938,1176.2813 1979.5938,1175.8906 C1979.5938,1175.4375 1979.2031,1175.0469 1978.7344,1175.0469 C1978.5156,1175.0469 1978.3125,1175.125 1978.125,1175.3125 C1977.6719,1175.7969 1977.6719,1175.7969 1977.4844,1175.8906 C1977.0625,1176.1563 1976.375,1176.2813 1975.6094,1176.2813 C1973.5625,1176.2813 1972.2656,1175.1875 1972.2656,1173.4844 L1972.2656,1172.3906 C1972.2656,1170.6094 1973.5156,1169.2969 1975.25,1169.2969 C1975.8281,1169.2969 1976.4375,1169.4531 1976.9063,1169.7031 C1977.3906,1169.9844 1977.5625,1170.2031 1977.6563,1170.6094 C1977.7188,1171.0156 1977.75,1171.1406 1977.8906,1171.2656 C1978.0313,1171.4063 1978.2656,1171.5156 1978.4844,1171.5156 C1978.75,1171.5156 1979.0156,1171.375 1979.1875,1171.1563 C1979.2969,1171 1979.3281,1170.8125 1979.3281,1170.3906 L1979.3281,1168.9688 C1979.3281,1168.5313 1979.3125,1168.4063 1979.2188,1168.25 C1979.0625,1167.9844 1978.7813,1167.8438 1978.4844,1167.8438 C1978.1875,1167.8438 1977.9844,1167.9375 1977.7656,1168.25 L1977.5938,1168.1719 Z " fill="#000000"/><text fill="#000000" font-family="sans-serif" font-size="14" lengthAdjust="spacing" textLength="151" x="1995.75" y="1177.3467">SocketioServiceStub</text><line style="stroke:#181818;stroke-width:0.5;" x1="1728" x2="2382" y1="1188.5" y2="1188.5"/><line style="stroke:#181818;stroke-width:0.5;" x1="1728" x2="2382" y1="1196.5" y2="1196.5"/><ellipse cx="1738" cy="1210.1484" fill="#84BE84" rx="3" ry="3" style="stroke:#038048;stroke-width:1.0;"/><text fill="#000000" font-family="sans-serif" font-size="14" lengthAdjust="spacing" textLength="630" x="1747" y="1213.4951">socket: { emit(data: string, game: Game, course_id: number, cb: any): void; on(): void; }</text><ellipse cx="1738" cy="1226.4453" fill="#84BE84" rx="3" ry="3" style="stroke:#038048;stroke-width:1.0;"/><text fill="#000000" font-family="sans-serif" font-size="14" lengthAdjust="spacing" textLength="224" x="1747" y="1229.792">setupSocketConnection(): void</text></g><!--SRC=[dLXRRzis57xFhz2ZXoH_m2rg9Dco1jYmBkxsCWm2BHtRR6LI8ocxHf7_liERI4gYBys3JH-TwtTkLAg6I5ayC7a0KNo_AV3lbjQBUS6wtGg49TGWAq5RHJcR5r89oZQEKvOL5m8gDIzMd3T0sCtR3MKAn9fKuFI-WkmQvRLlo0vAMgSMEWbYHFol0wbjZXuGexOS-MdfIBHsBL5kkL1b_oXsFnXWDNoRqWLr26mGyI8EkJ8mBZknXsCMHaLL0wa79kvA054y7x-S5t-wup__3XvPau71_lPi0YJlH1MCUaz_nIHa_TnogKREIADuH5R75hLhTP_nv5WLKOwur4S7g82oTxlSKqbN6eq4tPPZxPHMvoTzba5hXP78SULOCaRmP0u1LYJz9LFlaMJnSQ8QTwXBeXOHG83Q-u0SHdozRYYpoZapnuZH1EaudKvpHXo4FrSDbtXqKY4s9uQih2R2yjQyGsZCaV7IO2AJjZ96GKf4Ckug2tb0G5e4V374QR72KNRwLcYeLFbwc-eKKyF2zBYpQ1iUPMEG8fFEQSPL6ME4lOMbK8DOSOIYn9a3mFoJLi2Umc50xVtAaArRdhocZCgjIODj0-riQ8DnMCoW6ZTiYs87Bkh1915ysDcQeXECZA_SPVDMyQ_0uc8BEVsi7tbV3Dyac_OuOQL4ZVrsfU_Wr_OT-r9rDJ0Bo2V1rvWKRkKUwXrb8rFfw9wSqfFpN1CNSJswaTsNIRmP-WB5oGh3xZQpDWoEnUHKCfDra9A3u6oJ5LHSaMRggIyDtm6vyiZkHDcjlfY561FjI8if3X15Tp2rU7g8igFy_FvekQJQlpWuKn3HuDaX_fIRCCnl9JeerwHnazGipwGgqaNZqSckwipQyAvDBxmmV_fqsEcUIyQuJwVICopkL6TclwI3D5PX4RX8YKL1-lKpKEI3lKZLzAN0m_JGqeTERPSWzhJogkvr34jVbe-m9NlAFU6zZkn3F3h-ME7Ndk0AYfxT2zuf_VJLV5lQLgbsNdp4pwU6-h5os_0DPRCmXdxAg3Jc_YPD1_6cHccqC4CXd4yxAk7zdjFwGnnXFxW6OKwwSx_5pTh0Bq9mCGFzQLaC0UTFYr12wYA3VU-ZtUSUwTcuGbFHtz4liW4dl07bsUGiPGovc-1zF6eyPY7rbyi-7b_giu99RBOaPz9T9EtFCr5PfdD- -c8VoftqqR844Mq13TdUo4hPzfnmy8pSsCKe2MTaHscmUEgTDmlNiLH6Ktprj_KLtEYP_dKIkeZTkX8sk3Jz-3frIJkLQhfhSVw76bvpiVkPA38ldjtfhiXvasg2RwccowGiHZ_OVJKq40bVO_7gdh2sdDXbbcAHPnnrhjhis7_fLTmLrekNAvJwc4-gzM1UerZNpKcbkigkKMZA_pAyN0Uu6duyzftpSc8c-29FTOJU7aOmRYWjsx_Vy-eh86Q3lKF2nfqFDh1Z6E-i-TGYSvS5OsLU47OCwri-SSPmNKDzSf7taRfhIsP46fM_cJUzw0tndi71lAfv2rvpD5WSIsRkt6zYyQ63yJWxeUF4HIowBVXxiTRaoE5jGuBgMfijXvkU09XSVPUO7DQHkRjYeYeYGVqcR-Io8_MkI2Pwa9N0wdvbsbjfyln0g7hMW9djbJhyXLFcGzBkILUyql_hmunomv-fLtpvM_dRfI-oxmNig9hLPgXRZsBlFHOfF2jJdCxQko90-wvukoG1R_y3]--></g></svg>