<?xml version="1.0" encoding="UTF-8" standalone="no"?>
<!DOCTYPE svg PUBLIC "-//W3C//DTD SVG 1.1//EN"
 "http://www.w3.org/Graphics/SVG/1.1/DTD/svg11.dtd">
<!-- Generated by graphviz version 2.47.0 (20210316.0004)
 -->
<!-- Title: dependencies Pages: 1 -->
<svg width="8441pt" height="284pt"
 viewBox="0.00 0.00 8441.00 284.00" xmlns="http://www.w3.org/2000/svg" xmlns:xlink="http://www.w3.org/1999/xlink">
<g id="graph0" class="graph" transform="scale(1 1) rotate(0) translate(4 280)">
<title>dependencies</title>
<polygon fill="white" stroke="transparent" points="-4,4 -4,-280 8437,-280 8437,4 -4,4"/>
<text text-anchor="start" x="4195.51" y="-42.4" font-family="Times-12" font-weight="bold" font-size="14.00">Legend</text>
<polygon fill="#ffffb3" stroke="transparent" points="3982.5,-10 3982.5,-30 4002.5,-30 4002.5,-10 3982.5,-10"/>
<text text-anchor="start" x="4006.13" y="-15.4" font-family="Times-12" font-size="14.00"> &#160;Declarations</text>
<polygon fill="#8dd3c7" stroke="transparent" points="4095.5,-10 4095.5,-30 4115.5,-30 4115.5,-10 4095.5,-10"/>
<text text-anchor="start" x="4119.23" y="-15.4" font-family="Times-12" font-size="14.00"> &#160;Module</text>
<polygon fill="#80b1d3" stroke="transparent" points="4181.5,-10 4181.5,-30 4201.5,-30 4201.5,-10 4181.5,-10"/>
<text text-anchor="start" x="4205.28" y="-15.4" font-family="Times-12" font-size="14.00"> &#160;Bootstrap</text>
<polygon fill="#fdb462" stroke="transparent" points="4278.5,-10 4278.5,-30 4298.5,-30 4298.5,-10 4278.5,-10"/>
<text text-anchor="start" x="4302.17" y="-15.4" font-family="Times-12" font-size="14.00"> &#160;Providers</text>
<polygon fill="#fb8072" stroke="transparent" points="4374.5,-10 4374.5,-30 4394.5,-30 4394.5,-10 4374.5,-10"/>
<text text-anchor="start" x="4398.23" y="-15.4" font-family="Times-12" font-size="14.00"> &#160;Exports</text>
<g id="clust1" class="cluster">
<title>cluster_AppModule</title>
<polygon fill="none" stroke="black" stroke-dasharray="1,5" points="8,-70 8,-268 8425,-268 8425,-70 8,-70"/>
</g>
<g id="clust2" class="cluster">
<title>cluster_AppModule_declarations</title>
<polygon fill="none" stroke="black" points="2916,-78 2916,-130 8417,-130 8417,-78 2916,-78"/>
</g>
<g id="clust37" class="cluster">
<title>cluster_AppModule_providers</title>
<polygon fill="none" stroke="black" points="1703,-78 1703,-130 2908,-130 2908,-78 1703,-78"/>
</g>
<g id="clust34" class="cluster">
<title>cluster_AppModule_imports</title>
<polygon fill="none" stroke="black" points="16,-78 16,-130 1695,-130 1695,-78 16,-78"/>
</g>
<g id="clust36" class="cluster">
<title>cluster_AppModule_bootstrap</title>
<polygon fill="none" stroke="black" points="4375,-208 4375,-260 4499,-260 4499,-208 4375,-208"/>
</g>
<!-- AppComponent -->
<g id="node1" class="node">
<title>AppComponent</title>
<polygon fill="#ffffb3" stroke="black" points="8408.94,-122 8303.06,-122 8303.06,-86 8408.94,-86 8408.94,-122"/>
<text text-anchor="middle" x="8356" y="-99.8" font-family="Times,serif" font-size="14.00">AppComponent</text>
</g>
<!-- AppModule -->
<g id="node32" class="node">
<title>AppModule</title>
<polygon fill="#8dd3c7" stroke="black" points="4478.66,-187 4475.66,-191 4454.66,-191 4451.66,-187 4395.34,-187 4395.34,-151 4478.66,-151 4478.66,-187"/>
<text text-anchor="middle" x="4437" y="-164.8" font-family="Times,serif" font-size="14.00">AppModule</text>
</g>
<!-- AppComponent&#45;&gt;AppModule -->
<g id="edge1" class="edge">
<title>AppComponent&#45;&gt;AppModule</title>
<path fill="none" stroke="black" d="M8356,-122.2C8356,-146.36 8356,-186 8356,-186 8356,-186 4488.69,-186 4488.69,-186"/>
<polygon fill="black" stroke="black" points="4488.69,-182.5 4478.69,-186 4488.69,-189.5 4488.69,-182.5"/>
</g>
<!-- HeaderComponent -->
<g id="node2" class="node">
<title>HeaderComponent</title>
<polygon fill="#ffffb3" stroke="black" points="8284.74,-122 8163.26,-122 8163.26,-86 8284.74,-86 8284.74,-122"/>
<text text-anchor="middle" x="8224" y="-99.8" font-family="Times,serif" font-size="14.00">HeaderComponent</text>
</g>
<!-- HeaderComponent&#45;&gt;AppModule -->
<g id="edge2" class="edge">
<title>HeaderComponent&#45;&gt;AppModule</title>
<path fill="none" stroke="black" d="M8224,-122.15C8224,-145.76 8224,-184 8224,-184 8224,-184 4488.88,-184 4488.88,-184"/>
<polygon fill="black" stroke="black" points="4488.88,-180.5 4478.88,-184 4488.88,-187.5 4488.88,-180.5"/>
</g>
<!-- FooterComponent -->
<g id="node3" class="node">
<title>FooterComponent</title>
<polygon fill="#ffffb3" stroke="black" points="8144.88,-122 8027.12,-122 8027.12,-86 8144.88,-86 8144.88,-122"/>
<text text-anchor="middle" x="8086" y="-99.8" font-family="Times,serif" font-size="14.00">FooterComponent</text>
</g>
<!-- FooterComponent&#45;&gt;AppModule -->
<g id="edge3" class="edge">
<title>FooterComponent&#45;&gt;AppModule</title>
<path fill="none" stroke="black" d="M8086,-122.32C8086,-145.66 8086,-183 8086,-183 8086,-183 4488.92,-183 4488.92,-183"/>
<polygon fill="black" stroke="black" points="4488.92,-179.5 4478.92,-183 4488.92,-186.5 4488.92,-179.5"/>
</g>
<!-- CreateUserFormComponent -->
<g id="node4" class="node">
<title>CreateUserFormComponent</title>
<polygon fill="#ffffb3" stroke="black" points="8009.12,-122 7834.88,-122 7834.88,-86 8009.12,-86 8009.12,-122"/>
<text text-anchor="middle" x="7922" y="-99.8" font-family="Times,serif" font-size="14.00">CreateUserFormComponent</text>
</g>
<!-- CreateUserFormComponent&#45;&gt;AppModule -->
<g id="edge4" class="edge">
<title>CreateUserFormComponent&#45;&gt;AppModule</title>
<path fill="none" stroke="black" d="M7922,-122.25C7922,-145.02 7922,-181 7922,-181 7922,-181 4488.87,-181 4488.87,-181"/>
<polygon fill="black" stroke="black" points="4488.87,-177.5 4478.87,-181 4488.87,-184.5 4488.87,-177.5"/>
</g>
<!-- CreateCourseFormComponent -->
<g id="node5" class="node">
<title>CreateCourseFormComponent</title>
<polygon fill="#ffffb3" stroke="black" points="7816.85,-122 7629.15,-122 7629.15,-86 7816.85,-86 7816.85,-122"/>
<text text-anchor="middle" x="7723" y="-99.8" font-family="Times,serif" font-size="14.00">CreateCourseFormComponent</text>
</g>
<!-- CreateCourseFormComponent&#45;&gt;AppModule -->
<g id="edge5" class="edge">
<title>CreateCourseFormComponent&#45;&gt;AppModule</title>
<path fill="none" stroke="black" d="M7723,-122.01C7723,-144.49 7723,-180 7723,-180 7723,-180 4488.85,-180 4488.85,-180"/>
<polygon fill="black" stroke="black" points="4488.85,-176.5 4478.85,-180 4488.85,-183.5 4488.85,-176.5"/>
</g>
<!-- UserListComponent -->
<g id="node6" class="node">
<title>UserListComponent</title>
<polygon fill="#ffffb3" stroke="black" points="7610.54,-122 7481.46,-122 7481.46,-86 7610.54,-86 7610.54,-122"/>
<text text-anchor="middle" x="7546" y="-99.8" font-family="Times,serif" font-size="14.00">UserListComponent</text>
</g>
<!-- UserListComponent&#45;&gt;AppModule -->
<g id="edge6" class="edge">
<title>UserListComponent&#45;&gt;AppModule</title>
<path fill="none" stroke="black" d="M7546,-122.29C7546,-144.21 7546,-178 7546,-178 7546,-178 4488.89,-178 4488.89,-178"/>
<polygon fill="black" stroke="black" points="4488.89,-174.5 4478.89,-178 4488.89,-181.5 4488.89,-174.5"/>
</g>
<!-- CourseListComponent -->
<g id="node7" class="node">
<title>CourseListComponent</title>
<polygon fill="#ffffb3" stroke="black" points="7463.27,-122 7320.73,-122 7320.73,-86 7463.27,-86 7463.27,-122"/>
<text text-anchor="middle" x="7392" y="-99.8" font-family="Times,serif" font-size="14.00">CourseListComponent</text>
</g>
<!-- CourseListComponent&#45;&gt;AppModule -->
<g id="edge7" class="edge">
<title>CourseListComponent&#45;&gt;AppModule</title>
<path fill="none" stroke="black" d="M7392,-122.04C7392,-143.66 7392,-177 7392,-177 7392,-177 4488.77,-177 4488.77,-177"/>
<polygon fill="black" stroke="black" points="4488.77,-173.5 4478.77,-177 4488.77,-180.5 4488.77,-173.5"/>
</g>
<!-- UpdateUserFormComponent -->
<g id="node8" class="node">
<title>UpdateUserFormComponent</title>
<polygon fill="#ffffb3" stroke="black" points="7302.02,-122 7123.98,-122 7123.98,-86 7302.02,-86 7302.02,-122"/>
<text text-anchor="middle" x="7213" y="-99.8" font-family="Times,serif" font-size="14.00">UpdateUserFormComponent</text>
</g>
<!-- UpdateUserFormComponent&#45;&gt;AppModule -->
<g id="edge8" class="edge">
<title>UpdateUserFormComponent&#45;&gt;AppModule</title>
<path fill="none" stroke="black" d="M7213,-122.28C7213,-143.32 7213,-175 7213,-175 7213,-175 4488.67,-175 4488.67,-175"/>
<polygon fill="black" stroke="black" points="4488.67,-171.5 4478.67,-175 4488.67,-178.5 4488.67,-171.5"/>
</g>
<!-- UpdateCourseFormComponent -->
<g id="node9" class="node">
<title>UpdateCourseFormComponent</title>
<polygon fill="#ffffb3" stroke="black" points="7105.75,-122 6914.25,-122 6914.25,-86 7105.75,-86 7105.75,-122"/>
<text text-anchor="middle" x="7010" y="-99.8" font-family="Times,serif" font-size="14.00">UpdateCourseFormComponent</text>
</g>
<!-- UpdateCourseFormComponent&#45;&gt;AppModule -->
<g id="edge9" class="edge">
<title>UpdateCourseFormComponent&#45;&gt;AppModule</title>
<path fill="none" stroke="black" d="M7010,-122.13C7010,-142.57 7010,-173 7010,-173 7010,-173 4488.72,-173 4488.72,-173"/>
<polygon fill="black" stroke="black" points="4488.72,-169.5 4478.72,-173 4488.72,-176.5 4488.72,-169.5"/>
</g>
<!-- CreateQuestionComponent -->
<g id="node10" class="node">
<title>CreateQuestionComponent</title>
<polygon fill="#ffffb3" stroke="black" points="6896.41,-122 6727.59,-122 6727.59,-86 6896.41,-86 6896.41,-122"/>
<text text-anchor="middle" x="6812" y="-99.8" font-family="Times,serif" font-size="14.00">CreateQuestionComponent</text>
</g>
<!-- CreateQuestionComponent&#45;&gt;AppModule -->
<g id="edge10" class="edge">
<title>CreateQuestionComponent&#45;&gt;AppModule</title>
<path fill="none" stroke="black" d="M6812,-122.22C6812,-142.37 6812,-172 6812,-172 6812,-172 4488.73,-172 4488.73,-172"/>
<polygon fill="black" stroke="black" points="4488.73,-168.5 4478.73,-172 4488.73,-175.5 4488.73,-168.5"/>
</g>
<!-- AnswersComponent -->
<g id="node11" class="node">
<title>AnswersComponent</title>
<polygon fill="#ffffb3" stroke="black" points="6710.31,-122 6579.69,-122 6579.69,-86 6710.31,-86 6710.31,-122"/>
<text text-anchor="middle" x="6645" y="-99.8" font-family="Times,serif" font-size="14.00">AnswersComponent</text>
</g>
<!-- AnswersComponent&#45;&gt;AppModule -->
<g id="edge11" class="edge">
<title>AnswersComponent&#45;&gt;AppModule</title>
<path fill="none" stroke="black" d="M6645,-122.03C6645,-141.58 6645,-170 6645,-170 6645,-170 4489.14,-170 4489.14,-170"/>
<polygon fill="black" stroke="black" points="4489.14,-166.5 4479.14,-170 4489.14,-173.5 4489.14,-166.5"/>
</g>
<!-- QuestionListComponent -->
<g id="node12" class="node">
<title>QuestionListComponent</title>
<polygon fill="#ffffb3" stroke="black" points="6561.66,-122 6408.34,-122 6408.34,-86 6561.66,-86 6561.66,-122"/>
<text text-anchor="middle" x="6485" y="-99.8" font-family="Times,serif" font-size="14.00">QuestionListComponent</text>
</g>
<!-- QuestionListComponent&#45;&gt;AppModule -->
<g id="edge12" class="edge">
<title>QuestionListComponent&#45;&gt;AppModule</title>
<path fill="none" stroke="black" d="M6485,-122.11C6485,-141.34 6485,-169 6485,-169 6485,-169 4488.84,-169 4488.84,-169"/>
<polygon fill="black" stroke="black" points="4488.84,-165.5 4478.84,-169 4488.84,-172.5 4488.84,-165.5"/>
</g>
<!-- LoginFormComponent -->
<g id="node13" class="node">
<title>LoginFormComponent</title>
<polygon fill="#ffffb3" stroke="black" points="6390.61,-122 6245.39,-122 6245.39,-86 6390.61,-86 6390.61,-122"/>
<text text-anchor="middle" x="6318" y="-99.8" font-family="Times,serif" font-size="14.00">LoginFormComponent</text>
</g>
<!-- LoginFormComponent&#45;&gt;AppModule -->
<g id="edge13" class="edge">
<title>LoginFormComponent&#45;&gt;AppModule</title>
<path fill="none" stroke="black" d="M6318,-122.22C6318,-140.83 6318,-167 6318,-167 6318,-167 4488.92,-167 4488.92,-167"/>
<polygon fill="black" stroke="black" points="4488.92,-163.5 4478.92,-167 4488.92,-170.5 4488.92,-163.5"/>
</g>
<!-- StudentHomeComponent -->
<g id="node14" class="node">
<title>StudentHomeComponent</title>
<polygon fill="#ffffb3" stroke="black" points="6227.32,-122 6068.68,-122 6068.68,-86 6227.32,-86 6227.32,-122"/>
<text text-anchor="middle" x="6148" y="-99.8" font-family="Times,serif" font-size="14.00">StudentHomeComponent</text>
</g>
<!-- StudentHomeComponent&#45;&gt;AppModule -->
<g id="edge14" class="edge">
<title>StudentHomeComponent&#45;&gt;AppModule</title>
<path fill="none" stroke="black" d="M6148,-122.27C6148,-140.56 6148,-166 6148,-166 6148,-166 4488.87,-166 4488.87,-166"/>
<polygon fill="black" stroke="black" points="4488.87,-162.5 4478.87,-166 4488.87,-169.5 4488.87,-162.5"/>
</g>
<!-- CreateSurveyComponent -->
<g id="node15" class="node">
<title>CreateSurveyComponent</title>
<polygon fill="#ffffb3" stroke="black" points="6050.52,-122 5893.48,-122 5893.48,-86 6050.52,-86 6050.52,-122"/>
<text text-anchor="middle" x="5972" y="-99.8" font-family="Times,serif" font-size="14.00">CreateSurveyComponent</text>
</g>
<!-- CreateSurveyComponent&#45;&gt;AppModule -->
<g id="edge15" class="edge">
<title>CreateSurveyComponent&#45;&gt;AppModule</title>
<path fill="none" stroke="black" d="M5972,-122C5972,-139.68 5972,-164 5972,-164 5972,-164 4488.85,-164 4488.85,-164"/>
<polygon fill="black" stroke="black" points="4488.85,-160.5 4478.85,-164 4488.85,-167.5 4488.85,-160.5"/>
</g>
<!-- SurveyListComponent -->
<g id="node16" class="node">
<title>SurveyListComponent</title>
<polygon fill="#ffffb3" stroke="black" points="5875.27,-122 5732.73,-122 5732.73,-86 5875.27,-86 5875.27,-122"/>
<text text-anchor="middle" x="5804" y="-99.8" font-family="Times,serif" font-size="14.00">SurveyListComponent</text>
</g>
<!-- SurveyListComponent&#45;&gt;AppModule -->
<g id="edge16" class="edge">
<title>SurveyListComponent&#45;&gt;AppModule</title>
<path fill="none" stroke="black" d="M5804,-122.03C5804,-139.06 5804,-162 5804,-162 5804,-162 4488.66,-162 4488.66,-162"/>
<polygon fill="black" stroke="black" points="4488.66,-158.5 4478.66,-162 4488.66,-165.5 4488.66,-158.5"/>
</g>
<!-- LibraryComponent -->
<g id="node17" class="node">
<title>LibraryComponent</title>
<polygon fill="#ffffb3" stroke="black" points="5714.81,-122 5591.19,-122 5591.19,-86 5714.81,-86 5714.81,-122"/>
<text text-anchor="middle" x="5653" y="-99.8" font-family="Times,serif" font-size="14.00">LibraryComponent</text>
</g>
<!-- LibraryComponent&#45;&gt;AppModule -->
<g id="edge17" class="edge">
<title>LibraryComponent&#45;&gt;AppModule</title>
<path fill="none" stroke="black" d="M5653,-122.04C5653,-138.73 5653,-161 5653,-161 5653,-161 4488.86,-161 4488.86,-161"/>
<polygon fill="black" stroke="black" points="4488.86,-157.5 4478.86,-161 4488.86,-164.5 4488.86,-157.5"/>
</g>
<!-- CourseProfessorDetailsComponent -->
<g id="node18" class="node">
<title>CourseProfessorDetailsComponent</title>
<polygon fill="#ffffb3" stroke="black" points="5573.51,-122 5360.49,-122 5360.49,-86 5573.51,-86 5573.51,-122"/>
<text text-anchor="middle" x="5467" y="-99.8" font-family="Times,serif" font-size="14.00">CourseProfessorDetailsComponent</text>
</g>
<!-- CourseProfessorDetailsComponent&#45;&gt;AppModule -->
<g id="edge18" class="edge">
<title>CourseProfessorDetailsComponent&#45;&gt;AppModule</title>
<path fill="none" stroke="black" d="M5467,-122.01C5467,-138.05 5467,-159 5467,-159 5467,-159 4488.97,-159 4488.97,-159"/>
<polygon fill="black" stroke="black" points="4488.97,-155.5 4478.97,-159 4488.97,-162.5 4488.97,-155.5"/>
</g>
<!-- CourseStudentDetailsComponent -->
<g id="node19" class="node">
<title>CourseStudentDetailsComponent</title>
<polygon fill="#ffffb3" stroke="black" points="5342.92,-122 5139.08,-122 5139.08,-86 5342.92,-86 5342.92,-122"/>
<text text-anchor="middle" x="5241" y="-99.8" font-family="Times,serif" font-size="14.00">CourseStudentDetailsComponent</text>
</g>
<!-- CourseStudentDetailsComponent&#45;&gt;AppModule -->
<g id="edge19" class="edge">
<title>CourseStudentDetailsComponent&#45;&gt;AppModule</title>
<path fill="none" stroke="black" d="M5241,-122.28C5241,-137.95 5241,-158 5241,-158 5241,-158 4488.81,-158 4488.81,-158"/>
<polygon fill="black" stroke="black" points="4488.81,-154.5 4478.81,-158 4488.81,-161.5 4488.81,-154.5"/>
</g>
<!-- LinkUserCourseComponent -->
<g id="node20" class="node">
<title>LinkUserCourseComponent</title>
<polygon fill="#ffffb3" stroke="black" points="5120.86,-122 4947.14,-122 4947.14,-86 5120.86,-86 5120.86,-122"/>
<text text-anchor="middle" x="5034" y="-99.8" font-family="Times,serif" font-size="14.00">LinkUserCourseComponent</text>
</g>
<!-- LinkUserCourseComponent&#45;&gt;AppModule -->
<g id="edge20" class="edge">
<title>LinkUserCourseComponent&#45;&gt;AppModule</title>
<path fill="none" stroke="black" d="M5034,-122.19C5034,-137.18 5034,-156 5034,-156 5034,-156 4488.98,-156 4488.98,-156"/>
<polygon fill="black" stroke="black" points="4488.98,-152.5 4478.98,-156 4488.98,-159.5 4488.98,-152.5"/>
</g>
<!-- LinkSurveyCourseComponent -->
<g id="node21" class="node">
<title>LinkSurveyCourseComponent</title>
<polygon fill="#ffffb3" stroke="black" points="4929.59,-122 4742.41,-122 4742.41,-86 4929.59,-86 4929.59,-122"/>
<text text-anchor="middle" x="4836" y="-99.8" font-family="Times,serif" font-size="14.00">LinkSurveyCourseComponent</text>
</g>
<!-- LinkSurveyCourseComponent&#45;&gt;AppModule -->
<g id="edge21" class="edge">
<title>LinkSurveyCourseComponent&#45;&gt;AppModule</title>
<path fill="none" stroke="black" d="M4836,-122.12C4836,-136.78 4836,-155 4836,-155 4836,-155 4488.95,-155 4488.95,-155"/>
<polygon fill="black" stroke="black" points="4488.95,-151.5 4478.95,-155 4488.95,-158.5 4488.95,-151.5"/>
</g>
<!-- LinkQuestionCourseComponent -->
<g id="node22" class="node">
<title>LinkQuestionCourseComponent</title>
<polygon fill="#ffffb3" stroke="black" points="4723.98,-122 4526.02,-122 4526.02,-86 4723.98,-86 4723.98,-122"/>
<text text-anchor="middle" x="4625" y="-99.8" font-family="Times,serif" font-size="14.00">LinkQuestionCourseComponent</text>
</g>
<!-- LinkQuestionCourseComponent&#45;&gt;AppModule -->
<g id="edge22" class="edge">
<title>LinkQuestionCourseComponent&#45;&gt;AppModule</title>
<path fill="none" stroke="black" d="M4625,-122.25C4625,-136.18 4625,-153 4625,-153 4625,-153 4488.72,-153 4488.72,-153"/>
<polygon fill="black" stroke="black" points="4488.72,-149.5 4478.72,-153 4488.72,-156.5 4488.72,-149.5"/>
</g>
<!-- HostGameComponent -->
<g id="node23" class="node">
<title>HostGameComponent</title>
<polygon fill="#ffffb3" stroke="black" points="4507.7,-122 4366.3,-122 4366.3,-86 4507.7,-86 4507.7,-122"/>
<text text-anchor="middle" x="4437" y="-99.8" font-family="Times,serif" font-size="14.00">HostGameComponent</text>
</g>
<!-- HostGameComponent&#45;&gt;AppModule -->
<g id="edge23" class="edge">
<title>HostGameComponent&#45;&gt;AppModule</title>
<path fill="none" stroke="black" d="M4437,-122.11C4437,-122.11 4437,-140.99 4437,-140.99"/>
<polygon fill="black" stroke="black" points="4433.5,-140.99 4437,-150.99 4440.5,-140.99 4433.5,-140.99"/>
</g>
<!-- StudentGameComponent -->
<g id="node24" class="node">
<title>StudentGameComponent</title>
<polygon fill="#ffffb3" stroke="black" points="4348.54,-122 4191.46,-122 4191.46,-86 4348.54,-86 4348.54,-122"/>
<text text-anchor="middle" x="4270" y="-99.8" font-family="Times,serif" font-size="14.00">StudentGameComponent</text>
</g>
<!-- StudentGameComponent&#45;&gt;AppModule -->
<g id="edge24" class="edge">
<title>StudentGameComponent&#45;&gt;AppModule</title>
<path fill="none" stroke="black" d="M4270,-122.25C4270,-136.18 4270,-153 4270,-153 4270,-153 4385.29,-153 4385.29,-153"/>
<polygon fill="black" stroke="black" points="4385.29,-156.5 4395.29,-153 4385.29,-149.5 4385.29,-156.5"/>
</g>
<!-- CreateGameDialogComponent -->
<g id="node25" class="node">
<title>CreateGameDialogComponent</title>
<polygon fill="#ffffb3" stroke="black" points="4173.89,-122 3984.11,-122 3984.11,-86 4173.89,-86 4173.89,-122"/>
<text text-anchor="middle" x="4079" y="-99.8" font-family="Times,serif" font-size="14.00">CreateGameDialogComponent</text>
</g>
<!-- CreateGameDialogComponent&#45;&gt;AppModule -->
<g id="edge25" class="edge">
<title>CreateGameDialogComponent&#45;&gt;AppModule</title>
<path fill="none" stroke="black" d="M4079,-122.12C4079,-136.78 4079,-155 4079,-155 4079,-155 4385.23,-155 4385.23,-155"/>
<polygon fill="black" stroke="black" points="4385.23,-158.5 4395.23,-155 4385.23,-151.5 4385.23,-158.5"/>
</g>
<!-- StudentProfileComponent -->
<g id="node26" class="node">
<title>StudentProfileComponent</title>
<polygon fill="#ffffb3" stroke="black" points="3966.21,-122 3803.79,-122 3803.79,-86 3966.21,-86 3966.21,-122"/>
<text text-anchor="middle" x="3885" y="-99.8" font-family="Times,serif" font-size="14.00">StudentProfileComponent</text>
</g>
<!-- StudentProfileComponent&#45;&gt;AppModule -->
<g id="edge26" class="edge">
<title>StudentProfileComponent&#45;&gt;AppModule</title>
<path fill="none" stroke="black" d="M3885,-122.19C3885,-137.18 3885,-156 3885,-156 3885,-156 4385.06,-156 4385.06,-156"/>
<polygon fill="black" stroke="black" points="4385.06,-159.5 4395.06,-156 4385.06,-152.5 4385.06,-159.5"/>
</g>
<!-- UpdateQuestionComponent -->
<g id="node27" class="node">
<title>UpdateQuestionComponent</title>
<polygon fill="#ffffb3" stroke="black" points="3786.31,-122 3613.69,-122 3613.69,-86 3786.31,-86 3786.31,-122"/>
<text text-anchor="middle" x="3700" y="-99.8" font-family="Times,serif" font-size="14.00">UpdateQuestionComponent</text>
</g>
<!-- UpdateQuestionComponent&#45;&gt;AppModule -->
<g id="edge27" class="edge">
<title>UpdateQuestionComponent&#45;&gt;AppModule</title>
<path fill="none" stroke="black" d="M3700,-122.28C3700,-137.95 3700,-158 3700,-158 3700,-158 4385.26,-158 4385.26,-158"/>
<polygon fill="black" stroke="black" points="4385.26,-161.5 4395.26,-158 4385.26,-154.5 4385.26,-161.5"/>
</g>
<!-- UpdateSurveyComponent -->
<g id="node28" class="node">
<title>UpdateSurveyComponent</title>
<polygon fill="#ffffb3" stroke="black" points="3595.92,-122 3434.08,-122 3434.08,-86 3595.92,-86 3595.92,-122"/>
<text text-anchor="middle" x="3515" y="-99.8" font-family="Times,serif" font-size="14.00">UpdateSurveyComponent</text>
</g>
<!-- UpdateSurveyComponent&#45;&gt;AppModule -->
<g id="edge28" class="edge">
<title>UpdateSurveyComponent&#45;&gt;AppModule</title>
<path fill="none" stroke="black" d="M3515,-122.01C3515,-138.05 3515,-159 3515,-159 3515,-159 4385.29,-159 4385.29,-159"/>
<polygon fill="black" stroke="black" points="4385.29,-162.5 4395.29,-159 4385.29,-155.5 4385.29,-162.5"/>
</g>
<!-- ErrorPageComponent -->
<g id="node29" class="node">
<title>ErrorPageComponent</title>
<polygon fill="#ffffb3" stroke="black" points="3416.08,-122 3277.92,-122 3277.92,-86 3416.08,-86 3416.08,-122"/>
<text text-anchor="middle" x="3347" y="-99.8" font-family="Times,serif" font-size="14.00">ErrorPageComponent</text>
</g>
<!-- ErrorPageComponent&#45;&gt;AppModule -->
<g id="edge29" class="edge">
<title>ErrorPageComponent&#45;&gt;AppModule</title>
<path fill="none" stroke="black" d="M3347,-122.04C3347,-138.73 3347,-161 3347,-161 3347,-161 4385.27,-161 4385.27,-161"/>
<polygon fill="black" stroke="black" points="4385.27,-164.5 4395.27,-161 4385.27,-157.5 4385.27,-164.5"/>
</g>
<!-- GameDetailsComponent -->
<g id="node30" class="node">
<title>GameDetailsComponent</title>
<polygon fill="#ffffb3" stroke="black" points="3260.41,-122 3105.59,-122 3105.59,-86 3260.41,-86 3260.41,-122"/>
<text text-anchor="middle" x="3183" y="-99.8" font-family="Times,serif" font-size="14.00">GameDetailsComponent</text>
</g>
<!-- GameDetailsComponent&#45;&gt;AppModule -->
<g id="edge30" class="edge">
<title>GameDetailsComponent&#45;&gt;AppModule</title>
<path fill="none" stroke="black" d="M3183,-122.03C3183,-139.06 3183,-162 3183,-162 3183,-162 4385.28,-162 4385.28,-162"/>
<polygon fill="black" stroke="black" points="4385.28,-165.5 4395.28,-162 4385.28,-158.5 4385.28,-165.5"/>
</g>
<!-- GameRevisionComponent -->
<g id="node31" class="node">
<title>GameRevisionComponent</title>
<polygon fill="#ffffb3" stroke="black" points="3088.04,-122 2923.96,-122 2923.96,-86 3088.04,-86 3088.04,-122"/>
<text text-anchor="middle" x="3006" y="-99.8" font-family="Times,serif" font-size="14.00">GameRevisionComponent</text>
</g>
<!-- GameRevisionComponent&#45;&gt;AppModule -->
<g id="edge31" class="edge">
<title>GameRevisionComponent&#45;&gt;AppModule</title>
<path fill="none" stroke="black" d="M3006,-122C3006,-139.68 3006,-164 3006,-164 3006,-164 4385.33,-164 4385.33,-164"/>
<polygon fill="black" stroke="black" points="4385.33,-167.5 4395.33,-164 4385.33,-160.5 4385.33,-167.5"/>
</g>
<!-- AppComponent  -->
<g id="node44" class="node">
<title>AppComponent </title>
<polygon fill="#80b1d3" stroke="black" points="4491.44,-252 4382.56,-252 4382.56,-216 4491.44,-216 4491.44,-252"/>
<text text-anchor="middle" x="4437" y="-229.8" font-family="Times,serif" font-size="14.00">AppComponent </text>
</g>
<!-- AppModule&#45;&gt;AppComponent  -->
<g id="edge44" class="edge">
<title>AppModule&#45;&gt;AppComponent </title>
<path fill="none" stroke="black" stroke-dasharray="1,5" d="M4437,-187.11C4437,-187.11 4437,-205.99 4437,-205.99"/>
<polygon fill="black" stroke="black" points="4433.5,-205.99 4437,-215.99 4440.5,-205.99 4433.5,-205.99"/>
</g>
<!-- BrowserModule -->
<g id="node33" class="node">
<title>BrowserModule</title>
<polygon fill="#8dd3c7" stroke="black" points="1687.47,-122 1684.47,-126 1663.47,-126 1660.47,-122 1580.53,-122 1580.53,-86 1687.47,-86 1687.47,-122"/>
<text text-anchor="middle" x="1634" y="-99.8" font-family="Times,serif" font-size="14.00">BrowserModule</text>
</g>
<!-- BrowserModule&#45;&gt;AppModule -->
<g id="edge32" class="edge">
<title>BrowserModule&#45;&gt;AppModule</title>
<path fill="none" stroke="black" d="M1634,-122.11C1634,-141.34 1634,-169 1634,-169 1634,-169 4385.2,-169 4385.2,-169"/>
<polygon fill="black" stroke="black" points="4385.2,-172.5 4395.2,-169 4385.2,-165.5 4385.2,-172.5"/>
</g>
<!-- AppRoutingModule -->
<g id="node34" class="node">
<title>AppRoutingModule</title>
<polygon fill="#8dd3c7" stroke="black" points="1562.27,-122 1559.27,-126 1538.27,-126 1535.27,-122 1433.73,-122 1433.73,-86 1562.27,-86 1562.27,-122"/>
<text text-anchor="middle" x="1498" y="-99.8" font-family="Times,serif" font-size="14.00">AppRoutingModule</text>
</g>
<!-- AppRoutingModule&#45;&gt;AppModule -->
<g id="edge33" class="edge">
<title>AppRoutingModule&#45;&gt;AppModule</title>
<path fill="none" stroke="black" d="M1519.46,-122.03C1519.46,-141.58 1519.46,-170 1519.46,-170 1519.46,-170 4385.2,-170 4385.2,-170"/>
<polygon fill="black" stroke="black" points="4385.2,-173.5 4395.2,-170 4385.2,-166.5 4385.2,-173.5"/>
</g>
<!-- AppRoutingModule&#45;&gt;AppModule -->
<g id="edge37" class="edge">
<title>AppRoutingModule&#45;&gt;AppModule</title>
<path fill="none" stroke="black" d="M1476.54,-122.22C1476.54,-142.37 1476.54,-172 1476.54,-172 1476.54,-172 4385.15,-172 4385.15,-172"/>
<polygon fill="black" stroke="black" points="4385.15,-175.5 4395.15,-172 4385.15,-168.5 4385.15,-175.5"/>
</g>
<!-- HttpClientModule -->
<g id="node35" class="node">
<title>HttpClientModule</title>
<polygon fill="#8dd3c7" stroke="black" points="1415.16,-122 1412.16,-126 1391.16,-126 1388.16,-122 1296.84,-122 1296.84,-86 1415.16,-86 1415.16,-122"/>
<text text-anchor="middle" x="1356" y="-99.8" font-family="Times,serif" font-size="14.00">HttpClientModule</text>
</g>
<!-- HttpClientModule&#45;&gt;AppModule -->
<g id="edge34" class="edge">
<title>HttpClientModule&#45;&gt;AppModule</title>
<path fill="none" stroke="black" d="M1356,-122.13C1356,-142.57 1356,-173 1356,-173 1356,-173 4385.2,-173 4385.2,-173"/>
<polygon fill="black" stroke="black" points="4385.2,-176.5 4395.2,-173 4385.2,-169.5 4385.2,-176.5"/>
</g>
<!-- ReactiveFormsModule -->
<g id="node36" class="node">
<title>ReactiveFormsModule</title>
<polygon fill="#8dd3c7" stroke="black" points="1279.3,-122 1276.3,-126 1255.3,-126 1252.3,-122 1134.7,-122 1134.7,-86 1279.3,-86 1279.3,-122"/>
<text text-anchor="middle" x="1207" y="-99.8" font-family="Times,serif" font-size="14.00">ReactiveFormsModule</text>
</g>
<!-- ReactiveFormsModule&#45;&gt;AppModule -->
<g id="edge35" class="edge">
<title>ReactiveFormsModule&#45;&gt;AppModule</title>
<path fill="none" stroke="black" d="M1207,-122.28C1207,-143.32 1207,-175 1207,-175 1207,-175 4385.28,-175 4385.28,-175"/>
<polygon fill="black" stroke="black" points="4385.28,-178.5 4395.28,-175 4385.28,-171.5 4385.28,-178.5"/>
</g>
<!-- NgbModule -->
<g id="node37" class="node">
<title>NgbModule</title>
<polygon fill="#8dd3c7" stroke="black" points="1116.66,-122 1113.66,-126 1092.66,-126 1089.66,-122 1033.34,-122 1033.34,-86 1116.66,-86 1116.66,-122"/>
<text text-anchor="middle" x="1075" y="-99.8" font-family="Times,serif" font-size="14.00">NgbModule</text>
</g>
<!-- NgbModule&#45;&gt;AppModule -->
<g id="edge36" class="edge">
<title>NgbModule&#45;&gt;AppModule</title>
<path fill="none" stroke="black" d="M1075,-122.04C1075,-143.66 1075,-177 1075,-177 1075,-177 4385.1,-177 4385.1,-177"/>
<polygon fill="black" stroke="black" points="4385.1,-180.5 4395.1,-177 4385.1,-173.5 4385.1,-180.5"/>
</g>
<!-- BrowserAnimationsModule -->
<g id="node38" class="node">
<title>BrowserAnimationsModule</title>
<polygon fill="#8dd3c7" stroke="black" points="1015.3,-122 1012.3,-126 991.3,-126 988.3,-122 842.7,-122 842.7,-86 1015.3,-86 1015.3,-122"/>
<text text-anchor="middle" x="929" y="-99.8" font-family="Times,serif" font-size="14.00">BrowserAnimationsModule</text>
</g>
<!-- BrowserAnimationsModule&#45;&gt;AppModule -->
<g id="edge38" class="edge">
<title>BrowserAnimationsModule&#45;&gt;AppModule</title>
<path fill="none" stroke="black" d="M929,-122.29C929,-144.21 929,-178 929,-178 929,-178 4385.16,-178 4385.16,-178"/>
<polygon fill="black" stroke="black" points="4385.16,-181.5 4395.16,-178 4385.16,-174.5 4385.16,-181.5"/>
</g>
<!-- MatIconModule -->
<g id="node39" class="node">
<title>MatIconModule</title>
<polygon fill="#8dd3c7" stroke="black" points="824.47,-122 821.47,-126 800.47,-126 797.47,-122 717.53,-122 717.53,-86 824.47,-86 824.47,-122"/>
<text text-anchor="middle" x="771" y="-99.8" font-family="Times,serif" font-size="14.00">MatIconModule</text>
</g>
<!-- MatIconModule&#45;&gt;AppModule -->
<g id="edge39" class="edge">
<title>MatIconModule&#45;&gt;AppModule</title>
<path fill="none" stroke="black" d="M771,-122.01C771,-144.49 771,-180 771,-180 771,-180 4385.2,-180 4385.2,-180"/>
<polygon fill="black" stroke="black" points="4385.2,-183.5 4395.2,-180 4385.2,-176.5 4385.2,-183.5"/>
</g>
<!-- MatSidenavModule -->
<g id="node40" class="node">
<title>MatSidenavModule</title>
<polygon fill="#8dd3c7" stroke="black" points="699.7,-122 696.7,-126 675.7,-126 672.7,-122 572.3,-122 572.3,-86 699.7,-86 699.7,-122"/>
<text text-anchor="middle" x="636" y="-99.8" font-family="Times,serif" font-size="14.00">MatSidenavModule</text>
</g>
<!-- MatSidenavModule&#45;&gt;AppModule -->
<g id="edge40" class="edge">
<title>MatSidenavModule&#45;&gt;AppModule</title>
<path fill="none" stroke="black" d="M636,-122.25C636,-145.02 636,-181 636,-181 636,-181 4385.29,-181 4385.29,-181"/>
<polygon fill="black" stroke="black" points="4385.29,-184.5 4395.29,-181 4385.29,-177.5 4385.29,-184.5"/>
</g>
<!-- MatNativeDateModule -->
<g id="node41" class="node">
<title>MatNativeDateModule</title>
<polygon fill="#8dd3c7" stroke="black" points="553.84,-122 550.84,-126 529.84,-126 526.84,-122 408.16,-122 408.16,-86 553.84,-86 553.84,-122"/>
<text text-anchor="middle" x="481" y="-99.8" font-family="Times,serif" font-size="14.00">MatNativeDateModule</text>
</g>
<!-- MatNativeDateModule&#45;&gt;AppModule -->
<g id="edge41" class="edge">
<title>MatNativeDateModule&#45;&gt;AppModule</title>
<path fill="none" stroke="black" d="M481,-122.32C481,-145.66 481,-183 481,-183 481,-183 4385.25,-183 4385.25,-183"/>
<polygon fill="black" stroke="black" points="4385.25,-186.5 4395.25,-183 4385.25,-179.5 4385.25,-186.5"/>
</g>
<!-- MaterialExampleModule -->
<g id="node42" class="node">
<title>MaterialExampleModule</title>
<polygon fill="#8dd3c7" stroke="black" points="390.23,-122 387.23,-126 366.23,-126 363.23,-122 233.77,-122 233.77,-86 390.23,-86 390.23,-122"/>
<text text-anchor="middle" x="312" y="-99.8" font-family="Times,serif" font-size="14.00">MaterialExampleModule</text>
</g>
<!-- MaterialExampleModule&#45;&gt;AppModule -->
<g id="edge42" class="edge">
<title>MaterialExampleModule&#45;&gt;AppModule</title>
<path fill="none" stroke="black" d="M312,-122.15C312,-145.76 312,-184 312,-184 312,-184 4385.17,-184 4385.17,-184"/>
<polygon fill="black" stroke="black" points="4385.17,-187.5 4395.17,-184 4385.17,-180.5 4385.17,-187.5"/>
</g>
<!-- TranslateModule.forRoot(args) -->
<g id="node43" class="node">
<title>TranslateModule.forRoot(args)</title>
<polygon fill="#8dd3c7" stroke="black" points="215.82,-122 212.82,-126 191.82,-126 188.82,-122 24.18,-122 24.18,-86 215.82,-86 215.82,-122"/>
<text text-anchor="middle" x="120" y="-99.8" font-family="Times,serif" font-size="14.00">TranslateModule.forRoot(args)</text>
</g>
<!-- TranslateModule.forRoot(args)&#45;&gt;AppModule -->
<g id="edge43" class="edge">
<title>TranslateModule.forRoot(args)&#45;&gt;AppModule</title>
<path fill="none" stroke="black" d="M120,-122.2C120,-146.36 120,-186 120,-186 120,-186 4385.31,-186 4385.31,-186"/>
<polygon fill="black" stroke="black" points="4385.31,-189.5 4395.31,-186 4385.31,-182.5 4385.31,-189.5"/>
</g>
<!-- { provide: HTTP_INTERCEPTORS, useClass: JwtInterceptor, multi: &#160;} -->
<g id="node45" class="node">
<title>{ provide: HTTP_INTERCEPTORS, useClass: JwtInterceptor, multi: &#160;}</title>
<ellipse fill="#fdb462" stroke="black" cx="2611" cy="-104" rx="289.13" ry="18"/>
<text text-anchor="middle" x="2611" y="-99.8" font-family="Times,serif" font-size="14.00">{ provide: HTTP_INTERCEPTORS, useClass: JwtInterceptor, multi: &#160;}</text>
</g>
<!-- { provide: HTTP_INTERCEPTORS, useClass: JwtInterceptor, multi: &#160;}&#45;&gt;AppModule -->
<g id="edge45" class="edge">
<title>{ provide: HTTP_INTERCEPTORS, useClass: JwtInterceptor, multi: &#160;}&#45;&gt;AppModule</title>
<path fill="none" stroke="black" d="M2611,-122.27C2611,-140.56 2611,-166 2611,-166 2611,-166 4384.99,-166 4384.99,-166"/>
<polygon fill="black" stroke="black" points="4384.99,-169.5 4394.99,-166 4384.99,-162.5 4384.99,-169.5"/>
</g>
<!-- { provide: HTTP_INTERCEPTORS, useClass: ErrorInterceptor, multi: &#160;} -->
<g id="node46" class="node">
<title>{ provide: HTTP_INTERCEPTORS, useClass: ErrorInterceptor, multi: &#160;}</title>
<ellipse fill="#fdb462" stroke="black" cx="2007" cy="-104" rx="296.05" ry="18"/>
<text text-anchor="middle" x="2007" y="-99.8" font-family="Times,serif" font-size="14.00">{ provide: HTTP_INTERCEPTORS, useClass: ErrorInterceptor, multi: &#160;}</text>
</g>
<!-- { provide: HTTP_INTERCEPTORS, useClass: ErrorInterceptor, multi: &#160;}&#45;&gt;AppModule -->
<g id="edge46" class="edge">
<title>{ provide: HTTP_INTERCEPTORS, useClass: ErrorInterceptor, multi: &#160;}&#45;&gt;AppModule</title>
<path fill="none" stroke="black" d="M2007,-122.22C2007,-140.83 2007,-167 2007,-167 2007,-167 4385.33,-167 4385.33,-167"/>
<polygon fill="black" stroke="black" points="4385.33,-170.5 4395.33,-167 4385.33,-163.5 4385.33,-170.5"/>
</g>
</g>
</svg>
