<?xml version="1.0" encoding="UTF-8" standalone="no"?>
<!DOCTYPE svg PUBLIC "-//W3C//DTD SVG 1.1//EN"
 "http://www.w3.org/Graphics/SVG/1.1/DTD/svg11.dtd">
<!-- Generated by graphviz version 2.47.0 (20210316.0004)
 -->
<!-- Title: dependencies Pages: 1 -->
<svg width="7002pt" height="211pt"
 viewBox="0.00 0.00 7002.00 211.00" xmlns="http://www.w3.org/2000/svg" xmlns:xlink="http://www.w3.org/1999/xlink">
<g id="graph0" class="graph" transform="scale(1 1) rotate(0) translate(4 207)">
<title>dependencies</title>
<polygon fill="white" stroke="transparent" points="-4,4 -4,-207 6998,-207 6998,4 -4,4"/>
<text text-anchor="start" x="3476.01" y="-42.4" font-family="Times-12" font-weight="bold" font-size="14.00">Legend</text>
<polygon fill="#ffffb3" stroke="transparent" points="3263,-10 3263,-30 3283,-30 3283,-10 3263,-10"/>
<text text-anchor="start" x="3286.63" y="-15.4" font-family="Times-12" font-size="14.00"> &#160;Declarations</text>
<polygon fill="#8dd3c7" stroke="transparent" points="3376,-10 3376,-30 3396,-30 3396,-10 3376,-10"/>
<text text-anchor="start" x="3399.73" y="-15.4" font-family="Times-12" font-size="14.00"> &#160;Module</text>
<polygon fill="#80b1d3" stroke="transparent" points="3462,-10 3462,-30 3482,-30 3482,-10 3462,-10"/>
<text text-anchor="start" x="3485.78" y="-15.4" font-family="Times-12" font-size="14.00"> &#160;Bootstrap</text>
<polygon fill="#fdb462" stroke="transparent" points="3559,-10 3559,-30 3579,-30 3579,-10 3559,-10"/>
<text text-anchor="start" x="3582.67" y="-15.4" font-family="Times-12" font-size="14.00"> &#160;Providers</text>
<polygon fill="#fb8072" stroke="transparent" points="3655,-10 3655,-30 3675,-30 3675,-10 3655,-10"/>
<text text-anchor="start" x="3678.73" y="-15.4" font-family="Times-12" font-size="14.00"> &#160;Exports</text>
<g id="clust1" class="cluster">
<title>cluster_MaterialExampleModule</title>
<polygon fill="none" stroke="black" stroke-dasharray="1,5" points="8,-70 8,-195 6986,-195 6986,-70 8,-70"/>
</g>
<g id="clust4" class="cluster">
<title>cluster_MaterialExampleModule_exports</title>
<polygon fill="none" stroke="black" points="16,-135 16,-187 6978,-187 6978,-135 16,-135"/>
</g>
<!-- A11yModule  -->
<g id="node1" class="node">
<title>A11yModule </title>
<polygon fill="#fb8072" stroke="black" points="6970.16,-179 6875.84,-179 6875.84,-143 6970.16,-143 6970.16,-179"/>
<text text-anchor="middle" x="6923" y="-156.8" font-family="Times,serif" font-size="14.00">A11yModule </text>
</g>
<!-- CdkAccordionModule  -->
<g id="node2" class="node">
<title>CdkAccordionModule </title>
<polygon fill="#fb8072" stroke="black" points="6857.97,-179 6712.03,-179 6712.03,-143 6857.97,-143 6857.97,-179"/>
<text text-anchor="middle" x="6785" y="-156.8" font-family="Times,serif" font-size="14.00">CdkAccordionModule </text>
</g>
<!-- ClipboardModule  -->
<g id="node3" class="node">
<title>ClipboardModule </title>
<polygon fill="#fb8072" stroke="black" points="6694.54,-179 6575.46,-179 6575.46,-143 6694.54,-143 6694.54,-179"/>
<text text-anchor="middle" x="6635" y="-156.8" font-family="Times,serif" font-size="14.00">ClipboardModule </text>
</g>
<!-- CdkListboxModule  -->
<g id="node4" class="node">
<title>CdkListboxModule </title>
<polygon fill="#fb8072" stroke="black" points="6557.66,-179 6428.34,-179 6428.34,-143 6557.66,-143 6557.66,-179"/>
<text text-anchor="middle" x="6493" y="-156.8" font-family="Times,serif" font-size="14.00">CdkListboxModule </text>
</g>
<!-- CdkMenuModule  -->
<g id="node5" class="node">
<title>CdkMenuModule </title>
<polygon fill="#fb8072" stroke="black" points="6410.55,-179 6291.45,-179 6291.45,-143 6410.55,-143 6410.55,-179"/>
<text text-anchor="middle" x="6351" y="-156.8" font-family="Times,serif" font-size="14.00">CdkMenuModule </text>
</g>
<!-- CdkStepperModule  -->
<g id="node6" class="node">
<title>CdkStepperModule </title>
<polygon fill="#fb8072" stroke="black" points="6273.65,-179 6144.35,-179 6144.35,-143 6273.65,-143 6273.65,-179"/>
<text text-anchor="middle" x="6209" y="-156.8" font-family="Times,serif" font-size="14.00">CdkStepperModule </text>
</g>
<!-- CdkTableModule  -->
<g id="node7" class="node">
<title>CdkTableModule </title>
<polygon fill="#fb8072" stroke="black" points="6126.26,-179 6007.74,-179 6007.74,-143 6126.26,-143 6126.26,-179"/>
<text text-anchor="middle" x="6067" y="-156.8" font-family="Times,serif" font-size="14.00">CdkTableModule </text>
</g>
<!-- CdkTreeModule  -->
<g id="node8" class="node">
<title>CdkTreeModule </title>
<polygon fill="#fb8072" stroke="black" points="5990.03,-179 5877.97,-179 5877.97,-143 5990.03,-143 5990.03,-179"/>
<text text-anchor="middle" x="5934" y="-156.8" font-family="Times,serif" font-size="14.00">CdkTreeModule </text>
</g>
<!-- DragDropModule  -->
<g id="node9" class="node">
<title>DragDropModule </title>
<polygon fill="#fb8072" stroke="black" points="5859.8,-179 5740.2,-179 5740.2,-143 5859.8,-143 5859.8,-179"/>
<text text-anchor="middle" x="5800" y="-156.8" font-family="Times,serif" font-size="14.00">DragDropModule </text>
</g>
<!-- MatAutocompleteModule  -->
<g id="node10" class="node">
<title>MatAutocompleteModule </title>
<polygon fill="#fb8072" stroke="black" points="5722.41,-179 5557.59,-179 5557.59,-143 5722.41,-143 5722.41,-179"/>
<text text-anchor="middle" x="5640" y="-156.8" font-family="Times,serif" font-size="14.00">MatAutocompleteModule </text>
</g>
<!-- MatBadgeModule  -->
<g id="node11" class="node">
<title>MatBadgeModule </title>
<polygon fill="#fb8072" stroke="black" points="5539.87,-179 5418.13,-179 5418.13,-143 5539.87,-143 5539.87,-179"/>
<text text-anchor="middle" x="5479" y="-156.8" font-family="Times,serif" font-size="14.00">MatBadgeModule </text>
</g>
<!-- MatBottomSheetModule  -->
<g id="node12" class="node">
<title>MatBottomSheetModule </title>
<polygon fill="#fb8072" stroke="black" points="5400.21,-179 5241.79,-179 5241.79,-143 5400.21,-143 5400.21,-179"/>
<text text-anchor="middle" x="5321" y="-156.8" font-family="Times,serif" font-size="14.00">MatBottomSheetModule </text>
</g>
<!-- MatButtonModule  -->
<g id="node13" class="node">
<title>MatButtonModule </title>
<polygon fill="#fb8072" stroke="black" points="5223.72,-179 5100.28,-179 5100.28,-143 5223.72,-143 5223.72,-179"/>
<text text-anchor="middle" x="5162" y="-156.8" font-family="Times,serif" font-size="14.00">MatButtonModule </text>
</g>
<!-- MatButtonToggleModule  -->
<g id="node14" class="node">
<title>MatButtonToggleModule </title>
<polygon fill="#fb8072" stroke="black" points="5081.88,-179 4918.12,-179 4918.12,-143 5081.88,-143 5081.88,-179"/>
<text text-anchor="middle" x="5000" y="-156.8" font-family="Times,serif" font-size="14.00">MatButtonToggleModule </text>
</g>
<!-- MatCardModule  -->
<g id="node15" class="node">
<title>MatCardModule </title>
<polygon fill="#fb8072" stroke="black" points="4900.31,-179 4787.69,-179 4787.69,-143 4900.31,-143 4900.31,-179"/>
<text text-anchor="middle" x="4844" y="-156.8" font-family="Times,serif" font-size="14.00">MatCardModule </text>
</g>
<!-- MatCheckboxModule  -->
<g id="node16" class="node">
<title>MatCheckboxModule </title>
<polygon fill="#fb8072" stroke="black" points="4769.37,-179 4626.63,-179 4626.63,-143 4769.37,-143 4769.37,-179"/>
<text text-anchor="middle" x="4698" y="-156.8" font-family="Times,serif" font-size="14.00">MatCheckboxModule </text>
</g>
<!-- MatChipsModule  -->
<g id="node17" class="node">
<title>MatChipsModule </title>
<polygon fill="#fb8072" stroke="black" points="4609.27,-179 4490.73,-179 4490.73,-143 4609.27,-143 4609.27,-179"/>
<text text-anchor="middle" x="4550" y="-156.8" font-family="Times,serif" font-size="14.00">MatChipsModule </text>
</g>
<!-- MatStepperModule  -->
<g id="node18" class="node">
<title>MatStepperModule </title>
<polygon fill="#fb8072" stroke="black" points="4473.36,-179 4344.64,-179 4344.64,-143 4473.36,-143 4473.36,-179"/>
<text text-anchor="middle" x="4409" y="-156.8" font-family="Times,serif" font-size="14.00">MatStepperModule </text>
</g>
<!-- MatDatepickerModule  -->
<g id="node19" class="node">
<title>MatDatepickerModule </title>
<polygon fill="#fb8072" stroke="black" points="4326.51,-179 4179.49,-179 4179.49,-143 4326.51,-143 4326.51,-179"/>
<text text-anchor="middle" x="4253" y="-156.8" font-family="Times,serif" font-size="14.00">MatDatepickerModule </text>
</g>
<!-- MatDialogModule  -->
<g id="node20" class="node">
<title>MatDialogModule </title>
<polygon fill="#fb8072" stroke="black" points="4161.7,-179 4038.3,-179 4038.3,-143 4161.7,-143 4161.7,-179"/>
<text text-anchor="middle" x="4100" y="-156.8" font-family="Times,serif" font-size="14.00">MatDialogModule </text>
</g>
<!-- MatDividerModule  -->
<g id="node21" class="node">
<title>MatDividerModule </title>
<polygon fill="#fb8072" stroke="black" points="4020.36,-179 3891.64,-179 3891.64,-143 4020.36,-143 4020.36,-179"/>
<text text-anchor="middle" x="3956" y="-156.8" font-family="Times,serif" font-size="14.00">MatDividerModule </text>
</g>
<!-- MatExpansionModule  -->
<g id="node22" class="node">
<title>MatExpansionModule </title>
<polygon fill="#fb8072" stroke="black" points="3873.2,-179 3728.8,-179 3728.8,-143 3873.2,-143 3873.2,-179"/>
<text text-anchor="middle" x="3801" y="-156.8" font-family="Times,serif" font-size="14.00">MatExpansionModule </text>
</g>
<!-- MatGridListModule  -->
<g id="node23" class="node">
<title>MatGridListModule </title>
<polygon fill="#fb8072" stroke="black" points="3710.54,-179 3577.46,-179 3577.46,-143 3710.54,-143 3710.54,-179"/>
<text text-anchor="middle" x="3644" y="-156.8" font-family="Times,serif" font-size="14.00">MatGridListModule </text>
</g>
<!-- MatIconModule  -->
<g id="node24" class="node">
<title>MatIconModule </title>
<polygon fill="#fb8072" stroke="black" points="3559.48,-179 3448.52,-179 3448.52,-143 3559.48,-143 3559.48,-179"/>
<text text-anchor="middle" x="3504" y="-156.8" font-family="Times,serif" font-size="14.00">MatIconModule </text>
</g>
<!-- MatInputModule  -->
<g id="node25" class="node">
<title>MatInputModule </title>
<polygon fill="#fb8072" stroke="black" points="3430.65,-179 3315.35,-179 3315.35,-143 3430.65,-143 3430.65,-179"/>
<text text-anchor="middle" x="3373" y="-156.8" font-family="Times,serif" font-size="14.00">MatInputModule </text>
</g>
<!-- MatListModule  -->
<g id="node26" class="node">
<title>MatListModule </title>
<polygon fill="#fb8072" stroke="black" points="3297.88,-179 3190.12,-179 3190.12,-143 3297.88,-143 3297.88,-179"/>
<text text-anchor="middle" x="3244" y="-156.8" font-family="Times,serif" font-size="14.00">MatListModule </text>
</g>
<!-- MatMenuModule  -->
<g id="node27" class="node">
<title>MatMenuModule </title>
<polygon fill="#fb8072" stroke="black" points="3172.26,-179 3053.74,-179 3053.74,-143 3172.26,-143 3172.26,-179"/>
<text text-anchor="middle" x="3113" y="-156.8" font-family="Times,serif" font-size="14.00">MatMenuModule </text>
</g>
<!-- MatNativeDateModule  -->
<g id="node28" class="node">
<title>MatNativeDateModule </title>
<polygon fill="#fb8072" stroke="black" points="3035.84,-179 2886.16,-179 2886.16,-143 3035.84,-143 3035.84,-179"/>
<text text-anchor="middle" x="2961" y="-156.8" font-family="Times,serif" font-size="14.00">MatNativeDateModule </text>
</g>
<!-- MatPaginatorModule  -->
<g id="node29" class="node">
<title>MatPaginatorModule </title>
<polygon fill="#fb8072" stroke="black" points="2868.75,-179 2729.25,-179 2729.25,-143 2868.75,-143 2868.75,-179"/>
<text text-anchor="middle" x="2799" y="-156.8" font-family="Times,serif" font-size="14.00">MatPaginatorModule </text>
</g>
<!-- MatProgressBarModule  -->
<g id="node30" class="node">
<title>MatProgressBarModule </title>
<polygon fill="#fb8072" stroke="black" points="2711.02,-179 2556.98,-179 2556.98,-143 2711.02,-143 2711.02,-179"/>
<text text-anchor="middle" x="2634" y="-156.8" font-family="Times,serif" font-size="14.00">MatProgressBarModule </text>
</g>
<!-- MatProgressSpinnerModule  -->
<g id="node31" class="node">
<title>MatProgressSpinnerModule </title>
<polygon fill="#fb8072" stroke="black" points="2538.86,-179 2361.14,-179 2361.14,-143 2538.86,-143 2538.86,-179"/>
<text text-anchor="middle" x="2450" y="-156.8" font-family="Times,serif" font-size="14.00">MatProgressSpinnerModule </text>
</g>
<!-- MatRadioModule  -->
<g id="node32" class="node">
<title>MatRadioModule </title>
<polygon fill="#fb8072" stroke="black" points="2343.54,-179 2224.46,-179 2224.46,-143 2343.54,-143 2343.54,-179"/>
<text text-anchor="middle" x="2284" y="-156.8" font-family="Times,serif" font-size="14.00">MatRadioModule </text>
</g>
<!-- MatRippleModule  -->
<g id="node33" class="node">
<title>MatRippleModule </title>
<polygon fill="#fb8072" stroke="black" points="2206.43,-179 2083.57,-179 2083.57,-143 2206.43,-143 2206.43,-179"/>
<text text-anchor="middle" x="2145" y="-156.8" font-family="Times,serif" font-size="14.00">MatRippleModule </text>
</g>
<!-- MatSelectModule  -->
<g id="node34" class="node">
<title>MatSelectModule </title>
<polygon fill="#fb8072" stroke="black" points="2065.81,-179 1946.19,-179 1946.19,-143 2065.81,-143 2065.81,-179"/>
<text text-anchor="middle" x="2006" y="-156.8" font-family="Times,serif" font-size="14.00">MatSelectModule </text>
</g>
<!-- MatSidenavModule  -->
<g id="node35" class="node">
<title>MatSidenavModule </title>
<polygon fill="#fb8072" stroke="black" points="1928.2,-179 1797.8,-179 1797.8,-143 1928.2,-143 1928.2,-179"/>
<text text-anchor="middle" x="1863" y="-156.8" font-family="Times,serif" font-size="14.00">MatSidenavModule </text>
</g>
<!-- MatSliderModule  -->
<g id="node36" class="node">
<title>MatSliderModule </title>
<polygon fill="#fb8072" stroke="black" points="1779.54,-179 1660.46,-179 1660.46,-143 1779.54,-143 1779.54,-179"/>
<text text-anchor="middle" x="1720" y="-156.8" font-family="Times,serif" font-size="14.00">MatSliderModule </text>
</g>
<!-- MatSlideToggleModule  -->
<g id="node37" class="node">
<title>MatSlideToggleModule </title>
<polygon fill="#fb8072" stroke="black" points="1642.04,-179 1487.96,-179 1487.96,-143 1642.04,-143 1642.04,-179"/>
<text text-anchor="middle" x="1565" y="-156.8" font-family="Times,serif" font-size="14.00">MatSlideToggleModule </text>
</g>
<!-- MatSnackBarModule  -->
<g id="node38" class="node">
<title>MatSnackBarModule </title>
<polygon fill="#fb8072" stroke="black" points="1470.02,-179 1329.98,-179 1329.98,-143 1470.02,-143 1470.02,-179"/>
<text text-anchor="middle" x="1400" y="-156.8" font-family="Times,serif" font-size="14.00">MatSnackBarModule </text>
</g>
<!-- MatSortModule  -->
<g id="node39" class="node">
<title>MatSortModule </title>
<polygon fill="#fb8072" stroke="black" points="1312.43,-179 1203.57,-179 1203.57,-143 1312.43,-143 1312.43,-179"/>
<text text-anchor="middle" x="1258" y="-156.8" font-family="Times,serif" font-size="14.00">MatSortModule </text>
</g>
<!-- MatTableModule  -->
<g id="node40" class="node">
<title>MatTableModule </title>
<polygon fill="#fb8072" stroke="black" points="1185.97,-179 1068.03,-179 1068.03,-143 1185.97,-143 1185.97,-179"/>
<text text-anchor="middle" x="1127" y="-156.8" font-family="Times,serif" font-size="14.00">MatTableModule </text>
</g>
<!-- MatTabsModule  -->
<g id="node41" class="node">
<title>MatTabsModule </title>
<polygon fill="#fb8072" stroke="black" points="1050.31,-179 937.69,-179 937.69,-143 1050.31,-143 1050.31,-179"/>
<text text-anchor="middle" x="994" y="-156.8" font-family="Times,serif" font-size="14.00">MatTabsModule </text>
</g>
<!-- MatToolbarModule  -->
<g id="node42" class="node">
<title>MatToolbarModule </title>
<polygon fill="#fb8072" stroke="black" points="919.92,-179 790.08,-179 790.08,-143 919.92,-143 919.92,-179"/>
<text text-anchor="middle" x="855" y="-156.8" font-family="Times,serif" font-size="14.00">MatToolbarModule </text>
</g>
<!-- MatTooltipModule  -->
<g id="node43" class="node">
<title>MatTooltipModule </title>
<polygon fill="#fb8072" stroke="black" points="772.32,-179 645.68,-179 645.68,-143 772.32,-143 772.32,-179"/>
<text text-anchor="middle" x="709" y="-156.8" font-family="Times,serif" font-size="14.00">MatTooltipModule </text>
</g>
<!-- MatTreeModule  -->
<g id="node44" class="node">
<title>MatTreeModule </title>
<polygon fill="#fb8072" stroke="black" points="627.74,-179 516.26,-179 516.26,-143 627.74,-143 627.74,-179"/>
<text text-anchor="middle" x="572" y="-156.8" font-family="Times,serif" font-size="14.00">MatTreeModule </text>
</g>
<!-- OverlayModule  -->
<g id="node45" class="node">
<title>OverlayModule </title>
<polygon fill="#fb8072" stroke="black" points="498.14,-179 389.86,-179 389.86,-143 498.14,-143 498.14,-179"/>
<text text-anchor="middle" x="444" y="-156.8" font-family="Times,serif" font-size="14.00">OverlayModule </text>
</g>
<!-- PortalModule  -->
<g id="node46" class="node">
<title>PortalModule </title>
<polygon fill="#fb8072" stroke="black" points="372.49,-179 275.51,-179 275.51,-143 372.49,-143 372.49,-179"/>
<text text-anchor="middle" x="324" y="-156.8" font-family="Times,serif" font-size="14.00">PortalModule </text>
</g>
<!-- ScrollingModule  -->
<g id="node47" class="node">
<title>ScrollingModule </title>
<polygon fill="#fb8072" stroke="black" points="258.38,-179 143.62,-179 143.62,-143 258.38,-143 258.38,-179"/>
<text text-anchor="middle" x="201" y="-156.8" font-family="Times,serif" font-size="14.00">ScrollingModule </text>
</g>
<!-- DialogModule  -->
<g id="node48" class="node">
<title>DialogModule </title>
<polygon fill="#fb8072" stroke="black" points="125.65,-179 24.35,-179 24.35,-143 125.65,-143 125.65,-179"/>
<text text-anchor="middle" x="75" y="-156.8" font-family="Times,serif" font-size="14.00">DialogModule </text>
</g>
<!-- MaterialExampleModule -->
<g id="node49" class="node">
<title>MaterialExampleModule</title>
<polygon fill="#8dd3c7" stroke="black" points="3516.23,-114 3513.23,-118 3492.23,-118 3489.23,-114 3359.77,-114 3359.77,-78 3516.23,-78 3516.23,-114"/>
<text text-anchor="middle" x="3438" y="-91.8" font-family="Times,serif" font-size="14.00">MaterialExampleModule</text>
</g>
<!-- MaterialExampleModule&#45;&gt;A11yModule  -->
<g id="edge1" class="edge">
<title>MaterialExampleModule&#45;&gt;A11yModule </title>
<path fill="none" stroke="black" stroke-dasharray="5,2" d="M3507.92,-114.08C3507.92,-115.85 3507.92,-117 3507.92,-117 3507.92,-117 6923,-117 6923,-117 6923,-117 6923,-132.85 6923,-132.85"/>
<polygon fill="black" stroke="black" points="6919.5,-132.85 6923,-142.85 6926.5,-132.85 6919.5,-132.85"/>
</g>
<!-- MaterialExampleModule&#45;&gt;CdkAccordionModule  -->
<g id="edge2" class="edge">
<title>MaterialExampleModule&#45;&gt;CdkAccordionModule </title>
<path fill="none" stroke="black" stroke-dasharray="5,2" d="M3499.47,-114.17C3499.47,-118.05 3499.47,-121 3499.47,-121 3499.47,-121 6785,-121 6785,-121 6785,-121 6785,-132.87 6785,-132.87"/>
<polygon fill="black" stroke="black" points="6781.5,-132.87 6785,-142.87 6788.5,-132.87 6781.5,-132.87"/>
</g>
<!-- MaterialExampleModule&#45;&gt;ClipboardModule  -->
<g id="edge3" class="edge">
<title>MaterialExampleModule&#45;&gt;ClipboardModule </title>
<path fill="none" stroke="black" stroke-dasharray="5,2" d="M3491.02,-114.14C3491.02,-120.46 3491.02,-126 3491.02,-126 3491.02,-126 6635,-126 6635,-126 6635,-126 6635,-132.68 6635,-132.68"/>
<polygon fill="black" stroke="black" points="6631.5,-132.68 6635,-142.68 6638.5,-132.68 6631.5,-132.68"/>
</g>
<!-- MaterialExampleModule&#45;&gt;CdkListboxModule  -->
<g id="edge4" class="edge">
<title>MaterialExampleModule&#45;&gt;CdkListboxModule </title>
<path fill="none" stroke="black" stroke-dasharray="5,2" d="M3482.56,-114.19C3482.56,-122.28 3482.56,-130 3482.56,-130 3482.56,-130 6493,-130 6493,-130 6493,-130 6493,-132.97 6493,-132.97"/>
<polygon fill="black" stroke="black" points="6489.5,-132.97 6493,-142.97 6496.5,-132.97 6489.5,-132.97"/>
</g>
<!-- MaterialExampleModule&#45;&gt;CdkMenuModule  -->
<g id="edge5" class="edge">
<title>MaterialExampleModule&#45;&gt;CdkMenuModule </title>
<path fill="none" stroke="black" stroke-dasharray="5,2" d="M3474.11,-114.13C3474.11,-124.31 3474.11,-135 3474.11,-135 3474.11,-135 6351,-135 6351,-135 6351,-135 6351,-135.79 6351,-135.79"/>
<polygon fill="black" stroke="black" points="6347.5,-132.94 6351,-142.94 6354.5,-132.94 6347.5,-132.94"/>
</g>
<!-- MaterialExampleModule&#45;&gt;CdkStepperModule  -->
<g id="edge6" class="edge">
<title>MaterialExampleModule&#45;&gt;CdkStepperModule </title>
<path fill="none" stroke="black" stroke-dasharray="5,2" d="M3465.66,-114.49C3465.66,-126.14 3465.66,-139 3465.66,-139 3465.66,-139 6209,-139 6209,-139 6209,-139 6209,-139.38 6209,-139.38"/>
<polygon fill="black" stroke="black" points="6205.5,-132.83 6209,-142.83 6212.5,-132.83 6205.5,-132.83"/>
</g>
<!-- MaterialExampleModule&#45;&gt;CdkTableModule  -->
<g id="edge7" class="edge">
<title>MaterialExampleModule&#45;&gt;CdkTableModule </title>
<path fill="none" stroke="black" stroke-dasharray="5,2" d="M3516.32,-80C3952.96,-80 6067,-80 6067,-80 6067,-80 6067,-132.62 6067,-132.62"/>
<polygon fill="black" stroke="black" points="6063.5,-132.62 6067,-142.62 6070.5,-132.62 6063.5,-132.62"/>
</g>
<!-- MaterialExampleModule&#45;&gt;CdkTreeModule  -->
<g id="edge8" class="edge">
<title>MaterialExampleModule&#45;&gt;CdkTreeModule </title>
<path fill="none" stroke="black" stroke-dasharray="5,2" d="M3516.48,-82C3940,-82 5934,-82 5934,-82 5934,-82 5934,-132.68 5934,-132.68"/>
<polygon fill="black" stroke="black" points="5930.5,-132.68 5934,-142.68 5937.5,-132.68 5930.5,-132.68"/>
</g>
<!-- MaterialExampleModule&#45;&gt;DragDropModule  -->
<g id="edge9" class="edge">
<title>MaterialExampleModule&#45;&gt;DragDropModule </title>
<path fill="none" stroke="black" stroke-dasharray="5,2" d="M3516.25,-84C3925.4,-84 5800,-84 5800,-84 5800,-84 5800,-132.75 5800,-132.75"/>
<polygon fill="black" stroke="black" points="5796.5,-132.75 5800,-142.75 5803.5,-132.75 5796.5,-132.75"/>
</g>
<!-- MaterialExampleModule&#45;&gt;MatAutocompleteModule  -->
<g id="edge10" class="edge">
<title>MaterialExampleModule&#45;&gt;MatAutocompleteModule </title>
<path fill="none" stroke="black" stroke-dasharray="5,2" d="M3516.37,-86C3908.63,-86 5640,-86 5640,-86 5640,-86 5640,-132.84 5640,-132.84"/>
<polygon fill="black" stroke="black" points="5636.5,-132.84 5640,-142.84 5643.5,-132.84 5636.5,-132.84"/>
</g>
<!-- MaterialExampleModule&#45;&gt;MatBadgeModule  -->
<g id="edge11" class="edge">
<title>MaterialExampleModule&#45;&gt;MatBadgeModule </title>
<path fill="none" stroke="black" stroke-dasharray="5,2" d="M3516.45,-88C3890.97,-88 5479,-88 5479,-88 5479,-88 5479,-132.96 5479,-132.96"/>
<polygon fill="black" stroke="black" points="5475.5,-132.96 5479,-142.96 5482.5,-132.96 5475.5,-132.96"/>
</g>
<!-- MaterialExampleModule&#45;&gt;MatBottomSheetModule  -->
<g id="edge12" class="edge">
<title>MaterialExampleModule&#45;&gt;MatBottomSheetModule </title>
<path fill="none" stroke="black" stroke-dasharray="5,2" d="M3516.51,-90C3872.88,-90 5321,-90 5321,-90 5321,-90 5321,-132.72 5321,-132.72"/>
<polygon fill="black" stroke="black" points="5317.5,-132.72 5321,-142.72 5324.5,-132.72 5317.5,-132.72"/>
</g>
<!-- MaterialExampleModule&#45;&gt;MatButtonModule  -->
<g id="edge13" class="edge">
<title>MaterialExampleModule&#45;&gt;MatButtonModule </title>
<path fill="none" stroke="black" stroke-dasharray="5,2" d="M3516.27,-92C3853.09,-92 5162,-92 5162,-92 5162,-92 5162,-132.87 5162,-132.87"/>
<polygon fill="black" stroke="black" points="5158.5,-132.87 5162,-142.87 5165.5,-132.87 5158.5,-132.87"/>
</g>
<!-- MaterialExampleModule&#45;&gt;MatButtonToggleModule  -->
<g id="edge14" class="edge">
<title>MaterialExampleModule&#45;&gt;MatButtonToggleModule </title>
<path fill="none" stroke="black" stroke-dasharray="5,2" d="M3516.26,-94C3832.62,-94 5000,-94 5000,-94 5000,-94 5000,-132.69 5000,-132.69"/>
<polygon fill="black" stroke="black" points="4996.5,-132.69 5000,-142.69 5003.5,-132.69 4996.5,-132.69"/>
</g>
<!-- MaterialExampleModule&#45;&gt;MatCardModule  -->
<g id="edge15" class="edge">
<title>MaterialExampleModule&#45;&gt;MatCardModule </title>
<path fill="none" stroke="black" stroke-dasharray="5,2" d="M3516.35,-96C3812.11,-96 4844,-96 4844,-96 4844,-96 4844,-132.89 4844,-132.89"/>
<polygon fill="black" stroke="black" points="4840.5,-132.89 4844,-142.89 4847.5,-132.89 4840.5,-132.89"/>
</g>
<!-- MaterialExampleModule&#45;&gt;MatCheckboxModule  -->
<g id="edge16" class="edge">
<title>MaterialExampleModule&#45;&gt;MatCheckboxModule </title>
<path fill="none" stroke="black" stroke-dasharray="5,2" d="M3516.34,-98C3791.62,-98 4698,-98 4698,-98 4698,-98 4698,-132.78 4698,-132.78"/>
<polygon fill="black" stroke="black" points="4694.5,-132.78 4698,-142.78 4701.5,-132.78 4694.5,-132.78"/>
</g>
<!-- MaterialExampleModule&#45;&gt;MatChipsModule  -->
<g id="edge17" class="edge">
<title>MaterialExampleModule&#45;&gt;MatChipsModule </title>
<path fill="none" stroke="black" stroke-dasharray="5,2" d="M3516.64,-100C3770.22,-100 4550,-100 4550,-100 4550,-100 4550,-132.7 4550,-132.7"/>
<polygon fill="black" stroke="black" points="4546.5,-132.7 4550,-142.7 4553.5,-132.7 4546.5,-132.7"/>
</g>
<!-- MaterialExampleModule&#45;&gt;MatStepperModule  -->
<g id="edge18" class="edge">
<title>MaterialExampleModule&#45;&gt;MatStepperModule </title>
<path fill="none" stroke="black" stroke-dasharray="5,2" d="M3516.64,-102C3747.8,-102 4409,-102 4409,-102 4409,-102 4409,-132.98 4409,-132.98"/>
<polygon fill="black" stroke="black" points="4405.5,-132.98 4409,-142.98 4412.5,-132.98 4405.5,-132.98"/>
</g>
<!-- MaterialExampleModule&#45;&gt;MatDatepickerModule  -->
<g id="edge19" class="edge">
<title>MaterialExampleModule&#45;&gt;MatDatepickerModule </title>
<path fill="none" stroke="black" stroke-dasharray="5,2" d="M3516.52,-104C3720.78,-104 4253,-104 4253,-104 4253,-104 4253,-132.96 4253,-132.96"/>
<polygon fill="black" stroke="black" points="4249.5,-132.96 4253,-142.96 4256.5,-132.96 4249.5,-132.96"/>
</g>
<!-- MaterialExampleModule&#45;&gt;MatDialogModule  -->
<g id="edge20" class="edge">
<title>MaterialExampleModule&#45;&gt;MatDialogModule </title>
<path fill="none" stroke="black" stroke-dasharray="5,2" d="M3516.54,-106C3691.9,-106 4100,-106 4100,-106 4100,-106 4100,-132.99 4100,-132.99"/>
<polygon fill="black" stroke="black" points="4096.5,-132.99 4100,-142.99 4103.5,-132.99 4096.5,-132.99"/>
</g>
<!-- MaterialExampleModule&#45;&gt;MatDividerModule  -->
<g id="edge21" class="edge">
<title>MaterialExampleModule&#45;&gt;MatDividerModule </title>
<path fill="none" stroke="black" stroke-dasharray="5,2" d="M3516.39,-108C3661.2,-108 3956,-108 3956,-108 3956,-108 3956,-132.76 3956,-132.76"/>
<polygon fill="black" stroke="black" points="3952.5,-132.76 3956,-142.76 3959.5,-132.76 3952.5,-132.76"/>
</g>
<!-- MaterialExampleModule&#45;&gt;MatExpansionModule  -->
<g id="edge22" class="edge">
<title>MaterialExampleModule&#45;&gt;MatExpansionModule </title>
<path fill="none" stroke="black" stroke-dasharray="5,2" d="M3516.32,-110C3623.03,-110 3801,-110 3801,-110 3801,-110 3801,-132.88 3801,-132.88"/>
<polygon fill="black" stroke="black" points="3797.5,-132.88 3801,-142.88 3804.5,-132.88 3797.5,-132.88"/>
</g>
<!-- MaterialExampleModule&#45;&gt;MatGridListModule  -->
<g id="edge23" class="edge">
<title>MaterialExampleModule&#45;&gt;MatGridListModule </title>
<path fill="none" stroke="black" stroke-dasharray="5,2" d="M3516.47,-112C3574.68,-112 3644,-112 3644,-112 3644,-112 3644,-132.75 3644,-132.75"/>
<polygon fill="black" stroke="black" points="3640.5,-132.75 3644,-142.75 3647.5,-132.75 3640.5,-132.75"/>
</g>
<!-- MaterialExampleModule&#45;&gt;MatIconModule  -->
<g id="edge24" class="edge">
<title>MaterialExampleModule&#45;&gt;MatIconModule </title>
<path fill="none" stroke="black" stroke-dasharray="5,2" d="M3457.21,-114.11C3457.21,-114.11 3457.21,-132.99 3457.21,-132.99"/>
<polygon fill="black" stroke="black" points="3453.71,-132.99 3457.21,-142.99 3460.71,-132.99 3453.71,-132.99"/>
</g>
<!-- MaterialExampleModule&#45;&gt;MatInputModule  -->
<g id="edge25" class="edge">
<title>MaterialExampleModule&#45;&gt;MatInputModule </title>
<path fill="none" stroke="black" stroke-dasharray="5,2" d="M3421.71,-114.11C3421.71,-114.11 3421.71,-132.99 3421.71,-132.99"/>
<polygon fill="black" stroke="black" points="3418.21,-132.99 3421.71,-142.99 3425.21,-132.99 3418.21,-132.99"/>
</g>
<!-- MaterialExampleModule&#45;&gt;MatListModule  -->
<g id="edge26" class="edge">
<title>MaterialExampleModule&#45;&gt;MatListModule </title>
<path fill="none" stroke="black" stroke-dasharray="5,2" d="M3359.65,-112C3305.81,-112 3244,-112 3244,-112 3244,-112 3244,-132.75 3244,-132.75"/>
<polygon fill="black" stroke="black" points="3240.5,-132.75 3244,-142.75 3247.5,-132.75 3240.5,-132.75"/>
</g>
<!-- MaterialExampleModule&#45;&gt;MatMenuModule  -->
<g id="edge27" class="edge">
<title>MaterialExampleModule&#45;&gt;MatMenuModule </title>
<path fill="none" stroke="black" stroke-dasharray="5,2" d="M3359.74,-110C3263.57,-110 3113,-110 3113,-110 3113,-110 3113,-132.88 3113,-132.88"/>
<polygon fill="black" stroke="black" points="3109.5,-132.88 3113,-142.88 3116.5,-132.88 3109.5,-132.88"/>
</g>
<!-- MaterialExampleModule&#45;&gt;MatNativeDateModule  -->
<g id="edge28" class="edge">
<title>MaterialExampleModule&#45;&gt;MatNativeDateModule </title>
<path fill="none" stroke="black" stroke-dasharray="5,2" d="M3359.5,-108C3224.1,-108 2961,-108 2961,-108 2961,-108 2961,-132.76 2961,-132.76"/>
<polygon fill="black" stroke="black" points="2957.5,-132.76 2961,-142.76 2964.5,-132.76 2957.5,-132.76"/>
</g>
<!-- MaterialExampleModule&#45;&gt;MatPaginatorModule  -->
<g id="edge29" class="edge">
<title>MaterialExampleModule&#45;&gt;MatPaginatorModule </title>
<path fill="none" stroke="black" stroke-dasharray="5,2" d="M3359.65,-106C3189.01,-106 2799,-106 2799,-106 2799,-106 2799,-132.99 2799,-132.99"/>
<polygon fill="black" stroke="black" points="2795.5,-132.99 2799,-142.99 2802.5,-132.99 2795.5,-132.99"/>
</g>
<!-- MaterialExampleModule&#45;&gt;MatProgressBarModule  -->
<g id="edge30" class="edge">
<title>MaterialExampleModule&#45;&gt;MatProgressBarModule </title>
<path fill="none" stroke="black" stroke-dasharray="5,2" d="M3359.45,-104C3157.14,-104 2634,-104 2634,-104 2634,-104 2634,-132.96 2634,-132.96"/>
<polygon fill="black" stroke="black" points="2630.5,-132.96 2634,-142.96 2637.5,-132.96 2630.5,-132.96"/>
</g>
<!-- MaterialExampleModule&#45;&gt;MatProgressSpinnerModule  -->
<g id="edge31" class="edge">
<title>MaterialExampleModule&#45;&gt;MatProgressSpinnerModule </title>
<path fill="none" stroke="black" stroke-dasharray="5,2" d="M3359.65,-102C3125.96,-102 2450,-102 2450,-102 2450,-102 2450,-132.98 2450,-132.98"/>
<polygon fill="black" stroke="black" points="2446.5,-132.98 2450,-142.98 2453.5,-132.98 2446.5,-132.98"/>
</g>
<!-- MaterialExampleModule&#45;&gt;MatRadioModule  -->
<g id="edge32" class="edge">
<title>MaterialExampleModule&#45;&gt;MatRadioModule </title>
<path fill="none" stroke="black" stroke-dasharray="5,2" d="M3359.59,-100C3099.85,-100 2284,-100 2284,-100 2284,-100 2284,-132.7 2284,-132.7"/>
<polygon fill="black" stroke="black" points="2280.5,-132.7 2284,-142.7 2287.5,-132.7 2280.5,-132.7"/>
</g>
<!-- MaterialExampleModule&#45;&gt;MatRippleModule  -->
<g id="edge33" class="edge">
<title>MaterialExampleModule&#45;&gt;MatRippleModule </title>
<path fill="none" stroke="black" stroke-dasharray="5,2" d="M3359.55,-98C3079.41,-98 2145,-98 2145,-98 2145,-98 2145,-132.78 2145,-132.78"/>
<polygon fill="black" stroke="black" points="2141.5,-132.78 2145,-142.78 2148.5,-132.78 2141.5,-132.78"/>
</g>
<!-- MaterialExampleModule&#45;&gt;MatSelectModule  -->
<g id="edge34" class="edge">
<title>MaterialExampleModule&#45;&gt;MatSelectModule </title>
<path fill="none" stroke="black" stroke-dasharray="5,2" d="M3359.74,-96C3060.57,-96 2006,-96 2006,-96 2006,-96 2006,-132.89 2006,-132.89"/>
<polygon fill="black" stroke="black" points="2002.5,-132.89 2006,-142.89 2009.5,-132.89 2002.5,-132.89"/>
</g>
<!-- MaterialExampleModule&#45;&gt;MatSidenavModule  -->
<g id="edge35" class="edge">
<title>MaterialExampleModule&#45;&gt;MatSidenavModule </title>
<path fill="none" stroke="black" stroke-dasharray="5,2" d="M3359.63,-94C3041.43,-94 1863,-94 1863,-94 1863,-94 1863,-132.69 1863,-132.69"/>
<polygon fill="black" stroke="black" points="1859.5,-132.69 1863,-142.69 1866.5,-132.69 1859.5,-132.69"/>
</g>
<!-- MaterialExampleModule&#45;&gt;MatSliderModule  -->
<g id="edge36" class="edge">
<title>MaterialExampleModule&#45;&gt;MatSliderModule </title>
<path fill="none" stroke="black" stroke-dasharray="5,2" d="M3359.72,-92C3023.63,-92 1720,-92 1720,-92 1720,-92 1720,-132.87 1720,-132.87"/>
<polygon fill="black" stroke="black" points="1716.5,-132.87 1720,-142.87 1723.5,-132.87 1716.5,-132.87"/>
</g>
<!-- MaterialExampleModule&#45;&gt;MatSlideToggleModule  -->
<g id="edge37" class="edge">
<title>MaterialExampleModule&#45;&gt;MatSlideToggleModule </title>
<path fill="none" stroke="black" stroke-dasharray="5,2" d="M3359.61,-90C3004.62,-90 1565,-90 1565,-90 1565,-90 1565,-132.72 1565,-132.72"/>
<polygon fill="black" stroke="black" points="1561.5,-132.72 1565,-142.72 1568.5,-132.72 1561.5,-132.72"/>
</g>
<!-- MaterialExampleModule&#45;&gt;MatSnackBarModule  -->
<g id="edge38" class="edge">
<title>MaterialExampleModule&#45;&gt;MatSnackBarModule </title>
<path fill="none" stroke="black" stroke-dasharray="5,2" d="M3359.67,-88C2985.7,-88 1400,-88 1400,-88 1400,-88 1400,-132.96 1400,-132.96"/>
<polygon fill="black" stroke="black" points="1396.5,-132.96 1400,-142.96 1403.5,-132.96 1396.5,-132.96"/>
</g>
<!-- MaterialExampleModule&#45;&gt;MatSortModule  -->
<g id="edge39" class="edge">
<title>MaterialExampleModule&#45;&gt;MatSortModule </title>
<path fill="none" stroke="black" stroke-dasharray="5,2" d="M3359.45,-86C2969.24,-86 1258,-86 1258,-86 1258,-86 1258,-132.84 1258,-132.84"/>
<polygon fill="black" stroke="black" points="1254.5,-132.84 1258,-142.84 1261.5,-132.84 1254.5,-132.84"/>
</g>
<!-- MaterialExampleModule&#45;&gt;MatTableModule  -->
<g id="edge40" class="edge">
<title>MaterialExampleModule&#45;&gt;MatTableModule </title>
<path fill="none" stroke="black" stroke-dasharray="5,2" d="M3359.45,-84C2955.09,-84 1127,-84 1127,-84 1127,-84 1127,-132.75 1127,-132.75"/>
<polygon fill="black" stroke="black" points="1123.5,-132.75 1127,-142.75 1130.5,-132.75 1123.5,-132.75"/>
</g>
<!-- MaterialExampleModule&#45;&gt;MatTabsModule  -->
<g id="edge41" class="edge">
<title>MaterialExampleModule&#45;&gt;MatTabsModule </title>
<path fill="none" stroke="black" stroke-dasharray="5,2" d="M3359.45,-82C2941.12,-82 994,-82 994,-82 994,-82 994,-132.68 994,-132.68"/>
<polygon fill="black" stroke="black" points="990.5,-132.68 994,-142.68 997.5,-132.68 990.5,-132.68"/>
</g>
<!-- MaterialExampleModule&#45;&gt;MatToolbarModule  -->
<g id="edge42" class="edge">
<title>MaterialExampleModule&#45;&gt;MatToolbarModule </title>
<path fill="none" stroke="black" stroke-dasharray="5,2" d="M3359.64,-80C2927.53,-80 855,-80 855,-80 855,-80 855,-132.62 855,-132.62"/>
<polygon fill="black" stroke="black" points="851.5,-132.62 855,-142.62 858.5,-132.62 851.5,-132.62"/>
</g>
<!-- MaterialExampleModule&#45;&gt;MatTooltipModule  -->
<g id="edge43" class="edge">
<title>MaterialExampleModule&#45;&gt;MatTooltipModule </title>
<path fill="none" stroke="black" stroke-dasharray="5,2" d="M3412.84,-114.04C3412.84,-126.56 3412.84,-141 3412.84,-141 3412.84,-141 709,-141 709,-141 709,-141 709,-141.18 709,-141.18"/>
<polygon fill="black" stroke="black" points="705.5,-132.85 709,-142.85 712.5,-132.85 705.5,-132.85"/>
</g>
<!-- MaterialExampleModule&#45;&gt;MatTreeModule  -->
<g id="edge44" class="edge">
<title>MaterialExampleModule&#45;&gt;MatTreeModule </title>
<path fill="none" stroke="black" stroke-dasharray="5,2" d="M3403.97,-114.1C3403.97,-125.09 3403.97,-137 3403.97,-137 3403.97,-137 572,-137 572,-137 572,-137 572,-137.58 572,-137.58"/>
<polygon fill="black" stroke="black" points="568.5,-132.81 572,-142.81 575.5,-132.81 568.5,-132.81"/>
</g>
<!-- MaterialExampleModule&#45;&gt;OverlayModule  -->
<g id="edge45" class="edge">
<title>MaterialExampleModule&#45;&gt;OverlayModule </title>
<path fill="none" stroke="black" stroke-dasharray="5,2" d="M3395.1,-114.42C3395.1,-123.28 3395.1,-132 3395.1,-132 3395.1,-132 444,-132 444,-132 444,-132 444,-133.08 444,-133.08"/>
<polygon fill="black" stroke="black" points="440.5,-132.8 444,-142.8 447.5,-132.8 440.5,-132.8"/>
</g>
<!-- MaterialExampleModule&#45;&gt;PortalModule  -->
<g id="edge46" class="edge">
<title>MaterialExampleModule&#45;&gt;PortalModule </title>
<path fill="none" stroke="black" stroke-dasharray="5,2" d="M3386.24,-114.24C3386.24,-121.43 3386.24,-128 3386.24,-128 3386.24,-128 324,-128 324,-128 324,-128 324,-132.96 324,-132.96"/>
<polygon fill="black" stroke="black" points="320.5,-132.96 324,-142.96 327.5,-132.96 320.5,-132.96"/>
</g>
<!-- MaterialExampleModule&#45;&gt;ScrollingModule  -->
<g id="edge47" class="edge">
<title>MaterialExampleModule&#45;&gt;ScrollingModule </title>
<path fill="none" stroke="black" stroke-dasharray="5,2" d="M3377.37,-114.16C3377.37,-119.04 3377.37,-123 3377.37,-123 3377.37,-123 201,-123 201,-123 201,-123 201,-132.89 201,-132.89"/>
<polygon fill="black" stroke="black" points="197.5,-132.89 201,-142.89 204.5,-132.89 197.5,-132.89"/>
</g>
<!-- MaterialExampleModule&#45;&gt;DialogModule  -->
<g id="edge48" class="edge">
<title>MaterialExampleModule&#45;&gt;DialogModule </title>
<path fill="none" stroke="black" stroke-dasharray="5,2" d="M3368.5,-114.12C3368.5,-116.97 3368.5,-119 3368.5,-119 3368.5,-119 75,-119 75,-119 75,-119 75,-132.94 75,-132.94"/>
<polygon fill="black" stroke="black" points="71.5,-132.94 75,-142.94 78.5,-132.94 71.5,-132.94"/>
</g>
</g>
</svg>
